<svg xmlns="http://www.w3.org/2000/svg" xmlns:xlink="http://www.w3.org/1999/xlink" contentStyleType="text/css" data-diagram-type="DESCRIPTION" height="650px" preserveAspectRatio="none" style="width:379px;height:650px;background:#FAFAFA;" version="1.1" viewBox="0 0 379 650" width="379px" zoomAndPan="magnify"><?plantuml 1.2026.5?><defs/><g><rect fill="#FAFAFA" height="650" style="stroke:none;stroke-width:1;" width="379" x="0" y="0"/><!--cluster Indexing ? embed.py--><g class="cluster" data-qualified-name="Indexing . embed.py" data-source-line="28" id="ent0001"><path d="M8.5,6 L143.8545,6 A3.75,3.75 0 0 1 146.3545,8.5 L153.3545,26.9487 L187.5,26.9487 A2.5,2.5 0 0 1 190,29.4487 L190,432.16 A2.5,2.5 0 0 1 187.5,434.66 L8.5,434.66 A2.5,2.5 0 0 1 6,432.16 L6,8.5 A2.5,2.5 0 0 1 8.5,6" fill="#EEF2FF" style="stroke:#000000;stroke-width:1.5;"/><line style="stroke:#000000;stroke-width:1.5;" x1="6" x2="153.3545" y1="26.9487" y2="26.9487"/><text fill="#000000" font-family="Arial" font-size="13" font-weight="700" lengthAdjust="spacing" textLength="134.3545" x="10" y="20.1938">Indexing &#8212; embed.py</text></g><!--cluster Search ? search.py--><g class="cluster" data-qualified-name="Search . search.py" data-source-line="39" id="ent0009"><path d="M216.5,240.22 L341.7871,240.22 A3.75,3.75 0 0 1 344.2871,242.72 L351.2871,261.1687 L361.5,261.1687 A2.5,2.5 0 0 1 364,263.6687 L364,633.28 A2.5,2.5 0 0 1 361.5,635.78 L216.5,635.78 A2.5,2.5 0 0 1 214,633.28 L214,242.72 A2.5,2.5 0 0 1 216.5,240.22" fill="#FDF4FF" style="stroke:#000000;stroke-width:1.5;"/><line style="stroke:#000000;stroke-width:1.5;" x1="214" x2="351.2871" y1="261.1687" y2="261.1687"/><text fill="#000000" font-family="Arial" font-size="13" font-weight="700" lengthAdjust="spacing" textLength="124.2871" x="218" y="254.4138">Search &#8212; search.py</text></g><!--entity docs--><g class="entity" data-qualified-name="Indexing . embed.py.docs" data-source-line="29" id="ent0002"><path d="M51.9,39 L92.9,39 A3.75,3.75 0 0 1 95.4,41.5 L102.4,60 L144.1026,60 A2.5,2.5 0 0 1 146.6026,62.5 L146.6026,89.4487 A2.5,2.5 0 0 1 144.1026,91.9487 L51.9,91.9487 A2.5,2.5 0 0 1 49.4,89.4487 L49.4,41.5 A2.5,2.5 0 0 1 51.9,39" fill="#F1F1F1" style="stroke:#181818;stroke-width:0.5;"/><line style="stroke:#181818;stroke-width:0.5;" x1="49.4" x2="102.4" y1="60" y2="60"/><text fill="#000000" font-family="Arial" font-size="13" lengthAdjust="spacing" textLength="67.2026" x="59.4" y="79.1938">documents/</text></g><!--entity chunk--><g class="entity" data-qualified-name="Indexing . embed.py.chunk" data-source-line="30" id="ent0003"><rect fill="#EFF6FF" height="49.8975" rx="6" ry="6" style="stroke:#3B82F6;stroke-width:0.5;" width="152.2407" x="21.88" y="151.95"/><text fill="#1E3A8A" font-family="Arial" font-size="13" lengthAdjust="spacing" textLength="62.8735" x="31.88" y="174.1438">chunk_text</text><text fill="#1E3A8A" font-family="Arial" font-size="13" lengthAdjust="spacing" textLength="132.2407" x="31.88" y="189.0926">300 words &#183; 50 overlap</text></g><!--entity embed--><g class="entity" data-qualified-name="Indexing . embed.py.embed" data-source-line="31" id="ent0004"><rect fill="#EFF6FF" height="49.8975" rx="6" ry="6" style="stroke:#3B82F6;stroke-width:0.5;" width="108.1689" x="47.92" y="261.84"/><text fill="#1E3A8A" font-family="Arial" font-size="13" lengthAdjust="spacing" textLength="88.1689" x="57.92" y="284.0338">embed_chunks</text><text fill="#1E3A8A" font-family="Arial" font-size="13" lengthAdjust="spacing" textLength="68.6499" x="57.92" y="298.9826">OpenAI API</text></g><!--entity store--><g class="entity" data-qualified-name="Indexing . embed.py.store" data-source-line="32" id="ent0005"><path d="M50.86,384.72 C50.86,374.72 110.0036,374.72 110.0036,374.72 C110.0036,374.72 169.1471,374.72 169.1471,384.72 L169.1471,408.6687 C169.1471,418.6687 110.0036,418.6687 110.0036,418.6687 C110.0036,418.6687 50.86,418.6687 50.86,408.6687 L50.86,384.72" fill="#FEF9C3" style="stroke:#EAB308;stroke-width:0.5;"/><path d="M50.86,384.72 C50.86,394.72 110.0036,394.72 110.0036,394.72 C110.0036,394.72 169.1471,394.72 169.1471,384.72" fill="none" style="stroke:#EAB308;stroke-width:0.5;"/><text fill="#713F12" font-family="Arial" font-size="13" lengthAdjust="spacing" textLength="98.2871" x="60.86" y="410.9138">embeddings.json</text></g><!--entity query--><g class="entity" data-qualified-name="Search . search.py.query" data-source-line="40" id="ent0010"><ellipse cx="288.0022" cy="286.7903" fill="#F0FDF4" rx="28.0322" ry="13.5703" style="stroke:#22C55E;stroke-width:0.5;"/><text fill="#14532D" font-family="Arial" font-size="13" lengthAdjust="spacing" textLength="35.4009" x="270.3018" y="290.7647">Query</text></g><!--entity embedq--><g class="entity" data-qualified-name="Search . search.py.embedq" data-source-line="41" id="ent0011"><rect fill="#EFF6FF" height="49.8975" rx="6" ry="6" style="stroke:#3B82F6;stroke-width:0.5;" width="99.498" x="238.25" y="371.74"/><text fill="#1E3A8A" font-family="Arial" font-size="13" lengthAdjust="spacing" textLength="79.498" x="248.25" y="393.9338">embed_query</text><text fill="#1E3A8A" font-family="Arial" font-size="13" lengthAdjust="spacing" textLength="68.6499" x="248.25" y="408.8826">OpenAI API</text></g><!--entity cosine--><g class="entity" data-qualified-name="Search . search.py.cosine" data-source-line="42" id="ent0012"><rect fill="#EFF6FF" height="49.8975" rx="6" ry="6" style="stroke:#3B82F6;stroke-width:0.5;" width="115.3608" x="230.32" y="481.64"/><text fill="#1E3A8A" font-family="Arial" font-size="13" lengthAdjust="spacing" textLength="95.3608" x="240.32" y="503.8338">cosine_similarity</text><text fill="#1E3A8A" font-family="Arial" font-size="13" lengthAdjust="spacing" textLength="74.4199" x="240.32" y="518.7826">vs all chunks</text></g><!--entity results--><g class="entity" data-qualified-name="Search . search.py.results" data-source-line="43" id="ent0013"><ellipse cx="289.0001" cy="605.662" fill="#F0FDF4" rx="58.6101" ry="14.122" style="stroke:#22C55E;stroke-width:0.5;"/><text fill="#14532D" font-family="Arial" font-size="13" lengthAdjust="spacing" textLength="82.3608" x="247.8197" y="609.6364">Top-K Results</text></g><!--link docs to chunk--><g class="link" data-entity-1="ent0002" data-entity-2="ent0003" data-link-type="dependency" data-source-line="34" id="lnk6"><path d="M98,92.44 C98,110.48 98,129.04 98,146.7" fill="none" id="docs-to-chunk" style="stroke:#555555;stroke-width:2;"/><polygon fill="#555555" points="98,151.7,102,142.7,98,146.7,94,142.7,98,151.7" style="stroke:#555555;stroke-width:2;stroke-linejoin:miter;stroke-miterlimit:10;"/></g><!--link chunk to embed--><g class="link" data-entity-1="ent0003" data-entity-2="ent0004" data-link-type="dependency" data-source-line="35" id="lnk7"><path d="M102,202.11 C102,219.98 102,238.85 102,256.7" fill="none" id="chunk-to-embed" style="stroke:#555555;stroke-width:2;"/><polygon fill="#555555" points="102,261.7,106,252.7,102,256.7,98,252.7,102,261.7" style="stroke:#555555;stroke-width:2;stroke-linejoin:miter;stroke-miterlimit:10;"/></g><!--link embed to store--><g class="link" data-entity-1="ent0004" data-entity-2="ent0005" data-link-type="dependency" data-source-line="36" id="lnk8"><path d="M103.47,312.01 C103.47,330.89 103.47,351.48 103.47,369.57" fill="none" id="embed-to-store" style="stroke:#555555;stroke-width:2;"/><polygon fill="#555555" points="103.47,374.57,107.47,365.57,103.47,369.57,99.47,365.57,103.47,374.57" style="stroke:#555555;stroke-width:2;stroke-linejoin:miter;stroke-miterlimit:10;"/></g><!--link query to embedq--><g class="link" data-entity-1="ent0010" data-entity-2="ent0011" data-link-type="dependency" data-source-line="45" id="lnk14"><path d="M288,300.71 C288,318.5 288,344.62 288,366.59" fill="none" id="query-to-embedq" style="stroke:#555555;stroke-width:2;"/><polygon fill="#555555" points="288,371.59,292,362.59,288,366.59,284,362.59,288,371.59" style="stroke:#555555;stroke-width:2;stroke-linejoin:miter;stroke-miterlimit:10;"/></g><!--link embedq to cosine--><g class="link" data-entity-1="ent0011" data-entity-2="ent0012" data-link-type="dependency" data-source-line="46" id="lnk15"><path d="M288,421.9 C288,439.77 288,458.65 288,476.49" fill="none" id="embedq-to-cosine" style="stroke:#555555;stroke-width:2;"/><polygon fill="#555555" points="288,481.49,292,472.49,288,476.49,284,472.49,288,481.49" style="stroke:#555555;stroke-width:2;stroke-linejoin:miter;stroke-miterlimit:10;"/></g><!--link cosine to results--><g class="link" data-entity-1="ent0012" data-entity-2="ent0013" data-link-type="dependency" data-source-line="47" id="lnk16"><path d="M288.04,531.84 C288.04,550.65 288.04,570.65 288.04,586.2" fill="none" id="cosine-to-results" style="stroke:#555555;stroke-width:2;"/><polygon fill="#555555" points="288.04,591.2,292.04,582.2,288.04,586.2,284.04,582.2,288.04,591.2" style="stroke:#555555;stroke-width:2;stroke-linejoin:miter;stroke-miterlimit:10;"/></g><!--link store to cosine--><g class="link" data-entity-1="ent0005" data-entity-2="ent0012" data-link-type="dependency" data-source-line="50" id="lnk17"><path d="M169.59,396.78 C201.49,396.78 234.29,396.78 234.29,396.78 C234.29,396.78 234.29,443.98 234.29,476.4" fill="none" id="store-to-cosine" style="stroke:#555555;stroke-width:2;"/><polygon fill="#555555" points="234.29,481.4,238.29,472.4,234.29,476.4,230.29,472.4,234.29,481.4" style="stroke:#555555;stroke-width:2;stroke-linejoin:miter;stroke-miterlimit:10;"/></g><?plantuml-src VLDBRjim4Dtx50DrxTIMujJT590T4J0Az9Da6S2WfR75cY9baahY5WLoYDwb-nwb9oarT6pLTajjHlDcvhrveknQg9eRNa4X3EPEQ0KIbmwS1YDMfUlPVSM2v-kLqOqgfbfg0wzOsZwTYWANl96EQUK-y0eXDOBBy_Yj-8emJ3fWQen-t4qUqJa6xqgHhnLQ2t47aaAXszO8shXIzpf8kn1NAudmhGV-J8uNo1YxOYnWsXHeTlbaCexP5ULRhRliC4lISKhPcp34A3GmZ7lVkwm5Ttp1xJz9MSRUJfDJqYoT98FnCUcROSAE6HgB-Vy81koQNPuInF5qDCfEjheS9V5rIr3xGNo54CrKWKz2hU3tym_0Qe75HRsDlCACnOpjQ9TQ-j4G5JflAbJElew0M_2lbl23-L5UDcezT_ZaxbKo6C2ZLsNXrqyO3K0_e96yfbwgEsuc_Zb1zbvzh56bCqW_pQY3GEhOknuQ2Y_VNdonMb6TTTfWBnHwWT3ll-kmKKIvmpoAA1Twk_xS8ZTvIUvO2eCzhUjxUrw-KVIvGRCb4PisEhyUGUUtsvougQs_yNChAY6v4SxtFLZWKeOzRB2IYlvMSgVh_dkuGUj_mL1bGXoC8Gq75pO76pR1hyF845BsPKHxGLkZkgL_0000?></g></svg>