<?xml version="1.0" encoding="UTF-8" standalone="no"?><svg xmlns="http://www.w3.org/2000/svg" xmlns:xlink="http://www.w3.org/1999/xlink" contentScriptType="application/ecmascript" contentStyleType="text/css" height="668px" preserveAspectRatio="none" style="width:425px;height:668px;background:#FAFAFA;" version="1.1" viewBox="0 0 425 668" width="425px" zoomAndPan="magnify"><defs><filter height="300%" id="ft2u3n2i3ka5f" width="300%" x="-1" y="-1"><feGaussianBlur result="blurOut" stdDeviation="2.0"/><feColorMatrix in="blurOut" result="blurOut2" type="matrix" values="0 0 0 0 0 0 0 0 0 0 0 0 0 0 0 0 0 0 .4 0"/><feOffset dx="4.0" dy="4.0" in="blurOut2" result="blurOut3"/><feBlend in="SourceGraphic" in2="blurOut3" mode="normal"/></filter></defs><g><!--MD5=[ff4c7cbfc86cbafc5088fc7dc3b82e86]
cluster Indexing — embed.py--><polygon fill="#EEF2FF" filter="url(#ft2u3n2i3ka5f)" points="22,24,189,24,196,45.1328,218,45.1328,218,454,22,454,22,24" style="stroke: #000000; stroke-width: 1.5;"/><line style="stroke: #000000; stroke-width: 1.5;" x1="22" x2="196" y1="45.1328" y2="45.1328"/><text fill="#000000" font-family="Arial" font-size="13" font-weight="bold" lengthAdjust="spacingAndGlyphs" textLength="161" x="26" y="38.0669">Indexing — embed.py</text><!--MD5=[b7354f1b6b1a4ce6b3292a1a387e6ba1]
cluster Search — search.py--><polygon fill="#FDF4FF" filter="url(#ft2u3n2i3ka5f)" points="242,258.5,393,258.5,400,279.6328,403,279.6328,403,656,242,656,242,258.5" style="stroke: #000000; stroke-width: 1.5;"/><line style="stroke: #000000; stroke-width: 1.5;" x1="242" x2="400" y1="279.6328" y2="279.6328"/><text fill="#000000" font-family="Arial" font-size="13" font-weight="bold" lengthAdjust="spacingAndGlyphs" textLength="145" x="246" y="272.5669">Search — search.py</text><!--MD5=[57a5b41ed6b3ba96fe9b4a740eb3fdc7]
entity docs--><polygon fill="#FEFECE" filter="url(#ft2u3n2i3ka5f)" points="67,58,113,58,120,79,173,79,173,111.2656,67,111.2656,67,58" style="stroke: #000000; stroke-width: 1.5;"/><line style="stroke: #000000; stroke-width: 1.5;" x1="67" x2="120" y1="79" y2="79"/><text fill="#000000" font-family="Arial" font-size="13" lengthAdjust="spacingAndGlyphs" textLength="76" x="77" y="98.0669">documents/</text><!--MD5=[ff858b2fa29ed35ae3d882895b3a15f0]
entity chunk--><rect fill="#EFF6FF" filter="url(#ft2u3n2i3ka5f)" height="50.2656" rx="6" ry="6" style="stroke: #3B82F6; stroke-width: 1.5;" width="164" x="38" y="171"/><text fill="#1E3A8A" font-family="Arial" font-size="13" lengthAdjust="spacingAndGlyphs" textLength="70" x="48" y="193.0669">chunk_text</text><text fill="#1E3A8A" font-family="Arial" font-size="13" lengthAdjust="spacingAndGlyphs" textLength="144" x="48" y="208.1997">300 words · 50 overlap</text><!--MD5=[1a7a766028402bec58ce31452d7a7648]
entity embed--><rect fill="#EFF6FF" filter="url(#ft2u3n2i3ka5f)" height="50.2656" rx="6" ry="6" style="stroke: #3B82F6; stroke-width: 1.5;" width="117" x="65.5" y="281"/><text fill="#1E3A8A" font-family="Arial" font-size="13" lengthAdjust="spacingAndGlyphs" textLength="97" x="75.5" y="303.0669">embed_chunks</text><text fill="#1E3A8A" font-family="Arial" font-size="13" lengthAdjust="spacingAndGlyphs" textLength="70" x="75.5" y="318.1997">OpenAI API</text><!--MD5=[0686720d71d32ea68f81164171d509ce]
entity store--><path d="M67.5,404 C67.5,394 132,394 132,394 C132,394 196.5,394 196.5,404 L196.5,428.1328 C196.5,438.1328 132,438.1328 132,438.1328 C132,438.1328 67.5,438.1328 67.5,428.1328 L67.5,404 " fill="#FEF9C3" filter="url(#ft2u3n2i3ka5f)" style="stroke: #EAB308; stroke-width: 1.5;"/><path d="M67.5,404 C67.5,414 132,414 132,414 C132,414 196.5,414 196.5,404 " fill="none" style="stroke: #EAB308; stroke-width: 1.5;"/><text fill="#713F12" font-family="Arial" font-size="13" lengthAdjust="spacingAndGlyphs" textLength="109" x="77.5" y="430.0669">embeddings.json</text><ellipse cx="320.8701" cy="306.2005" fill="#F0FDF4" filter="url(#ft2u3n2i3ka5f)" rx="29.8701" ry="13.7005" style="stroke: #22C55E; stroke-width: 1.5;"/><text fill="#14532D" font-family="Arial" font-size="13" lengthAdjust="spacingAndGlyphs" textLength="38" x="301.8701" y="310.2669">Query</text><!--MD5=[81edeb3f3a35c1dab7f46e9decfdfebe]
entity embedq--><rect fill="#EFF6FF" filter="url(#ft2u3n2i3ka5f)" height="50.2656" rx="6" ry="6" style="stroke: #3B82F6; stroke-width: 1.5;" width="108" x="267" y="391"/><text fill="#1E3A8A" font-family="Arial" font-size="13" lengthAdjust="spacingAndGlyphs" textLength="88" x="277" y="413.0669">embed_query</text><text fill="#1E3A8A" font-family="Arial" font-size="13" lengthAdjust="spacingAndGlyphs" textLength="70" x="277" y="428.1997">OpenAI API</text><!--MD5=[3db17c234f6b9cf849b9b762d4cff762]
entity cosine--><rect fill="#EFF6FF" filter="url(#ft2u3n2i3ka5f)" height="50.2656" rx="6" ry="6" style="stroke: #3B82F6; stroke-width: 1.5;" width="125" x="258.5" y="501"/><text fill="#1E3A8A" font-family="Arial" font-size="13" lengthAdjust="spacingAndGlyphs" textLength="105" x="268.5" y="523.0669">cosine_similarity</text><text fill="#1E3A8A" font-family="Arial" font-size="13" lengthAdjust="spacingAndGlyphs" textLength="81" x="268.5" y="538.1997">vs all chunks</text><ellipse cx="320.7736" cy="625.4547" fill="#F0FDF4" filter="url(#ft2u3n2i3ka5f)" rx="60.2736" ry="14.4547" style="stroke: #22C55E; stroke-width: 1.5;"/><text fill="#14532D" font-family="Arial" font-size="13" lengthAdjust="spacingAndGlyphs" textLength="86" x="277.7736" y="629.5211">Top-K Results</text><!--MD5=[58d0584bf00a192df52be675af4060c3]
link docs to chunk--><path d="M120,111.21 C120,111.21 120,165.66 120,165.66 " fill="none" id="docs-&gt;chunk" style="stroke: #555555; stroke-width: 2.0;"/><polygon fill="#555555" points="120,170.66,124,161.66,120,165.66,116,161.66,120,170.66" style="stroke: #555555; stroke-width: 2.0;"/><!--MD5=[f719c65e3cd5877eb9f397b030baf6d1]
link chunk to embed--><path d="M124,221.24 C124,221.24 124,275.88 124,275.88 " fill="none" id="chunk-&gt;embed" style="stroke: #555555; stroke-width: 2.0;"/><polygon fill="#555555" points="124,280.88,128,271.88,124,275.88,120,271.88,124,280.88" style="stroke: #555555; stroke-width: 2.0;"/><!--MD5=[3fff7060fd0c4e8b3dcde3a0a24b4cc6]
link embed to store--><path d="M125,331.24 C125,331.24 125,388.86 125,388.86 " fill="none" id="embed-&gt;store" style="stroke: #555555; stroke-width: 2.0;"/><polygon fill="#555555" points="125,393.86,129,384.86,125,388.86,121,384.86,125,393.86" style="stroke: #555555; stroke-width: 2.0;"/><!--MD5=[8efdc581dcc4934b230519e9a1c62620]
link query to embedq--><path d="M321,319.93 C321,319.93 321,385.88 321,385.88 " fill="none" id="query-&gt;embedq" style="stroke: #555555; stroke-width: 2.0;"/><polygon fill="#555555" points="321,390.88,325,381.88,321,385.88,317,381.88,321,390.88" style="stroke: #555555; stroke-width: 2.0;"/><!--MD5=[07d0e59a576869aa907c1b73aa635231]
link embedq to cosine--><path d="M321,441.24 C321,441.24 321,495.88 321,495.88 " fill="none" id="embedq-&gt;cosine" style="stroke: #555555; stroke-width: 2.0;"/><polygon fill="#555555" points="321,500.88,325,491.88,321,495.88,317,491.88,321,500.88" style="stroke: #555555; stroke-width: 2.0;"/><!--MD5=[4684471f6051558c3413dfb8791f28b5]
link cosine to results--><path d="M321,551.11 C321,551.11 321,605.9 321,605.9 " fill="none" id="cosine-&gt;results" style="stroke: #555555; stroke-width: 2.0;"/><polygon fill="#555555" points="321,610.9,325,601.9,321,605.9,317,601.9,321,610.9" style="stroke: #555555; stroke-width: 2.0;"/><!--MD5=[a0c1a4ea2fae617c4a25a3db61a81add]
link store to cosine--><path d="M196.61,416 C229.55,416 262.75,416 262.75,416 C262.75,416 262.75,495.76 262.75,495.76 " fill="none" id="store-&gt;cosine" style="stroke: #555555; stroke-width: 2.0;"/><polygon fill="#555555" points="262.75,500.76,266.75,491.76,262.75,495.76,258.75,491.76,262.75,500.76" style="stroke: #555555; stroke-width: 2.0;"/><!--MD5=[b5895bd08e5963fd690290115f3d9b71]
@startuml pipeline
skinparam direction left to right
skinparam backgroundColor #FAFAFA
skinparam defaultFontName Arial
skinparam defaultFontSize 13
skinparam ArrowColor #555555
skinparam ArrowThickness 2
skinparam linetype ortho

skinparam rectangle {
    BackgroundColor #EFF6FF
    BorderColor #3B82F6
    FontColor #1E3A8A
    RoundCorner 12
}

skinparam database {
    BackgroundColor #FEF9C3
    BorderColor #EAB308
    FontColor #713F12
}

skinparam usecase {
    BackgroundColor #F0FDF4
    BorderColor #22C55E
    FontColor #14532D
}

package "Indexing — embed.py" #EEF2FF {
    folder "documents/" as docs
    rectangle "chunk_text\n300 words · 50 overlap" as chunk
    rectangle "embed_chunks\nOpenAI API" as embed
    database "embeddings.json" as store

    docs - -> chunk
    chunk - -> embed
    embed - -> store
}

package "Search — search.py" #FDF4FF {
    usecase "Query" as query
    rectangle "embed_query\nOpenAI API" as embedq
    rectangle "cosine_similarity\nvs all chunks" as cosine
    usecase "Top-K Results" as results

    query - -> embedq
    embedq - -> cosine
    cosine - -> results
}

store - -> cosine

@enduml

PlantUML version 1.2020.02(Sun Mar 01 10:22:07 UTC 2020)
(GPL source distribution)
Java Runtime: OpenJDK Runtime Environment
JVM: OpenJDK 64-Bit Server VM
Java Version: 17.0.19+10
Operating System: Linux
Default Encoding: UTF-8
Language: en
Country: null
--></g></svg>