<?xml version="1.0" encoding="UTF-8" standalone="no"?><svg xmlns="http://www.w3.org/2000/svg" xmlns:xlink="http://www.w3.org/1999/xlink" contentScriptType="application/ecmascript" contentStyleType="text/css" height="1355px" preserveAspectRatio="none" style="width:1820px;height:1355px;" version="1.1" viewBox="0 0 1820 1355" width="1820px" zoomAndPan="magnify"><defs><filter height="300%" id="f1d5fsqlaqd9y" width="300%" x="-1" y="-1"><feGaussianBlur result="blurOut" stdDeviation="2.0"/><feColorMatrix in="blurOut" result="blurOut2" type="matrix" values="0 0 0 0 0 0 0 0 0 0 0 0 0 0 0 0 0 0 .4 0"/><feOffset dx="4.0" dy="4.0" in="blurOut2" result="blurOut3"/><feBlend in="SourceGraphic" in2="blurOut3" mode="normal"/></filter></defs><g><text fill="#000000" font-family="Arial" font-size="16" lengthAdjust="spacingAndGlyphs" textLength="96" x="857.5" y="24.8516">RAG Pipeline</text><rect fill="#EEF6FF" height="1308" style="stroke: #AABBDD; stroke-width: 1.0;" width="891" x="19" y="36.625"/><text fill="#000000" font-family="Arial" font-size="16" font-weight="bold" lengthAdjust="spacingAndGlyphs" textLength="78" x="425.5" y="51.4766">Retrieval</text><rect fill="#FFF0F8" height="1308" style="stroke: #AABBDD; stroke-width: 1.0;" width="119" x="1369.5" y="36.625"/><text fill="#000000" font-family="Arial" font-size="16" font-weight="bold" lengthAdjust="spacingAndGlyphs" textLength="98" x="1380" y="51.4766">Generation</text><rect fill="#FFFFFF" filter="url(#f1d5fsqlaqd9y)" height="147.375" style="stroke: #000000; stroke-width: 2.0;" width="455.5" x="13" y="1091.625"/><rect fill="#FFFFFF" height="90.5" style="stroke: none; stroke-width: 1.0;" width="455.5" x="13" y="1148.5"/><line style="stroke: #A80036; stroke-width: 1.0; stroke-dasharray: 5.0,5.0;" x1="44" x2="44" y1="144.875" y2="1256"/><line style="stroke: #A80036; stroke-width: 1.0; stroke-dasharray: 5.0,5.0;" x1="424.5" x2="424.5" y1="144.875" y2="1256"/><line style="stroke: #A80036; stroke-width: 1.0; stroke-dasharray: 5.0,5.0;" x1="716" x2="716" y1="144.875" y2="1256"/><line style="stroke: #A80036; stroke-width: 1.0; stroke-dasharray: 5.0,5.0;" x1="858" x2="858" y1="144.875" y2="1256"/><line style="stroke: #A80036; stroke-width: 1.0; stroke-dasharray: 5.0,5.0;" x1="1069.5" x2="1069.5" y1="144.875" y2="1256"/><line style="stroke: #A80036; stroke-width: 1.0; stroke-dasharray: 5.0,5.0;" x1="1180.5" x2="1180.5" y1="144.875" y2="1256"/><line style="stroke: #A80036; stroke-width: 1.0; stroke-dasharray: 5.0,5.0;" x1="1428.5" x2="1428.5" y1="144.875" y2="1256"/><text fill="#000000" font-family="Arial" font-size="16" lengthAdjust="spacingAndGlyphs" textLength="37" x="23" y="141.1016">User</text><ellipse cx="44.5" cy="69.25" fill="#F0FFF0" filter="url(#f1d5fsqlaqd9y)" rx="8" ry="8" style="stroke: #448844; stroke-width: 2.0;"/><path d="M44.5,77.25 L44.5,104.25 M31.5,85.25 L57.5,85.25 M44.5,104.25 L31.5,119.25 M44.5,104.25 L57.5,119.25 " fill="none" filter="url(#f1d5fsqlaqd9y)" style="stroke: #448844; stroke-width: 2.0;"/><text fill="#000000" font-family="Arial" font-size="16" lengthAdjust="spacingAndGlyphs" textLength="37" x="23" y="1269.8516">User</text><ellipse cx="44.5" cy="1283.625" fill="#F0FFF0" filter="url(#f1d5fsqlaqd9y)" rx="8" ry="8" style="stroke: #448844; stroke-width: 2.0;"/><path d="M44.5,1291.625 L44.5,1318.625 M31.5,1299.625 L57.5,1299.625 M44.5,1318.625 L31.5,1333.625 M44.5,1318.625 L57.5,1333.625 " fill="none" filter="url(#f1d5fsqlaqd9y)" style="stroke: #448844; stroke-width: 2.0;"/><rect fill="#EEF3FB" filter="url(#f1d5fsqlaqd9y)" height="32.625" style="stroke: #5577AA; stroke-width: 1.5;" width="64" x="390.5" y="107.25"/><text fill="#222222" font-family="Arial" font-size="16" lengthAdjust="spacingAndGlyphs" textLength="50" x="397.5" y="129.1016">rag.py</text><rect fill="#EEF3FB" filter="url(#f1d5fsqlaqd9y)" height="32.625" style="stroke: #5577AA; stroke-width: 1.5;" width="64" x="390.5" y="1255"/><text fill="#222222" font-family="Arial" font-size="16" lengthAdjust="spacingAndGlyphs" textLength="50" x="397.5" y="1276.8516">rag.py</text><rect fill="#EEF3FB" filter="url(#f1d5fsqlaqd9y)" height="32.625" style="stroke: #5577AA; stroke-width: 1.5;" width="91" x="669" y="107.25"/><text fill="#222222" font-family="Arial" font-size="16" lengthAdjust="spacingAndGlyphs" textLength="77" x="676" y="129.1016">search.py</text><rect fill="#EEF3FB" filter="url(#f1d5fsqlaqd9y)" height="32.625" style="stroke: #5577AA; stroke-width: 1.5;" width="91" x="669" y="1255"/><text fill="#222222" font-family="Arial" font-size="16" lengthAdjust="spacingAndGlyphs" textLength="77" x="676" y="1276.8516">search.py</text><rect fill="#EEF3FB" filter="url(#f1d5fsqlaqd9y)" height="32.625" style="stroke: #5577AA; stroke-width: 1.5;" width="91" x="811" y="107.25"/><text fill="#222222" font-family="Arial" font-size="16" lengthAdjust="spacingAndGlyphs" textLength="77" x="818" y="129.1016">embed.py</text><rect fill="#EEF3FB" filter="url(#f1d5fsqlaqd9y)" height="32.625" style="stroke: #5577AA; stroke-width: 1.5;" width="91" x="811" y="1255"/><text fill="#222222" font-family="Arial" font-size="16" lengthAdjust="spacingAndGlyphs" textLength="77" x="818" y="1276.8516">embed.py</text><text fill="#000000" font-family="Arial" font-size="16" lengthAdjust="spacingAndGlyphs" textLength="90" x="1021.5" y="141.1016">Chroma DB</text><path d="M1051.5,90.25 C1051.5,80.25 1069.5,80.25 1069.5,80.25 C1069.5,80.25 1087.5,80.25 1087.5,90.25 L1087.5,116.25 C1087.5,126.25 1069.5,126.25 1069.5,126.25 C1069.5,126.25 1051.5,126.25 1051.5,116.25 L1051.5,90.25 " fill="#FFF8E7" filter="url(#f1d5fsqlaqd9y)" style="stroke: #CC9900; stroke-width: 1.5;"/><path d="M1051.5,90.25 C1051.5,100.25 1069.5,100.25 1069.5,100.25 C1069.5,100.25 1087.5,100.25 1087.5,90.25 " fill="none" style="stroke: #CC9900; stroke-width: 1.5;"/><text fill="#000000" font-family="Arial" font-size="16" lengthAdjust="spacingAndGlyphs" textLength="90" x="1021.5" y="1269.8516">Chroma DB</text><path d="M1051.5,1283.625 C1051.5,1273.625 1069.5,1273.625 1069.5,1273.625 C1069.5,1273.625 1087.5,1273.625 1087.5,1283.625 L1087.5,1309.625 C1087.5,1319.625 1069.5,1319.625 1069.5,1319.625 C1069.5,1319.625 1051.5,1319.625 1051.5,1309.625 L1051.5,1283.625 " fill="#FFF8E7" filter="url(#f1d5fsqlaqd9y)" style="stroke: #CC9900; stroke-width: 1.5;"/><path d="M1051.5,1283.625 C1051.5,1293.625 1069.5,1293.625 1069.5,1293.625 C1069.5,1293.625 1087.5,1293.625 1087.5,1283.625 " fill="none" style="stroke: #CC9900; stroke-width: 1.5;"/><rect fill="#EEF3FB" filter="url(#f1d5fsqlaqd9y)" height="32.625" style="stroke: #5577AA; stroke-width: 1.5;" width="103" x="1127.5" y="107.25"/><text fill="#222222" font-family="Arial" font-size="16" lengthAdjust="spacingAndGlyphs" textLength="89" x="1134.5" y="129.1016">OpenAI API</text><rect fill="#EEF3FB" filter="url(#f1d5fsqlaqd9y)" height="32.625" style="stroke: #5577AA; stroke-width: 1.5;" width="103" x="1127.5" y="1255"/><text fill="#222222" font-family="Arial" font-size="16" lengthAdjust="spacingAndGlyphs" textLength="89" x="1134.5" y="1276.8516">OpenAI API</text><rect fill="#EEF3FB" filter="url(#f1d5fsqlaqd9y)" height="32.625" style="stroke: #5577AA; stroke-width: 1.5;" width="107" x="1373.5" y="107.25"/><text fill="#222222" font-family="Arial" font-size="16" lengthAdjust="spacingAndGlyphs" textLength="93" x="1380.5" y="129.1016">generate.py</text><rect fill="#EEF3FB" filter="url(#f1d5fsqlaqd9y)" height="32.625" style="stroke: #5577AA; stroke-width: 1.5;" width="107" x="1373.5" y="1255"/><text fill="#222222" font-family="Arial" font-size="16" lengthAdjust="spacingAndGlyphs" textLength="93" x="1380.5" y="1276.8516">generate.py</text><rect fill="#EEEEEE" filter="url(#f1d5fsqlaqd9y)" height="3" style="stroke: #EEEEEE; stroke-width: 1.0;" width="1805" x="3" y="177.1875"/><line style="stroke: #000000; stroke-width: 1.0;" x1="3" x2="1808" y1="177.1875" y2="177.1875"/><line style="stroke: #000000; stroke-width: 1.0;" x1="3" x2="1808" y1="180.1875" y2="180.1875"/><rect fill="#EEEEEE" filter="url(#f1d5fsqlaqd9y)" height="26.625" style="stroke: #000000; stroke-width: 2.0;" width="98" x="856.5" y="164.875"/><text fill="#000000" font-family="Arial" font-size="16" font-weight="bold" lengthAdjust="spacingAndGlyphs" textLength="78" x="862.5" y="183.7266">Retrieval</text><polygon fill="#A80036" points="412.5,240.75,422.5,244.75,412.5,248.75,416.5,244.75" style="stroke: #A80036; stroke-width: 1.0;"/><line style="stroke: #A80036; stroke-width: 2.0;" x1="44.5" x2="418.5" y1="244.75" y2="244.75"/><text fill="#000000" font-family="Arial" font-size="16" lengthAdjust="spacingAndGlyphs" textLength="67" x="51.5" y="220.3516">question</text><text fill="#000000" font-family="Arial" font-size="16" lengthAdjust="spacingAndGlyphs" textLength="146" x="51.5" y="238.9766">(CLI arg or input())</text><polygon fill="#A80036" points="704.5,273.375,714.5,277.375,704.5,281.375,708.5,277.375" style="stroke: #A80036; stroke-width: 1.0;"/><line style="stroke: #A80036; stroke-width: 2.0;" x1="424.5" x2="710.5" y1="277.375" y2="277.375"/><text fill="#000000" font-family="Arial" font-size="16" lengthAdjust="spacingAndGlyphs" textLength="208" x="431.5" y="271.6016">search(question, top_k=5)</text><polygon fill="#A80036" points="846.5,306,856.5,310,846.5,314,850.5,310" style="stroke: #A80036; stroke-width: 1.0;"/><line style="stroke: #A80036; stroke-width: 2.0;" x1="716.5" x2="852.5" y1="310" y2="310"/><text fill="#000000" font-family="Arial" font-size="16" lengthAdjust="spacingAndGlyphs" textLength="118" x="723.5" y="304.2266">embed_query()</text><polygon fill="#A80036" points="1169,357.25,1179,361.25,1169,365.25,1173,361.25" style="stroke: #A80036; stroke-width: 1.0;"/><line style="stroke: #A80036; stroke-width: 2.0;" x1="858.5" x2="1175" y1="361.25" y2="361.25"/><text fill="#000000" font-family="Arial" font-size="16" lengthAdjust="spacingAndGlyphs" textLength="161" x="865.5" y="336.8516">embeddings.create()</text><text fill="#000000" font-family="Arial" font-size="16" lengthAdjust="spacingAndGlyphs" textLength="184" x="865.5" y="355.4766">text-embedding-3-small</text><polygon fill="#A80036" points="869.5,389.875,859.5,393.875,869.5,397.875,865.5,393.875" style="stroke: #A80036; stroke-width: 1.0;"/><line style="stroke: #A80036; stroke-width: 2.0; stroke-dasharray: 2.0,2.0;" x1="863.5" x2="1180" y1="393.875" y2="393.875"/><text fill="#000000" font-family="Arial" font-size="16" lengthAdjust="spacingAndGlyphs" textLength="191" x="875.5" y="388.1016">query vector (1536-dim)</text><polygon fill="#A80036" points="727.5,422.5,717.5,426.5,727.5,430.5,723.5,426.5" style="stroke: #A80036; stroke-width: 1.0;"/><line style="stroke: #A80036; stroke-width: 2.0; stroke-dasharray: 2.0,2.0;" x1="721.5" x2="857.5" y1="426.5" y2="426.5"/><text fill="#000000" font-family="Arial" font-size="16" lengthAdjust="spacingAndGlyphs" textLength="100" x="733.5" y="420.7266">query vector</text><polygon fill="#A80036" points="1057.5,455.125,1067.5,459.125,1057.5,463.125,1061.5,459.125" style="stroke: #A80036; stroke-width: 1.0;"/><line style="stroke: #A80036; stroke-width: 2.0;" x1="716.5" x2="1063.5" y1="459.125" y2="459.125"/><text fill="#000000" font-family="Arial" font-size="16" lengthAdjust="spacingAndGlyphs" textLength="309" x="723.5" y="453.3516">query(query_embeddings, n_results=5)</text><polygon fill="#A80036" points="727.5,506.375,717.5,510.375,727.5,514.375,723.5,510.375" style="stroke: #A80036; stroke-width: 1.0;"/><line style="stroke: #A80036; stroke-width: 2.0; stroke-dasharray: 2.0,2.0;" x1="721.5" x2="1068.5" y1="510.375" y2="510.375"/><text fill="#000000" font-family="Arial" font-size="16" lengthAdjust="spacingAndGlyphs" textLength="168" x="733.5" y="485.9766">top-5 nearest chunks</text><text fill="#000000" font-family="Arial" font-size="16" lengthAdjust="spacingAndGlyphs" textLength="329" x="733.5" y="504.6016">(text + source + chunk_index + distance)</text><polygon fill="#A80036" points="435.5,539,425.5,543,435.5,547,431.5,543" style="stroke: #A80036; stroke-width: 1.0;"/><line style="stroke: #A80036; stroke-width: 2.0; stroke-dasharray: 2.0,2.0;" x1="429.5" x2="715.5" y1="543" y2="543"/><text fill="#000000" font-family="Arial" font-size="16" lengthAdjust="spacingAndGlyphs" textLength="83" x="441.5" y="537.2266">chunks list</text><rect fill="#EEEEEE" filter="url(#f1d5fsqlaqd9y)" height="3" style="stroke: #EEEEEE; stroke-width: 1.0;" width="1805" x="3" y="573.3125"/><line style="stroke: #000000; stroke-width: 1.0;" x1="3" x2="1808" y1="573.3125" y2="573.3125"/><line style="stroke: #000000; stroke-width: 1.0;" x1="3" x2="1808" y1="576.3125" y2="576.3125"/><rect fill="#EEEEEE" filter="url(#f1d5fsqlaqd9y)" height="26.625" style="stroke: #000000; stroke-width: 2.0;" width="118" x="846.5" y="561"/><text fill="#000000" font-family="Arial" font-size="16" font-weight="bold" lengthAdjust="spacingAndGlyphs" textLength="98" x="852.5" y="579.8516">Generation</text><polygon fill="#A80036" points="1417,618.25,1427,622.25,1417,626.25,1421,622.25" style="stroke: #A80036; stroke-width: 1.0;"/><line style="stroke: #A80036; stroke-width: 2.0;" x1="424.5" x2="1423" y1="622.25" y2="622.25"/><text fill="#000000" font-family="Arial" font-size="16" lengthAdjust="spacingAndGlyphs" textLength="280" x="431.5" y="616.4766">generate_answer(question, chunks)</text><line style="stroke: #A80036; stroke-width: 2.0;" x1="1429" x2="1471" y1="692.125" y2="692.125"/><line style="stroke: #A80036; stroke-width: 2.0;" x1="1471" x2="1471" y1="692.125" y2="705.125"/><line style="stroke: #A80036; stroke-width: 2.0;" x1="1430" x2="1471" y1="705.125" y2="705.125"/><polygon fill="#A80036" points="1440,701.125,1430,705.125,1440,709.125,1436,705.125" style="stroke: #A80036; stroke-width: 1.0;"/><text fill="#000000" font-family="Arial" font-size="16" lengthAdjust="spacingAndGlyphs" textLength="246" x="1436" y="649.1016">_select_chunks_within_budget()</text><text fill="#000000" font-family="Arial" font-size="16" lengthAdjust="spacingAndGlyphs" textLength="263" x="1436" y="667.7266">tiktoken counts tokens per chunk</text><text fill="#000000" font-family="Arial" font-size="16" lengthAdjust="spacingAndGlyphs" textLength="365" x="1436" y="686.3516">skips any chunk exceeding 2000-token budget</text><line style="stroke: #A80036; stroke-width: 2.0;" x1="1429" x2="1471" y1="756.375" y2="756.375"/><line style="stroke: #A80036; stroke-width: 2.0;" x1="1471" x2="1471" y1="756.375" y2="769.375"/><line style="stroke: #A80036; stroke-width: 2.0;" x1="1430" x2="1471" y1="769.375" y2="769.375"/><polygon fill="#A80036" points="1440,765.375,1430,769.375,1440,773.375,1436,769.375" style="stroke: #A80036; stroke-width: 1.0;"/><text fill="#000000" font-family="Arial" font-size="16" lengthAdjust="spacingAndGlyphs" textLength="173" x="1436" y="731.9766">_build_context_block()</text><text fill="#000000" font-family="Arial" font-size="16" lengthAdjust="spacingAndGlyphs" textLength="282" x="1436" y="750.6016">numbered + labelled context entries</text><polygon fill="#A80036" points="1192,816.625,1182,820.625,1192,824.625,1188,820.625" style="stroke: #A80036; stroke-width: 1.0;"/><line style="stroke: #A80036; stroke-width: 2.0;" x1="1186" x2="1428" y1="820.625" y2="820.625"/><text fill="#000000" font-family="Arial" font-size="16" lengthAdjust="spacingAndGlyphs" textLength="199" x="1198" y="796.2266">chat.completions.create()</text><text fill="#000000" font-family="Arial" font-size="16" lengthAdjust="spacingAndGlyphs" textLength="224" x="1198" y="814.8516">gpt-4o-mini · temperature=0</text><path d="M1186,833.625 L1186,917.625 L1593,917.625 L1593,843.625 L1583,833.625 L1186,833.625 " fill="#FBFB77" filter="url(#f1d5fsqlaqd9y)" style="stroke: #A80036; stroke-width: 1.0;"/><path d="M1583,833.625 L1583,843.625 L1593,843.625 L1583,833.625 " fill="#FBFB77" style="stroke: #A80036; stroke-width: 1.0;"/><text fill="#000000" font-family="Arial" font-size="16" lengthAdjust="spacingAndGlyphs" textLength="126" x="1192" y="853.4766">System prompt:</text><text fill="#000000" font-family="Arial" font-size="16" lengthAdjust="spacingAndGlyphs" textLength="323" x="1192" y="872.1016">Answer ONLY from the provided context.</text><text fill="#000000" font-family="Arial" font-size="16" lengthAdjust="spacingAndGlyphs" textLength="299" x="1192" y="890.7266">If context is insufficient, respond with:</text><text fill="#000000" font-family="Arial" font-size="16" lengthAdjust="spacingAndGlyphs" textLength="386" x="1192" y="909.3516">"I don't know based on the provided documents."</text><polygon fill="#A80036" points="1417,947.75,1427,951.75,1417,955.75,1421,951.75" style="stroke: #A80036; stroke-width: 1.0;"/><line style="stroke: #A80036; stroke-width: 2.0; stroke-dasharray: 2.0,2.0;" x1="1181" x2="1423" y1="951.75" y2="951.75"/><text fill="#000000" font-family="Arial" font-size="16" lengthAdjust="spacingAndGlyphs" textLength="93" x="1188" y="945.9766">answer text</text><polygon fill="#A80036" points="435.5,980.375,425.5,984.375,435.5,988.375,431.5,984.375" style="stroke: #A80036; stroke-width: 1.0;"/><line style="stroke: #A80036; stroke-width: 2.0; stroke-dasharray: 2.0,2.0;" x1="429.5" x2="1428" y1="984.375" y2="984.375"/><text fill="#000000" font-family="Arial" font-size="16" lengthAdjust="spacingAndGlyphs" textLength="160" x="441.5" y="978.6016">{ answer, sources }</text><rect fill="#EEEEEE" filter="url(#f1d5fsqlaqd9y)" height="3" style="stroke: #EEEEEE; stroke-width: 1.0;" width="1805" x="3" y="1014.6875"/><line style="stroke: #000000; stroke-width: 1.0;" x1="3" x2="1808" y1="1014.6875" y2="1014.6875"/><line style="stroke: #000000; stroke-width: 1.0;" x1="3" x2="1808" y1="1017.6875" y2="1017.6875"/><rect fill="#EEEEEE" filter="url(#f1d5fsqlaqd9y)" height="26.625" style="stroke: #000000; stroke-width: 2.0;" width="83" x="864" y="1002.375"/><text fill="#000000" font-family="Arial" font-size="16" font-weight="bold" lengthAdjust="spacingAndGlyphs" textLength="63" x="870" y="1021.2266">Output</text><line style="stroke: #A80036; stroke-width: 2.0;" x1="424.5" x2="466.5" y1="1063.625" y2="1063.625"/><line style="stroke: #A80036; stroke-width: 2.0;" x1="466.5" x2="466.5" y1="1063.625" y2="1076.625"/><line style="stroke: #A80036; stroke-width: 2.0;" x1="425.5" x2="466.5" y1="1076.625" y2="1076.625"/><polygon fill="#A80036" points="435.5,1072.625,425.5,1076.625,435.5,1080.625,431.5,1076.625" style="stroke: #A80036; stroke-width: 1.0;"/><text fill="#000000" font-family="Arial" font-size="16" lengthAdjust="spacingAndGlyphs" textLength="278" x="431.5" y="1057.8516">answer == NO_ANSWER_PHRASE?</text><path d="M13,1091.625 L80,1091.625 L80,1101.625 L70,1111.625 L13,1111.625 L13,1091.625 " fill="#EEEEEE" style="stroke: #000000; stroke-width: 1.0;"/><rect fill="none" height="147.375" style="stroke: #000000; stroke-width: 2.0;" width="455.5" x="13" y="1091.625"/><text fill="#000000" font-family="Arial" font-size="16" font-weight="bold" lengthAdjust="spacingAndGlyphs" textLength="22" x="28" y="1107.4766">alt</text><text fill="#000000" font-family="Arial" font-size="16" font-weight="bold" lengthAdjust="spacingAndGlyphs" textLength="241" x="95" y="1108.4766">[answer not in documents]</text><polygon fill="#A80036" points="55.5,1136.5,45.5,1140.5,55.5,1144.5,51.5,1140.5" style="stroke: #A80036; stroke-width: 1.0;"/><line style="stroke: #A80036; stroke-width: 2.0;" x1="49.5" x2="423.5" y1="1140.5" y2="1140.5"/><text fill="#000000" font-family="Arial" font-size="16" lengthAdjust="spacingAndGlyphs" textLength="293" x="61.5" y="1134.7266">"No answer found in the documents."</text><line style="stroke: #000000; stroke-width: 1.0; stroke-dasharray: 2.0,2.0;" x1="13" x2="468.5" y1="1149.5" y2="1149.5"/><text fill="#000000" font-family="Arial" font-size="16" font-weight="bold" lengthAdjust="spacingAndGlyphs" textLength="136" x="18" y="1164.3516">[answer found]</text><polygon fill="#A80036" points="55.5,1227,45.5,1231,55.5,1235,51.5,1231" style="stroke: #A80036; stroke-width: 1.0;"/><line style="stroke: #A80036; stroke-width: 2.0;" x1="49.5" x2="423.5" y1="1231" y2="1231"/><text fill="#000000" font-family="Arial" font-size="16" lengthAdjust="spacingAndGlyphs" textLength="95" x="61.5" y="1187.9766">Answer text</text><text fill="#000000" font-family="Arial" font-size="16" lengthAdjust="spacingAndGlyphs" textLength="142" x="61.5" y="1206.6016">+ source citations</text><text fill="#000000" font-family="Arial" font-size="16" lengthAdjust="spacingAndGlyphs" textLength="356" x="61.5" y="1225.2266">(source filename · chunk index · text preview)</text><!--MD5=[557e4633a64c530e18bbef85c5b4745c]
@startuml pipeline-rag

skinparam backgroundColor #FFFFFF
skinparam defaultFontName Arial
skinparam defaultFontSize 16
skinparam sequenceArrowThickness 2
skinparam SequenceBoxBackgroundColor #F8F9FF
skinparam SequenceBoxBorderColor #AABBDD
skinparam ParticipantBackgroundColor #EEF3FB
skinparam ParticipantBorderColor #5577AA
skinparam ParticipantFontColor #222222
skinparam DatabaseBackgroundColor #FFF8E7
skinparam DatabaseBorderColor #CC9900
skinparam ActorBackgroundColor #F0FFF0
skinparam ActorBorderColor #448844

title RAG Pipeline

box "Retrieval" #EEF6FF
  actor "User" as user
  participant "rag.py" as rag
  participant "search.py" as search
  participant "embed.py" as embed
end box

database "Chroma DB" as chroma
participant "OpenAI API" as openai

box "Generation" #FFF0F8
  participant "generate.py" as generate
end box

== Retrieval ==

user -> rag : question\n(CLI arg or input())
rag -> search : search(question, top_k=5)
search -> embed : embed_query()
embed -> openai : embeddings.create()\ntext-embedding-3-small
openai - -> embed : query vector (1536-dim)
embed - -> search : query vector
search -> chroma : query(query_embeddings, n_results=5)
chroma - -> search : top-5 nearest chunks\n(text + source + chunk_index + distance)
search - -> rag : chunks list

== Generation ==

rag -> generate : generate_answer(question, chunks)
generate -> generate : _select_chunks_within_budget()\ntiktoken counts tokens per chunk\nskips any chunk exceeding 2000-token budget
generate -> generate : _build_context_block()\nnumbered + labelled context entries
generate -> openai : chat.completions.create()\ngpt-4o-mini · temperature=0
note right of openai
  System prompt:
  Answer ONLY from the provided context.
  If context is insufficient, respond with:
  "I don't know based on the provided documents."
end note
openai - -> generate : answer text
generate - -> rag : { answer, sources }

== Output ==

rag -> rag : answer == NO_ANSWER_PHRASE?
alt answer not in documents
  rag -> user : "No answer found in the documents."
else answer found
  rag -> user : Answer text\n+ source citations\n(source filename · chunk index · text preview)
end

@enduml

PlantUML version 1.2020.02(Sun Mar 01 10:22:07 UTC 2020)
(GPL source distribution)
Java Runtime: OpenJDK Runtime Environment
JVM: OpenJDK 64-Bit Server VM
Java Version: 17.0.19+10
Operating System: Linux
Default Encoding: UTF-8
Language: en
Country: null
--></g></svg>