<?xml version="1.0" encoding="UTF-8" standalone="no"?><svg xmlns="http://www.w3.org/2000/svg" xmlns:xlink="http://www.w3.org/1999/xlink" contentScriptType="application/ecmascript" contentStyleType="text/css" height="2216px" preserveAspectRatio="none" style="width:1878px;height:2216px;" version="1.1" viewBox="0 0 1878 2216" width="1878px" zoomAndPan="magnify"><defs><filter height="300%" id="fprtp1fw2bizh" width="300%" x="-1" y="-1"><feGaussianBlur result="blurOut" stdDeviation="2.0"/><feColorMatrix in="blurOut" result="blurOut2" type="matrix" values="0 0 0 0 0 0 0 0 0 0 0 0 0 0 0 0 0 0 .4 0"/><feOffset dx="4.0" dy="4.0" in="blurOut2" result="blurOut3"/><feBlend in="SourceGraphic" in2="blurOut3" mode="normal"/></filter></defs><g><rect fill="#FFFFFF" filter="url(#fprtp1fw2bizh)" height="2088.8594" style="stroke: #A80036; stroke-width: 1.0;" width="10" x="408.5" y="69.4297"/><rect fill="#FFFFFF" filter="url(#fprtp1fw2bizh)" height="259.9297" style="stroke: #A80036; stroke-width: 1.0;" width="10" x="641.5" y="310.3594"/><rect fill="#FFFFFF" filter="url(#fprtp1fw2bizh)" height="467.5313" style="stroke: #A80036; stroke-width: 1.0;" width="10" x="927.5" y="657.3594"/><rect fill="#FFFFFF" filter="url(#fprtp1fw2bizh)" height="579.0625" style="stroke: #A80036; stroke-width: 1.0;" width="10" x="1233.5" y="1211.9609"/><rect fill="#FFFFFF" filter="url(#fprtp1fw2bizh)" height="113.3984" style="stroke: #A80036; stroke-width: 1.0;" width="10" x="1590.5" y="1878.0938"/><rect fill="#FFFFFF" filter="url(#fprtp1fw2bizh)" height="46.2656" style="stroke: #000000; stroke-width: 2.0;" width="450.5" x="13" y="168.6953"/><rect fill="#FFFFFF" filter="url(#fprtp1fw2bizh)" height="1727.3984" style="stroke: #000000; stroke-width: 2.0;" width="1493" x="363.5" y="272.0938"/><rect fill="#FFFFFF" filter="url(#fprtp1fw2bizh)" height="132.5313" style="stroke: #000000; stroke-width: 2.0;" width="419" x="571" y="367.4922"/><rect fill="#FFFFFF" filter="url(#fprtp1fw2bizh)" height="59.2656" style="stroke: #000000; stroke-width: 2.0;" width="351.5" x="581" y="433.7578"/><rect fill="#FFFFFF" height="554.6016" style="stroke: none; stroke-width: 1.0;" width="1493" x="363.5" y="621.4219"/><rect fill="#FFFFFF" filter="url(#fprtp1fw2bizh)" height="293.8672" style="stroke: #000000; stroke-width: 2.0;" width="417" x="841.5" y="729.625"/><rect fill="#FFFFFF" filter="url(#fprtp1fw2bizh)" height="262.7344" style="stroke: #000000; stroke-width: 2.0;" width="397" x="851.5" y="753.7578"/><rect fill="#FFFFFF" filter="url(#fprtp1fw2bizh)" height="101.3984" style="stroke: #000000; stroke-width: 2.0;" width="377" x="861.5" y="777.8906"/><rect fill="#FFFFFF" height="88.0703" style="stroke: none; stroke-width: 1.0;" width="397" x="851.5" y="928.4219"/><rect fill="#FFFFFF" filter="url(#fprtp1fw2bizh)" height="59.2656" style="stroke: #000000; stroke-width: 2.0;" width="294" x="861.5" y="950.2266"/><rect fill="#FFFFFF" filter="url(#fprtp1fw2bizh)" height="59.2656" style="stroke: #000000; stroke-width: 2.0;" width="377" x="861.5" y="1037.4922"/><rect fill="#FFFFFF" height="666.1328" style="stroke: none; stroke-width: 1.0;" width="1493" x="363.5" y="1176.0234"/><rect fill="#FFFFFF" filter="url(#fprtp1fw2bizh)" height="378.3984" style="stroke: #000000; stroke-width: 2.0;" width="581.5" x="1128" y="1311.2266"/><rect fill="#FFFFFF" filter="url(#fprtp1fw2bizh)" height="347.2656" style="stroke: #000000; stroke-width: 2.0;" width="561.5" x="1138" y="1335.3594"/><rect fill="#FFFFFF" filter="url(#fprtp1fw2bizh)" height="101.3984" style="stroke: #000000; stroke-width: 2.0;" width="396.5" x="1148" y="1359.4922"/><rect fill="#FFFFFF" height="172.6016" style="stroke: none; stroke-width: 1.0;" width="561.5" x="1138" y="1510.0234"/><rect fill="#FFFFFF" filter="url(#fprtp1fw2bizh)" height="59.2656" style="stroke: #000000; stroke-width: 2.0;" width="263.5" x="1148" y="1616.3594"/><rect fill="#FFFFFF" filter="url(#fprtp1fw2bizh)" height="59.2656" style="stroke: #000000; stroke-width: 2.0;" width="396.5" x="1148" y="1703.625"/><rect fill="#FFFFFF" height="157.3359" style="stroke: none; stroke-width: 1.0;" width="1493" x="363.5" y="1842.1563"/><line style="stroke: #A80036; stroke-width: 1.0; stroke-dasharray: 5.0,5.0;" x1="81" x2="81" y1="38.2969" y2="2176.2891"/><line style="stroke: #A80036; stroke-width: 1.0; stroke-dasharray: 5.0,5.0;" x1="413.5" x2="413.5" y1="38.2969" y2="2176.2891"/><line style="stroke: #A80036; stroke-width: 1.0; stroke-dasharray: 5.0,5.0;" x1="646" x2="646" y1="38.2969" y2="2176.2891"/><line style="stroke: #A80036; stroke-width: 1.0; stroke-dasharray: 5.0,5.0;" x1="932.5" x2="932.5" y1="38.2969" y2="2176.2891"/><line style="stroke: #A80036; stroke-width: 1.0; stroke-dasharray: 5.0,5.0;" x1="1238" x2="1238" y1="38.2969" y2="2176.2891"/><line style="stroke: #A80036; stroke-width: 1.0; stroke-dasharray: 5.0,5.0;" x1="1595.5" x2="1595.5" y1="38.2969" y2="2176.2891"/><rect fill="#FEFECE" filter="url(#fprtp1fw2bizh)" height="30.2969" style="stroke: #A80036; stroke-width: 1.5;" width="93" x="33" y="3"/><text fill="#000000" font-family="sans-serif" font-size="14" lengthAdjust="spacingAndGlyphs" textLength="79" x="40" y="22.9951">ingest_file()</text><rect fill="#FEFECE" filter="url(#fprtp1fw2bizh)" height="30.2969" style="stroke: #A80036; stroke-width: 1.5;" width="93" x="33" y="2175.2891"/><text fill="#000000" font-family="sans-serif" font-size="14" lengthAdjust="spacingAndGlyphs" textLength="79" x="40" y="2195.2842">ingest_file()</text><rect fill="#FEFECE" filter="url(#fprtp1fw2bizh)" height="30.2969" style="stroke: #A80036; stroke-width: 1.5;" width="56" x="383.5" y="3"/><text fill="#000000" font-family="sans-serif" font-size="14" lengthAdjust="spacingAndGlyphs" textLength="42" x="390.5" y="22.9951">router</text><rect fill="#FEFECE" filter="url(#fprtp1fw2bizh)" height="30.2969" style="stroke: #A80036; stroke-width: 1.5;" width="56" x="383.5" y="2175.2891"/><text fill="#000000" font-family="sans-serif" font-size="14" lengthAdjust="spacingAndGlyphs" textLength="42" x="390.5" y="2195.2842">router</text><rect fill="#FEFECE" filter="url(#fprtp1fw2bizh)" height="30.2969" style="stroke: #A80036; stroke-width: 1.5;" width="87" x="601" y="3"/><text fill="#000000" font-family="sans-serif" font-size="14" lengthAdjust="spacingAndGlyphs" textLength="73" x="608" y="22.9951">pdf_parser</text><rect fill="#FEFECE" filter="url(#fprtp1fw2bizh)" height="30.2969" style="stroke: #A80036; stroke-width: 1.5;" width="87" x="601" y="2175.2891"/><text fill="#000000" font-family="sans-serif" font-size="14" lengthAdjust="spacingAndGlyphs" textLength="73" x="608" y="2195.2842">pdf_parser</text><rect fill="#FEFECE" filter="url(#fprtp1fw2bizh)" height="30.2969" style="stroke: #A80036; stroke-width: 1.5;" width="98" x="881.5" y="3"/><text fill="#000000" font-family="sans-serif" font-size="14" lengthAdjust="spacingAndGlyphs" textLength="84" x="888.5" y="22.9951">docx_parser</text><rect fill="#FEFECE" filter="url(#fprtp1fw2bizh)" height="30.2969" style="stroke: #A80036; stroke-width: 1.5;" width="98" x="881.5" y="2175.2891"/><text fill="#000000" font-family="sans-serif" font-size="14" lengthAdjust="spacingAndGlyphs" textLength="84" x="888.5" y="2195.2842">docx_parser</text><rect fill="#FEFECE" filter="url(#fprtp1fw2bizh)" height="30.2969" style="stroke: #A80036; stroke-width: 1.5;" width="137" x="1168" y="3"/><text fill="#000000" font-family="sans-serif" font-size="14" lengthAdjust="spacingAndGlyphs" textLength="123" x="1175" y="22.9951">markdown_parser</text><rect fill="#FEFECE" filter="url(#fprtp1fw2bizh)" height="30.2969" style="stroke: #A80036; stroke-width: 1.5;" width="137" x="1168" y="2175.2891"/><text fill="#000000" font-family="sans-serif" font-size="14" lengthAdjust="spacingAndGlyphs" textLength="123" x="1175" y="2195.2842">markdown_parser</text><rect fill="#FEFECE" filter="url(#fprtp1fw2bizh)" height="30.2969" style="stroke: #A80036; stroke-width: 1.5;" width="84" x="1551.5" y="3"/><text fill="#000000" font-family="sans-serif" font-size="14" lengthAdjust="spacingAndGlyphs" textLength="70" x="1558.5" y="22.9951">_parse_txt</text><rect fill="#FEFECE" filter="url(#fprtp1fw2bizh)" height="30.2969" style="stroke: #A80036; stroke-width: 1.5;" width="84" x="1551.5" y="2175.2891"/><text fill="#000000" font-family="sans-serif" font-size="14" lengthAdjust="spacingAndGlyphs" textLength="70" x="1558.5" y="2195.2842">_parse_txt</text><rect fill="#FFFFFF" filter="url(#fprtp1fw2bizh)" height="2088.8594" style="stroke: #A80036; stroke-width: 1.0;" width="10" x="408.5" y="69.4297"/><rect fill="#FFFFFF" filter="url(#fprtp1fw2bizh)" height="259.9297" style="stroke: #A80036; stroke-width: 1.0;" width="10" x="641.5" y="310.3594"/><rect fill="#FFFFFF" filter="url(#fprtp1fw2bizh)" height="467.5313" style="stroke: #A80036; stroke-width: 1.0;" width="10" x="927.5" y="657.3594"/><rect fill="#FFFFFF" filter="url(#fprtp1fw2bizh)" height="579.0625" style="stroke: #A80036; stroke-width: 1.0;" width="10" x="1233.5" y="1211.9609"/><rect fill="#FFFFFF" filter="url(#fprtp1fw2bizh)" height="113.3984" style="stroke: #A80036; stroke-width: 1.0;" width="10" x="1590.5" y="1878.0938"/><polygon fill="#A80036" points="396.5,65.4297,406.5,69.4297,396.5,73.4297,400.5,69.4297" style="stroke: #A80036; stroke-width: 1.0;"/><line style="stroke: #A80036; stroke-width: 1.0;" x1="81.5" x2="402.5" y1="69.4297" y2="69.4297"/><text fill="#000000" font-family="sans-serif" font-size="13" lengthAdjust="spacingAndGlyphs" textLength="93" x="198.5" y="64.3638">parse(filepath)</text><line style="stroke: #A80036; stroke-width: 1.0;" x1="418.5" x2="460.5" y1="98.5625" y2="98.5625"/><line style="stroke: #A80036; stroke-width: 1.0;" x1="460.5" x2="460.5" y1="98.5625" y2="111.5625"/><line style="stroke: #A80036; stroke-width: 1.0;" x1="419.5" x2="460.5" y1="111.5625" y2="111.5625"/><polygon fill="#A80036" points="429.5,107.5625,419.5,111.5625,429.5,115.5625,425.5,111.5625" style="stroke: #A80036; stroke-width: 1.0;"/><text fill="#000000" font-family="sans-serif" font-size="13" lengthAdjust="spacingAndGlyphs" textLength="158" x="425.5" y="93.4966">_resolve_parser(filepath)</text><line style="stroke: #A80036; stroke-width: 1.0;" x1="418.5" x2="460.5" y1="140.6953" y2="140.6953"/><line style="stroke: #A80036; stroke-width: 1.0;" x1="460.5" x2="460.5" y1="140.6953" y2="153.6953"/><line style="stroke: #A80036; stroke-width: 1.0;" x1="419.5" x2="460.5" y1="153.6953" y2="153.6953"/><polygon fill="#A80036" points="429.5,149.6953,419.5,153.6953,429.5,157.6953,425.5,153.6953" style="stroke: #A80036; stroke-width: 1.0;"/><text fill="#000000" font-family="sans-serif" font-size="13" lengthAdjust="spacingAndGlyphs" textLength="209" x="425.5" y="135.6294">ext = Path(filepath).suffix.lower()</text><path d="M13,168.6953 L83,168.6953 L83,175.6953 L73,185.6953 L13,185.6953 L13,168.6953 " fill="#EEEEEE" style="stroke: #000000; stroke-width: 1.0;"/><rect fill="none" height="46.2656" style="stroke: #000000; stroke-width: 2.0;" width="450.5" x="13" y="168.6953"/><text fill="#000000" font-family="sans-serif" font-size="13" font-weight="bold" lengthAdjust="spacingAndGlyphs" textLength="25" x="28" y="181.7622">opt</text><text fill="#000000" font-family="sans-serif" font-size="11" font-weight="bold" lengthAdjust="spacingAndGlyphs" textLength="290" x="98" y="180.9058">[ext not in _PARSERS (.txt / .pdf / .docx / .md)]</text><polygon fill="#A80036" points="92.5,202.9609,82.5,206.9609,92.5,210.9609,88.5,206.9609" style="stroke: #A80036; stroke-width: 1.0;"/><line style="stroke: #A80036; stroke-width: 1.0; stroke-dasharray: 2.0,2.0;" x1="86.5" x2="407.5" y1="206.9609" y2="206.9609"/><text fill="#000000" font-family="sans-serif" font-size="13" lengthAdjust="spacingAndGlyphs" textLength="303" x="93.5" y="201.895">raise ValueError("Unsupported file type: {ext}")</text><rect fill="#EEEEEE" filter="url(#fprtp1fw2bizh)" height="3" style="stroke: #EEEEEE; stroke-width: 1.0;" width="1863.5" x="3" y="242.5273"/><line style="stroke: #000000; stroke-width: 1.0;" x1="3" x2="1866.5" y1="242.5273" y2="242.5273"/><line style="stroke: #000000; stroke-width: 1.0;" x1="3" x2="1866.5" y1="245.5273" y2="245.5273"/><rect fill="#EEEEEE" filter="url(#fprtp1fw2bizh)" height="23.1328" style="stroke: #000000; stroke-width: 2.0;" width="102" x="883.75" y="231.9609"/><text fill="#000000" font-family="sans-serif" font-size="13" font-weight="bold" lengthAdjust="spacingAndGlyphs" textLength="83" x="889.75" y="248.0278">PDF Parser</text><path d="M363.5,272.0938 L427.5,272.0938 L427.5,279.0938 L417.5,289.0938 L363.5,289.0938 L363.5,272.0938 " fill="#EEEEEE" style="stroke: #000000; stroke-width: 1.0;"/><rect fill="none" height="1727.3984" style="stroke: #000000; stroke-width: 2.0;" width="1493" x="363.5" y="272.0938"/><text fill="#000000" font-family="sans-serif" font-size="13" font-weight="bold" lengthAdjust="spacingAndGlyphs" textLength="19" x="378.5" y="285.1606">alt</text><text fill="#000000" font-family="sans-serif" font-size="11" font-weight="bold" lengthAdjust="spacingAndGlyphs" textLength="93" x="442.5" y="284.3042">[ext == ".pdf"]</text><polygon fill="#A80036" points="629.5,306.3594,639.5,310.3594,629.5,314.3594,633.5,310.3594" style="stroke: #A80036; stroke-width: 1.0;"/><line style="stroke: #A80036; stroke-width: 1.0;" x1="418.5" x2="635.5" y1="310.3594" y2="310.3594"/><text fill="#000000" font-family="sans-serif" font-size="13" lengthAdjust="spacingAndGlyphs" textLength="120" x="470" y="305.2935">parse_pdf(filepath)</text><line style="stroke: #A80036; stroke-width: 1.0;" x1="651.5" x2="693.5" y1="339.4922" y2="339.4922"/><line style="stroke: #A80036; stroke-width: 1.0;" x1="693.5" x2="693.5" y1="339.4922" y2="352.4922"/><line style="stroke: #A80036; stroke-width: 1.0;" x1="652.5" x2="693.5" y1="352.4922" y2="352.4922"/><polygon fill="#A80036" points="662.5,348.4922,652.5,352.4922,662.5,356.4922,658.5,352.4922" style="stroke: #A80036; stroke-width: 1.0;"/><text fill="#000000" font-family="sans-serif" font-size="13" lengthAdjust="spacingAndGlyphs" textLength="154" x="658.5" y="334.4263">doc = fitz.open(filepath)</text><path d="M571,367.4922 L648,367.4922 L648,374.4922 L638,384.4922 L571,384.4922 L571,367.4922 " fill="#EEEEEE" style="stroke: #000000; stroke-width: 1.0;"/><rect fill="none" height="132.5313" style="stroke: #000000; stroke-width: 2.0;" width="419" x="571" y="367.4922"/><text fill="#000000" font-family="sans-serif" font-size="13" font-weight="bold" lengthAdjust="spacingAndGlyphs" textLength="32" x="586" y="380.5591">loop</text><text fill="#000000" font-family="sans-serif" font-size="11" font-weight="bold" lengthAdjust="spacingAndGlyphs" textLength="322" x="663" y="379.7026">[for page_num, page in enumerate(doc, start = 1)]</text><line style="stroke: #A80036; stroke-width: 1.0;" x1="651.5" x2="693.5" y1="405.7578" y2="405.7578"/><line style="stroke: #A80036; stroke-width: 1.0;" x1="693.5" x2="693.5" y1="405.7578" y2="418.7578"/><line style="stroke: #A80036; stroke-width: 1.0;" x1="652.5" x2="693.5" y1="418.7578" y2="418.7578"/><polygon fill="#A80036" points="662.5,414.7578,652.5,418.7578,662.5,422.7578,658.5,418.7578" style="stroke: #A80036; stroke-width: 1.0;"/><text fill="#000000" font-family="sans-serif" font-size="13" lengthAdjust="spacingAndGlyphs" textLength="143" x="658.5" y="400.6919">text = page.get_text()</text><path d="M581,433.7578 L651,433.7578 L651,440.7578 L641,450.7578 L581,450.7578 L581,433.7578 " fill="#EEEEEE" style="stroke: #000000; stroke-width: 1.0;"/><rect fill="none" height="59.2656" style="stroke: #000000; stroke-width: 2.0;" width="351.5" x="581" y="433.7578"/><text fill="#000000" font-family="sans-serif" font-size="13" font-weight="bold" lengthAdjust="spacingAndGlyphs" textLength="25" x="596" y="446.8247">opt</text><text fill="#000000" font-family="sans-serif" font-size="11" font-weight="bold" lengthAdjust="spacingAndGlyphs" textLength="165" x="666" y="445.9683">[text.strip() is non-empty]</text><line style="stroke: #A80036; stroke-width: 1.0;" x1="651.5" x2="693.5" y1="472.0234" y2="472.0234"/><line style="stroke: #A80036; stroke-width: 1.0;" x1="693.5" x2="693.5" y1="472.0234" y2="485.0234"/><line style="stroke: #A80036; stroke-width: 1.0;" x1="652.5" x2="693.5" y1="485.0234" y2="485.0234"/><polygon fill="#A80036" points="662.5,481.0234,652.5,485.0234,662.5,489.0234,658.5,485.0234" style="stroke: #A80036; stroke-width: 1.0;"/><text fill="#000000" font-family="sans-serif" font-size="13" lengthAdjust="spacingAndGlyphs" textLength="262" x="658.5" y="466.9575">append {"text": text, "page": page_num}</text><line style="stroke: #A80036; stroke-width: 1.0;" x1="651.5" x2="693.5" y1="528.1563" y2="528.1563"/><line style="stroke: #A80036; stroke-width: 1.0;" x1="693.5" x2="693.5" y1="528.1563" y2="541.1563"/><line style="stroke: #A80036; stroke-width: 1.0;" x1="652.5" x2="693.5" y1="541.1563" y2="541.1563"/><polygon fill="#A80036" points="662.5,537.1563,652.5,541.1563,662.5,545.1563,658.5,541.1563" style="stroke: #A80036; stroke-width: 1.0;"/><text fill="#000000" font-family="sans-serif" font-size="13" lengthAdjust="spacingAndGlyphs" textLength="70" x="658.5" y="523.0903">doc.close()</text><polygon fill="#A80036" points="429.5,566.2891,419.5,570.2891,429.5,574.2891,425.5,570.2891" style="stroke: #A80036; stroke-width: 1.0;"/><line style="stroke: #A80036; stroke-width: 1.0; stroke-dasharray: 2.0,2.0;" x1="423.5" x2="645.5" y1="570.2891" y2="570.2891"/><text fill="#000000" font-family="sans-serif" font-size="13" lengthAdjust="spacingAndGlyphs" textLength="98" x="483.5" y="565.2231">pages: list[dict]</text><rect fill="#EEEEEE" filter="url(#fprtp1fw2bizh)" height="3" style="stroke: #EEEEEE; stroke-width: 1.0;" width="1863.5" x="3" y="598.8555"/><line style="stroke: #000000; stroke-width: 1.0;" x1="3" x2="1866.5" y1="598.8555" y2="598.8555"/><line style="stroke: #000000; stroke-width: 1.0;" x1="3" x2="1866.5" y1="601.8555" y2="601.8555"/><rect fill="#EEEEEE" filter="url(#fprtp1fw2bizh)" height="23.1328" style="stroke: #000000; stroke-width: 2.0;" width="114" x="877.75" y="588.2891"/><text fill="#000000" font-family="sans-serif" font-size="13" font-weight="bold" lengthAdjust="spacingAndGlyphs" textLength="95" x="883.75" y="604.356">DOCX Parser</text><line style="stroke: #000000; stroke-width: 1.0; stroke-dasharray: 2.0,2.0;" x1="363.5" x2="1856.5" y1="622.4219" y2="622.4219"/><text fill="#000000" font-family="sans-serif" font-size="11" font-weight="bold" lengthAdjust="spacingAndGlyphs" textLength="102" x="368.5" y="632.6323">[ext == ".docx"]</text><polygon fill="#A80036" points="915.5,653.3594,925.5,657.3594,915.5,661.3594,919.5,657.3594" style="stroke: #A80036; stroke-width: 1.0;"/><line style="stroke: #A80036; stroke-width: 1.0;" x1="418.5" x2="921.5" y1="657.3594" y2="657.3594"/><text fill="#000000" font-family="sans-serif" font-size="13" lengthAdjust="spacingAndGlyphs" textLength="130" x="608" y="652.2935">parse_docx(filepath)</text><line style="stroke: #A80036; stroke-width: 1.0;" x1="937.5" x2="979.5" y1="701.625" y2="701.625"/><line style="stroke: #A80036; stroke-width: 1.0;" x1="979.5" x2="979.5" y1="701.625" y2="714.625"/><line style="stroke: #A80036; stroke-width: 1.0;" x1="938.5" x2="979.5" y1="714.625" y2="714.625"/><polygon fill="#A80036" points="948.5,710.625,938.5,714.625,948.5,718.625,944.5,714.625" style="stroke: #A80036; stroke-width: 1.0;"/><text fill="#000000" font-family="sans-serif" font-size="13" lengthAdjust="spacingAndGlyphs" textLength="200" x="944.5" y="681.4263">doc = docx.Document(filepath)</text><text fill="#000000" font-family="sans-serif" font-size="13" lengthAdjust="spacingAndGlyphs" textLength="231" x="944.5" y="696.5591">current_heading = None, buffer = []</text><path d="M841.5,729.625 L918.5,729.625 L918.5,736.625 L908.5,746.625 L841.5,746.625 L841.5,729.625 " fill="#EEEEEE" style="stroke: #000000; stroke-width: 1.0;"/><rect fill="none" height="293.8672" style="stroke: #000000; stroke-width: 2.0;" width="417" x="841.5" y="729.625"/><text fill="#000000" font-family="sans-serif" font-size="13" font-weight="bold" lengthAdjust="spacingAndGlyphs" textLength="32" x="856.5" y="742.6919">loop</text><text fill="#000000" font-family="sans-serif" font-size="11" font-weight="bold" lengthAdjust="spacingAndGlyphs" textLength="216" x="933.5" y="741.8354">[for each para in doc.paragraphs]</text><path d="M851.5,753.7578 L915.5,753.7578 L915.5,760.7578 L905.5,770.7578 L851.5,770.7578 L851.5,753.7578 " fill="#EEEEEE" style="stroke: #000000; stroke-width: 1.0;"/><rect fill="none" height="262.7344" style="stroke: #000000; stroke-width: 2.0;" width="397" x="851.5" y="753.7578"/><text fill="#000000" font-family="sans-serif" font-size="13" font-weight="bold" lengthAdjust="spacingAndGlyphs" textLength="19" x="866.5" y="766.8247">alt</text><text fill="#000000" font-family="sans-serif" font-size="11" font-weight="bold" lengthAdjust="spacingAndGlyphs" textLength="255" x="930.5" y="765.9683">[para.style.name starts with "Heading"]</text><path d="M861.5,777.8906 L931.5,777.8906 L931.5,784.8906 L921.5,794.8906 L861.5,794.8906 L861.5,777.8906 " fill="#EEEEEE" style="stroke: #000000; stroke-width: 1.0;"/><rect fill="none" height="101.3984" style="stroke: #000000; stroke-width: 2.0;" width="377" x="861.5" y="777.8906"/><text fill="#000000" font-family="sans-serif" font-size="13" font-weight="bold" lengthAdjust="spacingAndGlyphs" textLength="25" x="876.5" y="790.9575">opt</text><text fill="#000000" font-family="sans-serif" font-size="11" font-weight="bold" lengthAdjust="spacingAndGlyphs" textLength="136" x="946.5" y="790.1011">[buffer is non-empty]</text><line style="stroke: #A80036; stroke-width: 1.0;" x1="937.5" x2="979.5" y1="816.1563" y2="816.1563"/><line style="stroke: #A80036; stroke-width: 1.0;" x1="979.5" x2="979.5" y1="816.1563" y2="829.1563"/><line style="stroke: #A80036; stroke-width: 1.0;" x1="938.5" x2="979.5" y1="829.1563" y2="829.1563"/><polygon fill="#A80036" points="948.5,825.1563,938.5,829.1563,948.5,833.1563,944.5,829.1563" style="stroke: #A80036; stroke-width: 1.0;"/><text fill="#000000" font-family="sans-serif" font-size="13" lengthAdjust="spacingAndGlyphs" textLength="282" x="944.5" y="811.0903">flush buffer to sections with current_heading</text><line style="stroke: #A80036; stroke-width: 1.0;" x1="937.5" x2="979.5" y1="858.2891" y2="858.2891"/><line style="stroke: #A80036; stroke-width: 1.0;" x1="979.5" x2="979.5" y1="858.2891" y2="871.2891"/><line style="stroke: #A80036; stroke-width: 1.0;" x1="938.5" x2="979.5" y1="871.2891" y2="871.2891"/><polygon fill="#A80036" points="948.5,867.2891,938.5,871.2891,948.5,875.2891,944.5,871.2891" style="stroke: #A80036; stroke-width: 1.0;"/><text fill="#000000" font-family="sans-serif" font-size="13" lengthAdjust="spacingAndGlyphs" textLength="66" x="944.5" y="853.2231">buffer = []</text><line style="stroke: #A80036; stroke-width: 1.0;" x1="937.5" x2="979.5" y1="907.4219" y2="907.4219"/><line style="stroke: #A80036; stroke-width: 1.0;" x1="979.5" x2="979.5" y1="907.4219" y2="920.4219"/><line style="stroke: #A80036; stroke-width: 1.0;" x1="938.5" x2="979.5" y1="920.4219" y2="920.4219"/><polygon fill="#A80036" points="948.5,916.4219,938.5,920.4219,948.5,924.4219,944.5,920.4219" style="stroke: #A80036; stroke-width: 1.0;"/><text fill="#000000" font-family="sans-serif" font-size="13" lengthAdjust="spacingAndGlyphs" textLength="278" x="944.5" y="902.356">current_heading = para.text.strip() or None</text><line style="stroke: #000000; stroke-width: 1.0; stroke-dasharray: 2.0,2.0;" x1="851.5" x2="1248.5" y1="929.4219" y2="929.4219"/><text fill="#000000" font-family="sans-serif" font-size="11" font-weight="bold" lengthAdjust="spacingAndGlyphs" textLength="126" x="856.5" y="939.6323">[regular paragraph]</text><path d="M861.5,950.2266 L931.5,950.2266 L931.5,957.2266 L921.5,967.2266 L861.5,967.2266 L861.5,950.2266 " fill="#EEEEEE" style="stroke: #000000; stroke-width: 1.0;"/><rect fill="none" height="59.2656" style="stroke: #000000; stroke-width: 2.0;" width="294" x="861.5" y="950.2266"/><text fill="#000000" font-family="sans-serif" font-size="13" font-weight="bold" lengthAdjust="spacingAndGlyphs" textLength="25" x="876.5" y="963.2935">opt</text><text fill="#000000" font-family="sans-serif" font-size="11" font-weight="bold" lengthAdjust="spacingAndGlyphs" textLength="198" x="946.5" y="962.437">[para.text.strip() is non-empty]</text><line style="stroke: #A80036; stroke-width: 1.0;" x1="937.5" x2="979.5" y1="988.4922" y2="988.4922"/><line style="stroke: #A80036; stroke-width: 1.0;" x1="979.5" x2="979.5" y1="988.4922" y2="1001.4922"/><line style="stroke: #A80036; stroke-width: 1.0;" x1="938.5" x2="979.5" y1="1001.4922" y2="1001.4922"/><polygon fill="#A80036" points="948.5,997.4922,938.5,1001.4922,948.5,1005.4922,944.5,1001.4922" style="stroke: #A80036; stroke-width: 1.0;"/><text fill="#000000" font-family="sans-serif" font-size="13" lengthAdjust="spacingAndGlyphs" textLength="199" x="944.5" y="983.4263">buffer.append(para.text.strip())</text><path d="M861.5,1037.4922 L931.5,1037.4922 L931.5,1044.4922 L921.5,1054.4922 L861.5,1054.4922 L861.5,1037.4922 " fill="#EEEEEE" style="stroke: #000000; stroke-width: 1.0;"/><rect fill="none" height="59.2656" style="stroke: #000000; stroke-width: 2.0;" width="377" x="861.5" y="1037.4922"/><text fill="#000000" font-family="sans-serif" font-size="13" font-weight="bold" lengthAdjust="spacingAndGlyphs" textLength="25" x="876.5" y="1050.5591">opt</text><text fill="#000000" font-family="sans-serif" font-size="11" font-weight="bold" lengthAdjust="spacingAndGlyphs" textLength="204" x="946.5" y="1049.7026">[remaining buffer is non-empty]</text><line style="stroke: #A80036; stroke-width: 1.0;" x1="937.5" x2="979.5" y1="1075.7578" y2="1075.7578"/><line style="stroke: #A80036; stroke-width: 1.0;" x1="979.5" x2="979.5" y1="1075.7578" y2="1088.7578"/><line style="stroke: #A80036; stroke-width: 1.0;" x1="938.5" x2="979.5" y1="1088.7578" y2="1088.7578"/><polygon fill="#A80036" points="948.5,1084.7578,938.5,1088.7578,948.5,1092.7578,944.5,1088.7578" style="stroke: #A80036; stroke-width: 1.0;"/><text fill="#000000" font-family="sans-serif" font-size="13" lengthAdjust="spacingAndGlyphs" textLength="282" x="944.5" y="1070.6919">flush buffer to sections with current_heading</text><polygon fill="#A80036" points="429.5,1120.8906,419.5,1124.8906,429.5,1128.8906,425.5,1124.8906" style="stroke: #A80036; stroke-width: 1.0;"/><line style="stroke: #A80036; stroke-width: 1.0; stroke-dasharray: 2.0,2.0;" x1="423.5" x2="931.5" y1="1124.8906" y2="1124.8906"/><text fill="#000000" font-family="sans-serif" font-size="13" lengthAdjust="spacingAndGlyphs" textLength="112" x="619.5" y="1119.8247">sections: list[dict]</text><rect fill="#EEEEEE" filter="url(#fprtp1fw2bizh)" height="3" style="stroke: #EEEEEE; stroke-width: 1.0;" width="1863.5" x="3" y="1153.457"/><line style="stroke: #000000; stroke-width: 1.0;" x1="3" x2="1866.5" y1="1153.457" y2="1153.457"/><line style="stroke: #000000; stroke-width: 1.0;" x1="3" x2="1866.5" y1="1156.457" y2="1156.457"/><rect fill="#EEEEEE" filter="url(#fprtp1fw2bizh)" height="23.1328" style="stroke: #000000; stroke-width: 2.0;" width="149" x="860.25" y="1142.8906"/><text fill="#000000" font-family="sans-serif" font-size="13" font-weight="bold" lengthAdjust="spacingAndGlyphs" textLength="130" x="866.25" y="1158.9575">Markdown Parser</text><line style="stroke: #000000; stroke-width: 1.0; stroke-dasharray: 2.0,2.0;" x1="363.5" x2="1856.5" y1="1177.0234" y2="1177.0234"/><text fill="#000000" font-family="sans-serif" font-size="11" font-weight="bold" lengthAdjust="spacingAndGlyphs" textLength="91" x="368.5" y="1187.2339">[ext == ".md"]</text><polygon fill="#A80036" points="1221.5,1207.9609,1231.5,1211.9609,1221.5,1215.9609,1225.5,1211.9609" style="stroke: #A80036; stroke-width: 1.0;"/><line style="stroke: #A80036; stroke-width: 1.0;" x1="418.5" x2="1227.5" y1="1211.9609" y2="1211.9609"/><text fill="#000000" font-family="sans-serif" font-size="13" lengthAdjust="spacingAndGlyphs" textLength="166" x="743" y="1206.895">parse_markdown(filepath)</text><line style="stroke: #A80036; stroke-width: 1.0;" x1="1243.5" x2="1285.5" y1="1241.0938" y2="1241.0938"/><line style="stroke: #A80036; stroke-width: 1.0;" x1="1285.5" x2="1285.5" y1="1241.0938" y2="1254.0938"/><line style="stroke: #A80036; stroke-width: 1.0;" x1="1244.5" x2="1285.5" y1="1254.0938" y2="1254.0938"/><polygon fill="#A80036" points="1254.5,1250.0938,1244.5,1254.0938,1254.5,1258.0938,1250.5,1254.0938" style="stroke: #A80036; stroke-width: 1.0;"/><text fill="#000000" font-family="sans-serif" font-size="13" lengthAdjust="spacingAndGlyphs" textLength="333" x="1250.5" y="1236.0278">open(filepath, "r", encoding = "utf-8"), raw = f.read()</text><line style="stroke: #A80036; stroke-width: 1.0;" x1="1243.5" x2="1285.5" y1="1283.2266" y2="1283.2266"/><line style="stroke: #A80036; stroke-width: 1.0;" x1="1285.5" x2="1285.5" y1="1283.2266" y2="1296.2266"/><line style="stroke: #A80036; stroke-width: 1.0;" x1="1244.5" x2="1285.5" y1="1296.2266" y2="1296.2266"/><polygon fill="#A80036" points="1254.5,1292.2266,1244.5,1296.2266,1254.5,1300.2266,1250.5,1296.2266" style="stroke: #A80036; stroke-width: 1.0;"/><text fill="#000000" font-family="sans-serif" font-size="13" lengthAdjust="spacingAndGlyphs" textLength="321" x="1250.5" y="1278.1606">sections = [], current_heading = None, buffer = []</text><path d="M1128,1311.2266 L1205,1311.2266 L1205,1318.2266 L1195,1328.2266 L1128,1328.2266 L1128,1311.2266 " fill="#EEEEEE" style="stroke: #000000; stroke-width: 1.0;"/><rect fill="none" height="378.3984" style="stroke: #000000; stroke-width: 2.0;" width="581.5" x="1128" y="1311.2266"/><text fill="#000000" font-family="sans-serif" font-size="13" font-weight="bold" lengthAdjust="spacingAndGlyphs" textLength="32" x="1143" y="1324.2935">loop</text><text fill="#000000" font-family="sans-serif" font-size="11" font-weight="bold" lengthAdjust="spacingAndGlyphs" textLength="208" x="1220" y="1323.437">[for each line in raw.splitlines()]</text><path d="M1138,1335.3594 L1202,1335.3594 L1202,1342.3594 L1192,1352.3594 L1138,1352.3594 L1138,1335.3594 " fill="#EEEEEE" style="stroke: #000000; stroke-width: 1.0;"/><rect fill="none" height="347.2656" style="stroke: #000000; stroke-width: 2.0;" width="561.5" x="1138" y="1335.3594"/><text fill="#000000" font-family="sans-serif" font-size="13" font-weight="bold" lengthAdjust="spacingAndGlyphs" textLength="19" x="1153" y="1348.4263">alt</text><text fill="#000000" font-family="sans-serif" font-size="11" font-weight="bold" lengthAdjust="spacingAndGlyphs" textLength="207" x="1217" y="1347.5698">[line matches r"^#{1,6}\s+(.*)"]</text><path d="M1148,1359.4922 L1218,1359.4922 L1218,1366.4922 L1208,1376.4922 L1148,1376.4922 L1148,1359.4922 " fill="#EEEEEE" style="stroke: #000000; stroke-width: 1.0;"/><rect fill="none" height="101.3984" style="stroke: #000000; stroke-width: 2.0;" width="396.5" x="1148" y="1359.4922"/><text fill="#000000" font-family="sans-serif" font-size="13" font-weight="bold" lengthAdjust="spacingAndGlyphs" textLength="25" x="1163" y="1372.5591">opt</text><text fill="#000000" font-family="sans-serif" font-size="11" font-weight="bold" lengthAdjust="spacingAndGlyphs" textLength="136" x="1233" y="1371.7026">[buffer is non-empty]</text><line style="stroke: #A80036; stroke-width: 1.0;" x1="1243.5" x2="1285.5" y1="1397.7578" y2="1397.7578"/><line style="stroke: #A80036; stroke-width: 1.0;" x1="1285.5" x2="1285.5" y1="1397.7578" y2="1410.7578"/><line style="stroke: #A80036; stroke-width: 1.0;" x1="1244.5" x2="1285.5" y1="1410.7578" y2="1410.7578"/><polygon fill="#A80036" points="1254.5,1406.7578,1244.5,1410.7578,1254.5,1414.7578,1250.5,1410.7578" style="stroke: #A80036; stroke-width: 1.0;"/><text fill="#000000" font-family="sans-serif" font-size="13" lengthAdjust="spacingAndGlyphs" textLength="282" x="1250.5" y="1392.6919">flush buffer to sections with current_heading</text><line style="stroke: #A80036; stroke-width: 1.0;" x1="1243.5" x2="1285.5" y1="1439.8906" y2="1439.8906"/><line style="stroke: #A80036; stroke-width: 1.0;" x1="1285.5" x2="1285.5" y1="1439.8906" y2="1452.8906"/><line style="stroke: #A80036; stroke-width: 1.0;" x1="1244.5" x2="1285.5" y1="1452.8906" y2="1452.8906"/><polygon fill="#A80036" points="1254.5,1448.8906,1244.5,1452.8906,1254.5,1456.8906,1250.5,1452.8906" style="stroke: #A80036; stroke-width: 1.0;"/><text fill="#000000" font-family="sans-serif" font-size="13" lengthAdjust="spacingAndGlyphs" textLength="66" x="1250.5" y="1434.8247">buffer = []</text><line style="stroke: #A80036; stroke-width: 1.0;" x1="1243.5" x2="1285.5" y1="1489.0234" y2="1489.0234"/><line style="stroke: #A80036; stroke-width: 1.0;" x1="1285.5" x2="1285.5" y1="1489.0234" y2="1502.0234"/><line style="stroke: #A80036; stroke-width: 1.0;" x1="1244.5" x2="1285.5" y1="1502.0234" y2="1502.0234"/><polygon fill="#A80036" points="1254.5,1498.0234,1244.5,1502.0234,1254.5,1506.0234,1250.5,1502.0234" style="stroke: #A80036; stroke-width: 1.0;"/><text fill="#000000" font-family="sans-serif" font-size="13" lengthAdjust="spacingAndGlyphs" textLength="320" x="1250.5" y="1483.9575">current_heading = match.group(1).strip() or None</text><line style="stroke: #000000; stroke-width: 1.0; stroke-dasharray: 2.0,2.0;" x1="1138" x2="1699.5" y1="1511.0234" y2="1511.0234"/><text fill="#000000" font-family="sans-serif" font-size="11" font-weight="bold" lengthAdjust="spacingAndGlyphs" textLength="84" x="1143" y="1521.2339">[regular line]</text><line style="stroke: #A80036; stroke-width: 1.0;" x1="1243.5" x2="1285.5" y1="1567.1602" y2="1567.1602"/><line style="stroke: #A80036; stroke-width: 1.0;" x1="1285.5" x2="1285.5" y1="1567.1602" y2="1580.1602"/><line style="stroke: #A80036; stroke-width: 1.0;" x1="1244.5" x2="1285.5" y1="1580.1602" y2="1580.1602"/><polygon fill="#A80036" points="1254.5,1576.1602,1244.5,1580.1602,1254.5,1584.1602,1250.5,1580.1602" style="stroke: #A80036; stroke-width: 1.0;"/><text fill="#000000" font-family="sans-serif" font-size="13" lengthAdjust="spacingAndGlyphs" textLength="209" x="1250.5" y="1562.0942">cleaned = _strip_markdown(line)</text><path d="M1471,1529.8281 L1471,1599.8281 L1675,1599.8281 L1675,1539.8281 L1665,1529.8281 L1471,1529.8281 " fill="#FBFB77" filter="url(#fprtp1fw2bizh)" style="stroke: #A80036; stroke-width: 1.0;"/><path d="M1665,1529.8281 L1665,1539.8281 L1675,1539.8281 L1665,1529.8281 " fill="#FBFB77" style="stroke: #A80036; stroke-width: 1.0;"/><text fill="#000000" font-family="sans-serif" font-size="13" lengthAdjust="spacingAndGlyphs" textLength="183" x="1477" y="1546.895">strips: code fences, HR lines,</text><text fill="#000000" font-family="sans-serif" font-size="13" lengthAdjust="spacingAndGlyphs" textLength="164" x="1477" y="1562.0278">blockquotes, list markers,</text><text fill="#000000" font-family="sans-serif" font-size="13" lengthAdjust="spacingAndGlyphs" textLength="155" x="1477" y="1577.1606">images, links, bold/italic,</text><text fill="#000000" font-family="sans-serif" font-size="13" lengthAdjust="spacingAndGlyphs" textLength="143" x="1477" y="1592.2935">inline code, HTML tags</text><path d="M1148,1616.3594 L1218,1616.3594 L1218,1623.3594 L1208,1633.3594 L1148,1633.3594 L1148,1616.3594 " fill="#EEEEEE" style="stroke: #000000; stroke-width: 1.0;"/><rect fill="none" height="59.2656" style="stroke: #000000; stroke-width: 2.0;" width="263.5" x="1148" y="1616.3594"/><text fill="#000000" font-family="sans-serif" font-size="13" font-weight="bold" lengthAdjust="spacingAndGlyphs" textLength="25" x="1163" y="1629.4263">opt</text><text fill="#000000" font-family="sans-serif" font-size="11" font-weight="bold" lengthAdjust="spacingAndGlyphs" textLength="148" x="1233" y="1628.5698">[cleaned is non-empty]</text><line style="stroke: #A80036; stroke-width: 1.0;" x1="1243.5" x2="1285.5" y1="1654.625" y2="1654.625"/><line style="stroke: #A80036; stroke-width: 1.0;" x1="1285.5" x2="1285.5" y1="1654.625" y2="1667.625"/><line style="stroke: #A80036; stroke-width: 1.0;" x1="1244.5" x2="1285.5" y1="1667.625" y2="1667.625"/><polygon fill="#A80036" points="1254.5,1663.625,1244.5,1667.625,1254.5,1671.625,1250.5,1667.625" style="stroke: #A80036; stroke-width: 1.0;"/><text fill="#000000" font-family="sans-serif" font-size="13" lengthAdjust="spacingAndGlyphs" textLength="149" x="1250.5" y="1649.5591">buffer.append(cleaned)</text><path d="M1148,1703.625 L1218,1703.625 L1218,1710.625 L1208,1720.625 L1148,1720.625 L1148,1703.625 " fill="#EEEEEE" style="stroke: #000000; stroke-width: 1.0;"/><rect fill="none" height="59.2656" style="stroke: #000000; stroke-width: 2.0;" width="396.5" x="1148" y="1703.625"/><text fill="#000000" font-family="sans-serif" font-size="13" font-weight="bold" lengthAdjust="spacingAndGlyphs" textLength="25" x="1163" y="1716.6919">opt</text><text fill="#000000" font-family="sans-serif" font-size="11" font-weight="bold" lengthAdjust="spacingAndGlyphs" textLength="204" x="1233" y="1715.8354">[remaining buffer is non-empty]</text><line style="stroke: #A80036; stroke-width: 1.0;" x1="1243.5" x2="1285.5" y1="1741.8906" y2="1741.8906"/><line style="stroke: #A80036; stroke-width: 1.0;" x1="1285.5" x2="1285.5" y1="1741.8906" y2="1754.8906"/><line style="stroke: #A80036; stroke-width: 1.0;" x1="1244.5" x2="1285.5" y1="1754.8906" y2="1754.8906"/><polygon fill="#A80036" points="1254.5,1750.8906,1244.5,1754.8906,1254.5,1758.8906,1250.5,1754.8906" style="stroke: #A80036; stroke-width: 1.0;"/><text fill="#000000" font-family="sans-serif" font-size="13" lengthAdjust="spacingAndGlyphs" textLength="282" x="1250.5" y="1736.8247">flush buffer to sections with current_heading</text><polygon fill="#A80036" points="429.5,1787.0234,419.5,1791.0234,429.5,1795.0234,425.5,1791.0234" style="stroke: #A80036; stroke-width: 1.0;"/><line style="stroke: #A80036; stroke-width: 1.0; stroke-dasharray: 2.0,2.0;" x1="423.5" x2="1237.5" y1="1791.0234" y2="1791.0234"/><text fill="#000000" font-family="sans-serif" font-size="13" lengthAdjust="spacingAndGlyphs" textLength="112" x="772.5" y="1785.9575">sections: list[dict]</text><rect fill="#EEEEEE" filter="url(#fprtp1fw2bizh)" height="3" style="stroke: #EEEEEE; stroke-width: 1.0;" width="1863.5" x="3" y="1819.5898"/><line style="stroke: #000000; stroke-width: 1.0;" x1="3" x2="1866.5" y1="1819.5898" y2="1819.5898"/><line style="stroke: #000000; stroke-width: 1.0;" x1="3" x2="1866.5" y1="1822.5898" y2="1822.5898"/><rect fill="#EEEEEE" filter="url(#fprtp1fw2bizh)" height="23.1328" style="stroke: #000000; stroke-width: 2.0;" width="98" x="885.75" y="1809.0234"/><text fill="#000000" font-family="sans-serif" font-size="13" font-weight="bold" lengthAdjust="spacingAndGlyphs" textLength="79" x="891.75" y="1825.0903">TXT Parser</text><line style="stroke: #000000; stroke-width: 1.0; stroke-dasharray: 2.0,2.0;" x1="363.5" x2="1856.5" y1="1843.1563" y2="1843.1563"/><text fill="#000000" font-family="sans-serif" font-size="11" font-weight="bold" lengthAdjust="spacingAndGlyphs" textLength="89" x="368.5" y="1853.3667">[ext == ".txt"]</text><polygon fill="#A80036" points="1578.5,1874.0938,1588.5,1878.0938,1578.5,1882.0938,1582.5,1878.0938" style="stroke: #A80036; stroke-width: 1.0;"/><line style="stroke: #A80036; stroke-width: 1.0;" x1="418.5" x2="1584.5" y1="1878.0938" y2="1878.0938"/><text fill="#000000" font-family="sans-serif" font-size="13" lengthAdjust="spacingAndGlyphs" textLength="124" x="942.5" y="1873.0278">_parse_txt(filepath)</text><line style="stroke: #A80036; stroke-width: 1.0;" x1="1600.5" x2="1642.5" y1="1907.2266" y2="1907.2266"/><line style="stroke: #A80036; stroke-width: 1.0;" x1="1642.5" x2="1642.5" y1="1907.2266" y2="1920.2266"/><line style="stroke: #A80036; stroke-width: 1.0;" x1="1601.5" x2="1642.5" y1="1920.2266" y2="1920.2266"/><polygon fill="#A80036" points="1611.5,1916.2266,1601.5,1920.2266,1611.5,1924.2266,1607.5,1920.2266" style="stroke: #A80036; stroke-width: 1.0;"/><text fill="#000000" font-family="sans-serif" font-size="13" lengthAdjust="spacingAndGlyphs" textLength="237" x="1607.5" y="1902.1606">open(filepath, "r", encoding = "utf-8")</text><line style="stroke: #A80036; stroke-width: 1.0;" x1="1600.5" x2="1642.5" y1="1949.3594" y2="1949.3594"/><line style="stroke: #A80036; stroke-width: 1.0;" x1="1642.5" x2="1642.5" y1="1949.3594" y2="1962.3594"/><line style="stroke: #A80036; stroke-width: 1.0;" x1="1601.5" x2="1642.5" y1="1962.3594" y2="1962.3594"/><polygon fill="#A80036" points="1611.5,1958.3594,1601.5,1962.3594,1611.5,1966.3594,1607.5,1962.3594" style="stroke: #A80036; stroke-width: 1.0;"/><text fill="#000000" font-family="sans-serif" font-size="13" lengthAdjust="spacingAndGlyphs" textLength="91" x="1607.5" y="1944.2935">text = f.read()</text><polygon fill="#A80036" points="429.5,1987.4922,419.5,1991.4922,429.5,1995.4922,425.5,1991.4922" style="stroke: #A80036; stroke-width: 1.0;"/><line style="stroke: #A80036; stroke-width: 1.0; stroke-dasharray: 2.0,2.0;" x1="423.5" x2="1594.5" y1="1991.4922" y2="1991.4922"/><text fill="#000000" font-family="sans-serif" font-size="13" lengthAdjust="spacingAndGlyphs" textLength="119" x="947.5" y="1986.4263">[{"text": full_text}]</text><rect fill="#EEEEEE" filter="url(#fprtp1fw2bizh)" height="3" style="stroke: #EEEEEE; stroke-width: 1.0;" width="1863.5" x="3" y="2027.0586"/><line style="stroke: #000000; stroke-width: 1.0;" x1="3" x2="1866.5" y1="2027.0586" y2="2027.0586"/><line style="stroke: #000000; stroke-width: 1.0;" x1="3" x2="1866.5" y1="2030.0586" y2="2030.0586"/><rect fill="#EEEEEE" filter="url(#fprtp1fw2bizh)" height="23.1328" style="stroke: #000000; stroke-width: 2.0;" width="71" x="899.25" y="2016.4922"/><text fill="#000000" font-family="sans-serif" font-size="13" font-weight="bold" lengthAdjust="spacingAndGlyphs" textLength="52" x="905.25" y="2032.5591">Flatten</text><line style="stroke: #A80036; stroke-width: 1.0;" x1="418.5" x2="460.5" y1="2116.1563" y2="2116.1563"/><line style="stroke: #A80036; stroke-width: 1.0;" x1="460.5" x2="460.5" y1="2116.1563" y2="2129.1563"/><line style="stroke: #A80036; stroke-width: 1.0;" x1="419.5" x2="460.5" y1="2129.1563" y2="2129.1563"/><polygon fill="#A80036" points="429.5,2125.1563,419.5,2129.1563,429.5,2133.1563,425.5,2129.1563" style="stroke: #A80036; stroke-width: 1.0;"/><text fill="#000000" font-family="sans-serif" font-size="13" lengthAdjust="spacingAndGlyphs" textLength="111" x="425.5" y="2065.6919">_flatten(sections)</text><text fill="#000000" font-family="sans-serif" font-size="13" lengthAdjust="spacingAndGlyphs" textLength="5" x="425.5" y="2080.8247">"</text><text fill="#000000" font-family="sans-serif" font-size="13" lengthAdjust="spacingAndGlyphs" textLength="0" x="429.5" y="2095.9575"/><text fill="#000000" font-family="sans-serif" font-size="13" lengthAdjust="spacingAndGlyphs" textLength="197" x="425.5" y="2111.0903">".join(s["text"] for s in sections)</text><polygon fill="#A80036" points="92.5,2154.2891,82.5,2158.2891,92.5,2162.2891,88.5,2158.2891" style="stroke: #A80036; stroke-width: 1.0;"/><line style="stroke: #A80036; stroke-width: 1.0; stroke-dasharray: 2.0,2.0;" x1="86.5" x2="412.5" y1="2158.2891" y2="2158.2891"/><text fill="#000000" font-family="sans-serif" font-size="13" lengthAdjust="spacingAndGlyphs" textLength="84" x="205.5" y="2153.2231">plain text: str</text><!--MD5=[7cca1e46c70840fea82cf2a2b15f9880]
@startuml pipeline-document-ingestion-parsing
skinparam sequenceMessageAlign center
skinparam ParticipantPadding 10

participant "ingest_file()" as ingest
participant "router" as router
participant "pdf_parser" as pdfParser
participant "docx_parser" as docxParser
participant "markdown_parser" as mdParser
participant "_parse_txt" as txtParser

ingest -> router : parse(filepath)
activate router

router -> router : _resolve_parser(filepath)
router -> router : ext = Path(filepath).suffix.lower()

opt ext not in _PARSERS (.txt / .pdf / .docx / .md)
router - -> ingest : raise ValueError("Unsupported file type: {ext}")
end

== PDF Parser ==

alt ext == ".pdf"
router -> pdfParser : parse_pdf(filepath)
activate pdfParser
pdfParser -> pdfParser : doc = fitz.open(filepath)
loop for page_num, page in enumerate(doc, start = 1)
pdfParser -> pdfParser : text = page.get_text()
opt text.strip() is non-empty
pdfParser -> pdfParser : append {"text": text, "page": page_num}
end
end
pdfParser -> pdfParser : doc.close()
pdfParser - -> router : pages: list[dict]
deactivate pdfParser

== DOCX Parser ==

else ext == ".docx"
router -> docxParser : parse_docx(filepath)
activate docxParser
docxParser -> docxParser : doc = docx.Document(filepath)\ncurrent_heading = None, buffer = []
loop for each para in doc.paragraphs
alt para.style.name starts with "Heading"
opt buffer is non-empty
docxParser -> docxParser : flush buffer to sections with current_heading
docxParser -> docxParser : buffer = []
end
docxParser -> docxParser : current_heading = para.text.strip() or None
else regular paragraph
opt para.text.strip() is non-empty
docxParser -> docxParser : buffer.append(para.text.strip())
end
end
end
opt remaining buffer is non-empty
docxParser -> docxParser : flush buffer to sections with current_heading
end
docxParser - -> router : sections: list[dict]
deactivate docxParser

== Markdown Parser ==

else ext == ".md"
router -> mdParser : parse_markdown(filepath)
activate mdParser
mdParser -> mdParser : open(filepath, "r", encoding = "utf-8"), raw = f.read()
mdParser -> mdParser : sections = [], current_heading = None, buffer = []
loop for each line in raw.splitlines()
alt line matches r"^#{1,6}\s+(.*)"
opt buffer is non-empty
mdParser -> mdParser : flush buffer to sections with current_heading
mdParser -> mdParser : buffer = []
end
mdParser -> mdParser : current_heading = match.group(1).strip() or None
else regular line
mdParser -> mdParser : cleaned = _strip_markdown(line)
note right : strips: code fences, HR lines,\nblockquotes, list markers,\nimages, links, bold/italic,\ninline code, HTML tags
opt cleaned is non-empty
mdParser -> mdParser : buffer.append(cleaned)
end
end
end
opt remaining buffer is non-empty
mdParser -> mdParser : flush buffer to sections with current_heading
end
mdParser - -> router : sections: list[dict]
deactivate mdParser

== TXT Parser ==

else ext == ".txt"
router -> txtParser : _parse_txt(filepath)
activate txtParser
txtParser -> txtParser : open(filepath, "r", encoding = "utf-8")
txtParser -> txtParser : text = f.read()
txtParser - -> router : [{"text": full_text}]
deactivate txtParser
end

== Flatten ==

router -> router : _flatten(sections)\n"\n\n".join(s["text"] for s in sections)
router - -> ingest : plain text: str
deactivate router

@enduml

PlantUML version 1.2020.02(Sun Mar 01 10:22:07 UTC 2020)
(GPL source distribution)
Java Runtime: OpenJDK Runtime Environment
JVM: OpenJDK 64-Bit Server VM
Java Version: 17.0.19+10
Operating System: Linux
Default Encoding: UTF-8
Language: en
Country: null
--></g></svg>