<?xml version="1.0" encoding="UTF-8" standalone="no"?><svg xmlns="http://www.w3.org/2000/svg" xmlns:xlink="http://www.w3.org/1999/xlink" contentScriptType="application/ecmascript" contentStyleType="text/css" height="699px" preserveAspectRatio="none" style="width:473px;height:699px;background:#FAFAFA;" version="1.1" viewBox="0 0 473 699" width="473px" zoomAndPan="magnify"><defs><filter height="300%" id="f4iy77g878pv" width="300%" x="-1" y="-1"><feGaussianBlur result="blurOut" stdDeviation="2.0"/><feColorMatrix in="blurOut" result="blurOut2" type="matrix" values="0 0 0 0 0 0 0 0 0 0 0 0 0 0 0 0 0 0 .4 0"/><feOffset dx="4.0" dy="4.0" in="blurOut2" result="blurOut3"/><feBlend in="SourceGraphic" in2="blurOut3" mode="normal"/></filter></defs><g><!--MD5=[ff4c7cbfc86cbafc5088fc7dc3b82e86]
cluster Indexing — embed.py--><polygon fill="#EEF2FF" filter="url(#f4iy77g878pv)" points="22,24,206,24,213,47.4609,248,47.4609,248,474.5,22,474.5,22,24" style="stroke: #000000; stroke-width: 1.5;"/><line style="stroke: #000000; stroke-width: 1.5;" x1="22" x2="213" y1="47.4609" y2="47.4609"/><text fill="#000000" font-family="Arial" font-size="15" font-weight="bold" lengthAdjust="spacingAndGlyphs" textLength="178" x="26" y="39.9233">Indexing — embed.py</text><!--MD5=[b7354f1b6b1a4ce6b3292a1a387e6ba1]
cluster Search — search.py--><polygon fill="#FDF4FF" filter="url(#f4iy77g878pv)" points="272,269,441,269,448,292.4609,451,292.4609,451,687,272,687,272,269" style="stroke: #000000; stroke-width: 1.5;"/><line style="stroke: #000000; stroke-width: 1.5;" x1="272" x2="448" y1="292.4609" y2="292.4609"/><text fill="#000000" font-family="Arial" font-size="15" font-weight="bold" lengthAdjust="spacingAndGlyphs" textLength="163" x="276" y="284.9233">Search — search.py</text><!--MD5=[57a5b41ed6b3ba96fe9b4a740eb3fdc7]
entity docs--><polygon fill="#FEFECE" filter="url(#f4iy77g878pv)" points="76.5,60,122.5,60,129.5,81,193.5,81,193.5,117.9219,76.5,117.9219,76.5,60" style="stroke: #000000; stroke-width: 1.5;"/><line style="stroke: #000000; stroke-width: 1.5;" x1="76.5" x2="129.5" y1="81" y2="81"/><text fill="#000000" font-family="Arial" font-size="15" lengthAdjust="spacingAndGlyphs" textLength="87" x="86.5" y="101.9233">documents/</text><!--MD5=[ff858b2fa29ed35ae3d882895b3a15f0]
entity chunk--><rect fill="#EFF6FF" filter="url(#f4iy77g878pv)" height="54.9219" rx="6" ry="6" style="stroke: #3B82F6; stroke-width: 1.5;" width="193" x="38.5" y="178"/><text fill="#1E3A8A" font-family="Arial" font-size="15" lengthAdjust="spacingAndGlyphs" textLength="82" x="48.5" y="201.9233">chunk_text</text><text fill="#1E3A8A" font-family="Arial" font-size="15" lengthAdjust="spacingAndGlyphs" textLength="173" x="48.5" y="219.3843">300 words · 50 overlap</text><!--MD5=[1a7a766028402bec58ce31452d7a7648]
entity embed--><rect fill="#EFF6FF" filter="url(#f4iy77g878pv)" height="54.9219" rx="6" ry="6" style="stroke: #3B82F6; stroke-width: 1.5;" width="130" x="76" y="293"/><text fill="#1E3A8A" font-family="Arial" font-size="15" lengthAdjust="spacingAndGlyphs" textLength="110" x="86" y="316.9233">embed_chunks</text><text fill="#1E3A8A" font-family="Arial" font-size="15" lengthAdjust="spacingAndGlyphs" textLength="79" x="86" y="334.3843">OpenAI API</text><!--MD5=[0686720d71d32ea68f81164171d509ce]
entity store--><path d="M81.5,422.5 C81.5,412.5 153,412.5 153,412.5 C153,412.5 224.5,412.5 224.5,422.5 L224.5,448.9609 C224.5,458.9609 153,458.9609 153,458.9609 C153,458.9609 81.5,458.9609 81.5,448.9609 L81.5,422.5 " fill="#FEF9C3" filter="url(#f4iy77g878pv)" style="stroke: #EAB308; stroke-width: 1.5;"/><path d="M81.5,422.5 C81.5,432.5 153,432.5 153,432.5 C153,432.5 224.5,432.5 224.5,422.5 " fill="none" style="stroke: #EAB308; stroke-width: 1.5;"/><text fill="#713F12" font-family="Arial" font-size="15" lengthAdjust="spacingAndGlyphs" textLength="123" x="91.5" y="450.4233">embeddings.json</text><ellipse cx="357.1127" cy="320.3467" fill="#F0FDF4" filter="url(#f4iy77g878pv)" rx="34.1127" ry="15.3467" style="stroke: #22C55E; stroke-width: 1.5;"/><text fill="#14532D" font-family="Arial" font-size="15" lengthAdjust="spacingAndGlyphs" textLength="44" x="335.1127" y="325.5772">Query</text><!--MD5=[81edeb3f3a35c1dab7f46e9decfdfebe]
entity embedq--><rect fill="#EFF6FF" filter="url(#f4iy77g878pv)" height="54.9219" rx="6" ry="6" style="stroke: #3B82F6; stroke-width: 1.5;" width="120" x="297" y="408"/><text fill="#1E3A8A" font-family="Arial" font-size="15" lengthAdjust="spacingAndGlyphs" textLength="100" x="307" y="431.9233">embed_query</text><text fill="#1E3A8A" font-family="Arial" font-size="15" lengthAdjust="spacingAndGlyphs" textLength="79" x="307" y="449.3843">OpenAI API</text><!--MD5=[3db17c234f6b9cf849b9b762d4cff762]
entity cosine--><rect fill="#EFF6FF" filter="url(#f4iy77g878pv)" height="54.9219" rx="6" ry="6" style="stroke: #3B82F6; stroke-width: 1.5;" width="138" x="288" y="523"/><text fill="#1E3A8A" font-family="Arial" font-size="15" lengthAdjust="spacingAndGlyphs" textLength="118" x="298" y="546.9233">cosine_similarity</text><text fill="#1E3A8A" font-family="Arial" font-size="15" lengthAdjust="spacingAndGlyphs" textLength="92" x="298" y="564.3843">vs all chunks</text><ellipse cx="357.8741" cy="654.2748" fill="#F0FDF4" filter="url(#f4iy77g878pv)" rx="69.3741" ry="16.2748" style="stroke: #22C55E; stroke-width: 1.5;"/><text fill="#14532D" font-family="Arial" font-size="15" lengthAdjust="spacingAndGlyphs" textLength="100" x="307.8741" y="659.5053">Top-K Results</text><!--MD5=[58d0584bf00a192df52be675af4060c3]
link docs to chunk--><path d="M135,118.1 C135,118.1 135,172.97 135,172.97 " fill="none" id="docs-&gt;chunk" style="stroke: #555555; stroke-width: 2.0;"/><polygon fill="#555555" points="135,177.97,139,168.97,135,172.97,131,168.97,135,177.97" style="stroke: #555555; stroke-width: 2.0;"/><!--MD5=[f719c65e3cd5877eb9f397b030baf6d1]
link chunk to embed--><path d="M141,233.05 C141,233.05 141,287.78 141,287.78 " fill="none" id="chunk-&gt;embed" style="stroke: #555555; stroke-width: 2.0;"/><polygon fill="#555555" points="141,292.78,145,283.78,141,287.78,137,283.78,141,292.78" style="stroke: #555555; stroke-width: 2.0;"/><!--MD5=[3fff7060fd0c4e8b3dcde3a0a24b4cc6]
link embed to store--><path d="M143.75,348.05 C143.75,348.05 143.75,407.44 143.75,407.44 " fill="none" id="embed-&gt;store" style="stroke: #555555; stroke-width: 2.0;"/><polygon fill="#555555" points="143.75,412.44,147.75,403.44,143.75,407.44,139.75,403.44,143.75,412.44" style="stroke: #555555; stroke-width: 2.0;"/><!--MD5=[8efdc581dcc4934b230519e9a1c62620]
link query to embedq--><path d="M357,336.01 C357,336.01 357,402.91 357,402.91 " fill="none" id="query-&gt;embedq" style="stroke: #555555; stroke-width: 2.0;"/><polygon fill="#555555" points="357,407.91,361,398.91,357,402.91,353,398.91,357,407.91" style="stroke: #555555; stroke-width: 2.0;"/><!--MD5=[07d0e59a576869aa907c1b73aa635231]
link embedq to cosine--><path d="M357,463.05 C357,463.05 357,517.78 357,517.78 " fill="none" id="embedq-&gt;cosine" style="stroke: #555555; stroke-width: 2.0;"/><polygon fill="#555555" points="357,522.78,361,513.78,357,517.78,353,513.78,357,522.78" style="stroke: #555555; stroke-width: 2.0;"/><!--MD5=[4684471f6051558c3413dfb8791f28b5]
link cosine to results--><path d="M357.25,578.1 C357.25,578.1 357.25,632.84 357.25,632.84 " fill="none" id="cosine-&gt;results" style="stroke: #555555; stroke-width: 2.0;"/><polygon fill="#555555" points="357.25,637.84,361.25,628.84,357.25,632.84,353.25,628.84,357.25,637.84" style="stroke: #555555; stroke-width: 2.0;"/><!--MD5=[a0c1a4ea2fae617c4a25a3db61a81add]
link store to cosine--><path d="M224.79,436 C258.97,436 292.5,436 292.5,436 C292.5,436 292.5,517.78 292.5,517.78 " fill="none" id="store-&gt;cosine" style="stroke: #555555; stroke-width: 2.0;"/><polygon fill="#555555" points="292.5,522.78,296.5,513.78,292.5,517.78,288.5,513.78,292.5,522.78" style="stroke: #555555; stroke-width: 2.0;"/><!--MD5=[125b2474c389dc4eebe3db8c55ec28d8]
@startuml pipeline-semantic-search
skinparam direction left to right
skinparam backgroundColor #FAFAFA
skinparam defaultFontName Arial
skinparam defaultFontSize 15
skinparam ArrowColor #555555
skinparam ArrowThickness 2
skinparam linetype ortho

skinparam rectangle {
    BackgroundColor #EFF6FF
    BorderColor #3B82F6
    FontColor #1E3A8A
    RoundCorner 12
}

skinparam database {
    BackgroundColor #FEF9C3
    BorderColor #EAB308
    FontColor #713F12
}

skinparam usecase {
    BackgroundColor #F0FDF4
    BorderColor #22C55E
    FontColor #14532D
}

package "Indexing — embed.py" #EEF2FF {
    folder "documents/" as docs
    rectangle "chunk_text\n300 words · 50 overlap" as chunk
    rectangle "embed_chunks\nOpenAI API" as embed
    database "embeddings.json" as store

    docs - -> chunk
    chunk - -> embed
    embed - -> store
}

package "Search — search.py" #FDF4FF {
    usecase "Query" as query
    rectangle "embed_query\nOpenAI API" as embedq
    rectangle "cosine_similarity\nvs all chunks" as cosine
    usecase "Top-K Results" as results

    query - -> embedq
    embedq - -> cosine
    cosine - -> results
}

store - -> cosine

@enduml

PlantUML version 1.2020.02(Sun Mar 01 10:22:07 UTC 2020)
(GPL source distribution)
Java Runtime: OpenJDK Runtime Environment
JVM: OpenJDK 64-Bit Server VM
Java Version: 17.0.19+10
Operating System: Linux
Default Encoding: UTF-8
Language: en
Country: null
--></g></svg>