<?xml version="1.0" encoding="UTF-8" standalone="no"?><svg xmlns="http://www.w3.org/2000/svg" xmlns:xlink="http://www.w3.org/1999/xlink" contentScriptType="application/ecmascript" contentStyleType="text/css" height="800px" preserveAspectRatio="none" style="width:1127px;height:800px;" version="1.1" viewBox="0 0 1127 800" width="1127px" zoomAndPan="magnify"><defs><filter height="300%" id="f1wi1usr9lq947" width="300%" x="-1" y="-1"><feGaussianBlur result="blurOut" stdDeviation="2.0"/><feColorMatrix in="blurOut" result="blurOut2" type="matrix" values="0 0 0 0 0 0 0 0 0 0 0 0 0 0 0 0 0 0 .4 0"/><feOffset dx="4.0" dy="4.0" in="blurOut2" result="blurOut3"/><feBlend in="SourceGraphic" in2="blurOut3" mode="normal"/></filter></defs><g><text fill="#000000" font-family="Arial" font-size="16" lengthAdjust="spacingAndGlyphs" textLength="228" x="445" y="24.8516">Chroma Vector Store Pipeline</text><rect fill="#EEF6FF" height="752.875" style="stroke: #AABBDD; stroke-width: 1.0;" width="451" x="6" y="36.625"/><text fill="#000000" font-family="Arial" font-size="16" font-weight="bold" lengthAdjust="spacingAndGlyphs" textLength="83" x="190" y="51.4766">Ingestion</text><rect fill="#FFF0F8" height="752.875" style="stroke: #AABBDD; stroke-width: 1.0;" width="384" x="730" y="36.625"/><text fill="#000000" font-family="Arial" font-size="16" font-weight="bold" lengthAdjust="spacingAndGlyphs" textLength="61" x="891.5" y="51.4766">Search</text><line style="stroke: #A80036; stroke-width: 1.0; stroke-dasharray: 5.0,5.0;" x1="89" x2="89" y1="144.875" y2="700.875"/><line style="stroke: #A80036; stroke-width: 1.0; stroke-dasharray: 5.0,5.0;" x1="236" x2="236" y1="144.875" y2="700.875"/><line style="stroke: #A80036; stroke-width: 1.0; stroke-dasharray: 5.0,5.0;" x1="379" x2="379" y1="144.875" y2="700.875"/><line style="stroke: #A80036; stroke-width: 1.0; stroke-dasharray: 5.0,5.0;" x1="540.5" x2="540.5" y1="144.875" y2="700.875"/><line style="stroke: #A80036; stroke-width: 1.0; stroke-dasharray: 5.0,5.0;" x1="676" x2="676" y1="144.875" y2="700.875"/><line style="stroke: #A80036; stroke-width: 1.0; stroke-dasharray: 5.0,5.0;" x1="761" x2="761" y1="144.875" y2="700.875"/><line style="stroke: #A80036; stroke-width: 1.0; stroke-dasharray: 5.0,5.0;" x1="880" x2="880" y1="144.875" y2="700.875"/><line style="stroke: #A80036; stroke-width: 1.0; stroke-dasharray: 5.0,5.0;" x1="1034" x2="1034" y1="144.875" y2="700.875"/><rect fill="#EEF3FB" filter="url(#f1wi1usr9lq947)" height="32.625" style="stroke: #5577AA; stroke-width: 1.5;" width="154" x="10" y="107.25"/><text fill="#222222" font-family="Arial" font-size="16" lengthAdjust="spacingAndGlyphs" textLength="140" x="17" y="129.1016">load_documents()</text><rect fill="#EEF3FB" filter="url(#f1wi1usr9lq947)" height="32.625" style="stroke: #5577AA; stroke-width: 1.5;" width="154" x="10" y="699.875"/><text fill="#222222" font-family="Arial" font-size="16" lengthAdjust="spacingAndGlyphs" textLength="140" x="17" y="721.7266">load_documents()</text><rect fill="#EEF3FB" filter="url(#f1wi1usr9lq947)" height="32.625" style="stroke: #5577AA; stroke-width: 1.5;" width="113" x="178" y="107.25"/><text fill="#222222" font-family="Arial" font-size="16" lengthAdjust="spacingAndGlyphs" textLength="99" x="185" y="129.1016">chunk_text()</text><rect fill="#EEF3FB" filter="url(#f1wi1usr9lq947)" height="32.625" style="stroke: #5577AA; stroke-width: 1.5;" width="113" x="178" y="699.875"/><text fill="#222222" font-family="Arial" font-size="16" lengthAdjust="spacingAndGlyphs" textLength="99" x="185" y="721.7266">chunk_text()</text><rect fill="#EEF3FB" filter="url(#f1wi1usr9lq947)" height="32.625" style="stroke: #5577AA; stroke-width: 1.5;" width="144" x="305" y="107.25"/><text fill="#222222" font-family="Arial" font-size="16" lengthAdjust="spacingAndGlyphs" textLength="130" x="312" y="129.1016">embed_chunks()</text><rect fill="#EEF3FB" filter="url(#f1wi1usr9lq947)" height="32.625" style="stroke: #5577AA; stroke-width: 1.5;" width="144" x="305" y="699.875"/><text fill="#222222" font-family="Arial" font-size="16" lengthAdjust="spacingAndGlyphs" textLength="130" x="312" y="721.7266">embed_chunks()</text><rect fill="#EEF3FB" filter="url(#f1wi1usr9lq947)" height="32.625" style="stroke: #5577AA; stroke-width: 1.5;" width="103" x="487.5" y="107.25"/><text fill="#222222" font-family="Arial" font-size="16" lengthAdjust="spacingAndGlyphs" textLength="89" x="494.5" y="129.1016">OpenAI API</text><rect fill="#EEF3FB" filter="url(#f1wi1usr9lq947)" height="32.625" style="stroke: #5577AA; stroke-width: 1.5;" width="103" x="487.5" y="699.875"/><text fill="#222222" font-family="Arial" font-size="16" lengthAdjust="spacingAndGlyphs" textLength="89" x="494.5" y="721.7266">OpenAI API</text><text fill="#000000" font-family="Arial" font-size="16" lengthAdjust="spacingAndGlyphs" textLength="90" x="628" y="141.1016">Chroma DB</text><path d="M658,90.25 C658,80.25 676,80.25 676,80.25 C676,80.25 694,80.25 694,90.25 L694,116.25 C694,126.25 676,126.25 676,126.25 C676,126.25 658,126.25 658,116.25 L658,90.25 " fill="#FFF8E7" filter="url(#f1wi1usr9lq947)" style="stroke: #CC9900; stroke-width: 1.5;"/><path d="M658,90.25 C658,100.25 676,100.25 676,100.25 C676,100.25 694,100.25 694,90.25 " fill="none" style="stroke: #CC9900; stroke-width: 1.5;"/><text fill="#000000" font-family="Arial" font-size="16" lengthAdjust="spacingAndGlyphs" textLength="90" x="628" y="714.7266">Chroma DB</text><path d="M658,728.5 C658,718.5 676,718.5 676,718.5 C676,718.5 694,718.5 694,728.5 L694,754.5 C694,764.5 676,764.5 676,764.5 C676,764.5 658,764.5 658,754.5 L658,728.5 " fill="#FFF8E7" filter="url(#f1wi1usr9lq947)" style="stroke: #CC9900; stroke-width: 1.5;"/><path d="M658,728.5 C658,738.5 676,738.5 676,738.5 C676,738.5 694,738.5 694,728.5 " fill="none" style="stroke: #CC9900; stroke-width: 1.5;"/><text fill="#000000" font-family="Arial" font-size="16" lengthAdjust="spacingAndGlyphs" textLength="48" x="734" y="141.1016">Query</text><ellipse cx="761" cy="69.25" fill="#F0FFF0" filter="url(#f1wi1usr9lq947)" rx="8" ry="8" style="stroke: #448844; stroke-width: 2.0;"/><path d="M761,77.25 L761,104.25 M748,85.25 L774,85.25 M761,104.25 L748,119.25 M761,104.25 L774,119.25 " fill="none" filter="url(#f1wi1usr9lq947)" style="stroke: #448844; stroke-width: 2.0;"/><text fill="#000000" font-family="Arial" font-size="16" lengthAdjust="spacingAndGlyphs" textLength="48" x="734" y="714.7266">Query</text><ellipse cx="761" cy="728.5" fill="#F0FFF0" filter="url(#f1wi1usr9lq947)" rx="8" ry="8" style="stroke: #448844; stroke-width: 2.0;"/><path d="M761,736.5 L761,763.5 M748,744.5 L774,744.5 M761,763.5 L748,778.5 M761,763.5 L774,778.5 " fill="none" filter="url(#f1wi1usr9lq947)" style="stroke: #448844; stroke-width: 2.0;"/><rect fill="#EEF3FB" filter="url(#f1wi1usr9lq947)" height="32.625" style="stroke: #5577AA; stroke-width: 1.5;" width="132" x="812" y="107.25"/><text fill="#222222" font-family="Arial" font-size="16" lengthAdjust="spacingAndGlyphs" textLength="118" x="819" y="129.1016">embed_query()</text><rect fill="#EEF3FB" filter="url(#f1wi1usr9lq947)" height="32.625" style="stroke: #5577AA; stroke-width: 1.5;" width="132" x="812" y="699.875"/><text fill="#222222" font-family="Arial" font-size="16" lengthAdjust="spacingAndGlyphs" textLength="118" x="819" y="721.7266">embed_query()</text><rect fill="#EEF3FB" filter="url(#f1wi1usr9lq947)" height="32.625" style="stroke: #5577AA; stroke-width: 1.5;" width="148" x="958" y="107.25"/><text fill="#222222" font-family="Arial" font-size="16" lengthAdjust="spacingAndGlyphs" textLength="134" x="965" y="129.1016">collection.query()</text><rect fill="#EEF3FB" filter="url(#f1wi1usr9lq947)" height="32.625" style="stroke: #5577AA; stroke-width: 1.5;" width="148" x="958" y="699.875"/><text fill="#222222" font-family="Arial" font-size="16" lengthAdjust="spacingAndGlyphs" textLength="134" x="965" y="721.7266">collection.query()</text><rect fill="#EEEEEE" filter="url(#f1wi1usr9lq947)" height="3" style="stroke: #EEEEEE; stroke-width: 1.0;" width="1112" x="3" y="177.1875"/><line style="stroke: #000000; stroke-width: 1.0;" x1="3" x2="1115" y1="177.1875" y2="177.1875"/><line style="stroke: #000000; stroke-width: 1.0;" x1="3" x2="1115" y1="180.1875" y2="180.1875"/><rect fill="#EEEEEE" filter="url(#f1wi1usr9lq947)" height="26.625" style="stroke: #000000; stroke-width: 2.0;" width="103" x="507.5" y="164.875"/><text fill="#000000" font-family="Arial" font-size="16" font-weight="bold" lengthAdjust="spacingAndGlyphs" textLength="83" x="513.5" y="183.7266">Ingestion</text><polygon fill="#A80036" points="77,222.125,87,226.125,77,230.125,81,226.125" style="stroke: #A80036; stroke-width: 1.0;"/><line style="stroke: #A80036; stroke-width: 2.0;" x1="3" x2="83" y1="226.125" y2="226.125"/><text fill="#000000" font-family="Arial" font-size="16" lengthAdjust="spacingAndGlyphs" textLength="62" x="10" y="220.3516">.txt files</text><polygon fill="#A80036" points="224.5,254.75,234.5,258.75,224.5,262.75,228.5,258.75" style="stroke: #A80036; stroke-width: 1.0;"/><line style="stroke: #A80036; stroke-width: 2.0;" x1="89" x2="230.5" y1="258.75" y2="258.75"/><text fill="#000000" font-family="Arial" font-size="16" lengthAdjust="spacingAndGlyphs" textLength="31" x="96" y="252.9766">text</text><polygon fill="#A80036" points="367,287.375,377,291.375,367,295.375,371,291.375" style="stroke: #A80036; stroke-width: 1.0;"/><line style="stroke: #A80036; stroke-width: 2.0;" x1="236.5" x2="373" y1="291.375" y2="291.375"/><text fill="#000000" font-family="Arial" font-size="16" lengthAdjust="spacingAndGlyphs" textLength="57" x="243.5" y="285.6016">chunks</text><polygon fill="#A80036" points="529,320,539,324,529,328,533,324" style="stroke: #A80036; stroke-width: 1.0;"/><line style="stroke: #A80036; stroke-width: 2.0;" x1="379" x2="535" y1="324" y2="324"/><text fill="#000000" font-family="Arial" font-size="16" lengthAdjust="spacingAndGlyphs" textLength="118" x="386" y="318.2266">embed request</text><polygon fill="#A80036" points="390,352.625,380,356.625,390,360.625,386,356.625" style="stroke: #A80036; stroke-width: 1.0;"/><line style="stroke: #A80036; stroke-width: 2.0; stroke-dasharray: 2.0,2.0;" x1="384" x2="540" y1="356.625" y2="356.625"/><text fill="#000000" font-family="Arial" font-size="16" lengthAdjust="spacingAndGlyphs" textLength="138" x="396" y="350.8516">1536-dim vectors</text><polygon fill="#A80036" points="664,385.25,674,389.25,664,393.25,668,389.25" style="stroke: #A80036; stroke-width: 1.0;"/><line style="stroke: #A80036; stroke-width: 2.0;" x1="379" x2="670" y1="389.25" y2="389.25"/><text fill="#000000" font-family="Arial" font-size="16" lengthAdjust="spacingAndGlyphs" textLength="273" x="386" y="383.4766">upsert(ids, embeddings, metadata)</text><rect fill="#EEEEEE" filter="url(#f1wi1usr9lq947)" height="3" style="stroke: #EEEEEE; stroke-width: 1.0;" width="1112" x="3" y="419.5625"/><line style="stroke: #000000; stroke-width: 1.0;" x1="3" x2="1115" y1="419.5625" y2="419.5625"/><line style="stroke: #000000; stroke-width: 1.0;" x1="3" x2="1115" y1="422.5625" y2="422.5625"/><rect fill="#EEEEEE" filter="url(#f1wi1usr9lq947)" height="26.625" style="stroke: #000000; stroke-width: 2.0;" width="81" x="518.5" y="407.25"/><text fill="#000000" font-family="Arial" font-size="16" font-weight="bold" lengthAdjust="spacingAndGlyphs" textLength="61" x="524.5" y="426.1016">Search</text><polygon fill="#A80036" points="868,464.5,878,468.5,868,472.5,872,468.5" style="stroke: #A80036; stroke-width: 1.0;"/><line style="stroke: #A80036; stroke-width: 2.0;" x1="761" x2="874" y1="468.5" y2="468.5"/><text fill="#000000" font-family="Arial" font-size="16" lengthAdjust="spacingAndGlyphs" textLength="95" x="768" y="462.7266">query string</text><polygon fill="#A80036" points="552,497.125,542,501.125,552,505.125,548,501.125" style="stroke: #A80036; stroke-width: 1.0;"/><line style="stroke: #A80036; stroke-width: 2.0;" x1="546" x2="879" y1="501.125" y2="501.125"/><text fill="#000000" font-family="Arial" font-size="16" lengthAdjust="spacingAndGlyphs" textLength="118" x="558" y="495.3516">embed request</text><polygon fill="#A80036" points="868,529.75,878,533.75,868,537.75,872,533.75" style="stroke: #A80036; stroke-width: 1.0;"/><line style="stroke: #A80036; stroke-width: 2.0; stroke-dasharray: 2.0,2.0;" x1="541" x2="874" y1="533.75" y2="533.75"/><text fill="#000000" font-family="Arial" font-size="16" lengthAdjust="spacingAndGlyphs" textLength="100" x="548" y="527.9766">query vector</text><polygon fill="#A80036" points="1022,562.375,1032,566.375,1022,570.375,1026,566.375" style="stroke: #A80036; stroke-width: 1.0;"/><line style="stroke: #A80036; stroke-width: 2.0;" x1="880" x2="1028" y1="566.375" y2="566.375"/><text fill="#000000" font-family="Arial" font-size="16" lengthAdjust="spacingAndGlyphs" textLength="100" x="887" y="560.6016">query vector</text><polygon fill="#A80036" points="687,595,677,599,687,603,683,599" style="stroke: #A80036; stroke-width: 1.0;"/><line style="stroke: #A80036; stroke-width: 2.0;" x1="681" x2="1033" y1="599" y2="599"/><text fill="#000000" font-family="Arial" font-size="16" lengthAdjust="spacingAndGlyphs" textLength="93" x="693" y="593.2266">ANN search</text><polygon fill="#A80036" points="1022,627.625,1032,631.625,1022,635.625,1026,631.625" style="stroke: #A80036; stroke-width: 1.0;"/><line style="stroke: #A80036; stroke-width: 2.0; stroke-dasharray: 2.0,2.0;" x1="676" x2="1028" y1="631.625" y2="631.625"/><text fill="#000000" font-family="Arial" font-size="16" lengthAdjust="spacingAndGlyphs" textLength="123" x="683" y="625.8516">nearest vectors</text><polygon fill="#A80036" points="772,678.875,762,682.875,772,686.875,768,682.875" style="stroke: #A80036; stroke-width: 1.0;"/><line style="stroke: #A80036; stroke-width: 2.0; stroke-dasharray: 2.0,2.0;" x1="766" x2="1033" y1="682.875" y2="682.875"/><text fill="#000000" font-family="Arial" font-size="16" lengthAdjust="spacingAndGlyphs" textLength="103" x="778" y="658.4766">Top-K results</text><text fill="#000000" font-family="Arial" font-size="16" lengthAdjust="spacingAndGlyphs" textLength="208" x="778" y="677.1016">(text + source + distance)</text><!--MD5=[1eeba18dc6aa1829d745479d0cfcaca2]
@startuml pipeline-vector-store

skinparam backgroundColor #FFFFFF
skinparam defaultFontName Arial
skinparam defaultFontSize 16
skinparam sequenceArrowThickness 2
skinparam SequenceBoxBackgroundColor #F8F9FF
skinparam SequenceBoxBorderColor #AABBDD
skinparam ParticipantBackgroundColor #EEF3FB
skinparam ParticipantBorderColor #5577AA
skinparam ParticipantFontColor #222222
skinparam DatabaseBackgroundColor #FFF8E7
skinparam DatabaseBorderColor #CC9900
skinparam ActorBackgroundColor #F0FFF0
skinparam ActorBorderColor #448844

title Chroma Vector Store Pipeline

box "Ingestion" #EEF6FF
  participant "load_documents()" as load
  participant "chunk_text()" as chunk
  participant "embed_chunks()" as embed
end box

participant "OpenAI API" as openai
database "Chroma DB" as chroma

box "Search" #FFF0F8
  actor "Query" as query
  participant "embed_query()" as embedq
  participant "collection.query()" as cquery
end box

== Ingestion ==

[-> load : .txt files
load -> chunk : text
chunk -> embed : chunks
embed -> openai : embed request
openai - -> embed : 1536-dim vectors
embed -> chroma : upsert(ids, embeddings, metadata)

== Search ==

query -> embedq : query string
embedq -> openai : embed request
openai - -> embedq : query vector
embedq -> cquery : query vector
cquery -> chroma : ANN search
chroma - -> cquery : nearest vectors
cquery - -> query : Top-K results\n(text + source + distance)

@enduml

PlantUML version 1.2020.02(Sun Mar 01 10:22:07 UTC 2020)
(GPL source distribution)
Java Runtime: OpenJDK Runtime Environment
JVM: OpenJDK 64-Bit Server VM
Java Version: 17.0.19+10
Operating System: Linux
Default Encoding: UTF-8
Language: en
Country: null
--></g></svg>