<?xml version="1.0" encoding="UTF-8" standalone="no"?><svg xmlns="http://www.w3.org/2000/svg" xmlns:xlink="http://www.w3.org/1999/xlink" contentScriptType="application/ecmascript" contentStyleType="text/css" height="934px" preserveAspectRatio="none" style="width:1108px;height:934px;" version="1.1" viewBox="0 0 1108 934" width="1108px" zoomAndPan="magnify"><defs><filter height="300%" id="f1qx36dqv7kc5n" width="300%" x="-1" y="-1"><feGaussianBlur result="blurOut" stdDeviation="2.0"/><feColorMatrix in="blurOut" result="blurOut2" type="matrix" values="0 0 0 0 0 0 0 0 0 0 0 0 0 0 0 0 0 0 .4 0"/><feOffset dx="4.0" dy="4.0" in="blurOut2" result="blurOut3"/><feBlend in="SourceGraphic" in2="blurOut3" mode="normal"/></filter></defs><g><text fill="#000000" font-family="Arial" font-size="15" lengthAdjust="spacingAndGlyphs" textLength="215" x="442" y="23.9233">Chroma Vector Store Pipeline</text><rect fill="#EEF6FF" height="888.0625" style="stroke: #AABBDD; stroke-width: 1.0;" width="460.5" x="4" y="35.4609"/><text fill="#000000" font-family="Arial" font-size="15" font-weight="bold" lengthAdjust="spacingAndGlyphs" textLength="76" x="196.25" y="49.3843">Ingestion</text><rect fill="#FFF0F8" height="888.0625" style="stroke: #AABBDD; stroke-width: 1.0;" width="348.5" x="746.5" y="35.4609"/><text fill="#000000" font-family="Arial" font-size="15" font-weight="bold" lengthAdjust="spacingAndGlyphs" textLength="57" x="892.25" y="49.3843">Search</text><line style="stroke: #A80036; stroke-width: 1.0; stroke-dasharray: 5.0,5.0;" x1="62" x2="62" y1="141.3828" y2="836.0625"/><line style="stroke: #A80036; stroke-width: 1.0; stroke-dasharray: 5.0,5.0;" x1="169" x2="169" y1="141.3828" y2="836.0625"/><line style="stroke: #A80036; stroke-width: 1.0; stroke-dasharray: 5.0,5.0;" x1="324.5" x2="324.5" y1="141.3828" y2="836.0625"/><line style="stroke: #A80036; stroke-width: 1.0; stroke-dasharray: 5.0,5.0;" x1="414.5" x2="414.5" y1="141.3828" y2="836.0625"/><line style="stroke: #A80036; stroke-width: 1.0; stroke-dasharray: 5.0,5.0;" x1="591.5" x2="591.5" y1="141.3828" y2="836.0625"/><line style="stroke: #A80036; stroke-width: 1.0; stroke-dasharray: 5.0,5.0;" x1="695.5" x2="695.5" y1="141.3828" y2="836.0625"/><line style="stroke: #A80036; stroke-width: 1.0; stroke-dasharray: 5.0,5.0;" x1="775.5" x2="775.5" y1="141.3828" y2="836.0625"/><line style="stroke: #A80036; stroke-width: 1.0; stroke-dasharray: 5.0,5.0;" x1="1046" x2="1046" y1="141.3828" y2="836.0625"/><rect fill="#FEFECE" filter="url(#f1qx36dqv7kc5n)" height="31.4609" style="stroke: #A80036; stroke-width: 1.5;" width="101" x="12" y="100.9219"/><rect fill="#FEFECE" filter="url(#f1qx36dqv7kc5n)" height="31.4609" style="stroke: #A80036; stroke-width: 1.5;" width="101" x="8" y="104.9219"/><text fill="#222222" font-family="Arial" font-size="15" lengthAdjust="spacingAndGlyphs" textLength="87" x="15" y="125.8452">documents/</text><rect fill="#FEFECE" filter="url(#f1qx36dqv7kc5n)" height="31.4609" style="stroke: #A80036; stroke-width: 1.5;" width="101" x="12" y="835.0625"/><rect fill="#FEFECE" filter="url(#f1qx36dqv7kc5n)" height="31.4609" style="stroke: #A80036; stroke-width: 1.5;" width="101" x="8" y="839.0625"/><text fill="#222222" font-family="Arial" font-size="15" lengthAdjust="spacingAndGlyphs" textLength="87" x="15" y="859.9858">documents/</text><rect fill="#EEF3FB" filter="url(#f1qx36dqv7kc5n)" height="31.4609" style="stroke: #5577AA; stroke-width: 1.5;" width="80" x="127" y="104.9219"/><text fill="#222222" font-family="Arial" font-size="15" lengthAdjust="spacingAndGlyphs" textLength="66" x="134" y="125.8452">ingest.py</text><rect fill="#EEF3FB" filter="url(#f1qx36dqv7kc5n)" height="31.4609" style="stroke: #5577AA; stroke-width: 1.5;" width="80" x="127" y="835.0625"/><text fill="#222222" font-family="Arial" font-size="15" lengthAdjust="spacingAndGlyphs" textLength="66" x="134" y="855.9858">ingest.py</text><rect fill="#EEF3FB" filter="url(#f1qx36dqv7kc5n)" height="31.4609" style="stroke: #5577AA; stroke-width: 1.5;" width="65" x="290.5" y="104.9219"/><text fill="#222222" font-family="Arial" font-size="15" lengthAdjust="spacingAndGlyphs" textLength="51" x="297.5" y="125.8452">utils.py</text><rect fill="#EEF3FB" filter="url(#f1qx36dqv7kc5n)" height="31.4609" style="stroke: #5577AA; stroke-width: 1.5;" width="65" x="290.5" y="835.0625"/><text fill="#222222" font-family="Arial" font-size="15" lengthAdjust="spacingAndGlyphs" textLength="51" x="297.5" y="855.9858">utils.py</text><rect fill="#EEF3FB" filter="url(#f1qx36dqv7kc5n)" height="31.4609" style="stroke: #5577AA; stroke-width: 1.5;" width="87" x="369.5" y="104.9219"/><text fill="#222222" font-family="Arial" font-size="15" lengthAdjust="spacingAndGlyphs" textLength="73" x="376.5" y="125.8452">embed.py</text><rect fill="#EEF3FB" filter="url(#f1qx36dqv7kc5n)" height="31.4609" style="stroke: #5577AA; stroke-width: 1.5;" width="87" x="369.5" y="835.0625"/><text fill="#222222" font-family="Arial" font-size="15" lengthAdjust="spacingAndGlyphs" textLength="73" x="376.5" y="855.9858">embed.py</text><rect fill="#EEF3FB" filter="url(#f1qx36dqv7kc5n)" height="31.4609" style="stroke: #5577AA; stroke-width: 1.5;" width="93" x="543.5" y="104.9219"/><text fill="#222222" font-family="Arial" font-size="15" lengthAdjust="spacingAndGlyphs" textLength="79" x="550.5" y="125.8452">OpenAI API</text><rect fill="#EEF3FB" filter="url(#f1qx36dqv7kc5n)" height="31.4609" style="stroke: #5577AA; stroke-width: 1.5;" width="93" x="543.5" y="835.0625"/><text fill="#222222" font-family="Arial" font-size="15" lengthAdjust="spacingAndGlyphs" textLength="79" x="550.5" y="855.9858">OpenAI API</text><text fill="#000000" font-family="Arial" font-size="15" lengthAdjust="spacingAndGlyphs" textLength="84" x="650.5" y="137.8452">Chroma DB</text><path d="M677.5,87.9219 C677.5,77.9219 695.5,77.9219 695.5,77.9219 C695.5,77.9219 713.5,77.9219 713.5,87.9219 L713.5,113.9219 C713.5,123.9219 695.5,123.9219 695.5,123.9219 C695.5,123.9219 677.5,123.9219 677.5,113.9219 L677.5,87.9219 " fill="#FFF8E7" filter="url(#f1qx36dqv7kc5n)" style="stroke: #CC9900; stroke-width: 1.5;"/><path d="M677.5,87.9219 C677.5,97.9219 695.5,97.9219 695.5,97.9219 C695.5,97.9219 713.5,97.9219 713.5,87.9219 " fill="none" style="stroke: #CC9900; stroke-width: 1.5;"/><text fill="#000000" font-family="Arial" font-size="15" lengthAdjust="spacingAndGlyphs" textLength="84" x="650.5" y="848.9858">Chroma DB</text><path d="M677.5,862.5234 C677.5,852.5234 695.5,852.5234 695.5,852.5234 C695.5,852.5234 713.5,852.5234 713.5,862.5234 L713.5,888.5234 C713.5,898.5234 695.5,898.5234 695.5,898.5234 C695.5,898.5234 677.5,898.5234 677.5,888.5234 L677.5,862.5234 " fill="#FFF8E7" filter="url(#f1qx36dqv7kc5n)" style="stroke: #CC9900; stroke-width: 1.5;"/><path d="M677.5,862.5234 C677.5,872.5234 695.5,872.5234 695.5,872.5234 C695.5,872.5234 713.5,872.5234 713.5,862.5234 " fill="none" style="stroke: #CC9900; stroke-width: 1.5;"/><text fill="#000000" font-family="Arial" font-size="15" lengthAdjust="spacingAndGlyphs" textLength="44" x="750.5" y="137.8452">Query</text><ellipse cx="775.5" cy="66.9219" fill="#F0FFF0" filter="url(#f1qx36dqv7kc5n)" rx="8" ry="8" style="stroke: #448844; stroke-width: 2.0;"/><path d="M775.5,74.9219 L775.5,101.9219 M762.5,82.9219 L788.5,82.9219 M775.5,101.9219 L762.5,116.9219 M775.5,101.9219 L788.5,116.9219 " fill="none" filter="url(#f1qx36dqv7kc5n)" style="stroke: #448844; stroke-width: 2.0;"/><text fill="#000000" font-family="Arial" font-size="15" lengthAdjust="spacingAndGlyphs" textLength="44" x="750.5" y="848.9858">Query</text><ellipse cx="775.5" cy="862.5234" fill="#F0FFF0" filter="url(#f1qx36dqv7kc5n)" rx="8" ry="8" style="stroke: #448844; stroke-width: 2.0;"/><path d="M775.5,870.5234 L775.5,897.5234 M762.5,878.5234 L788.5,878.5234 M775.5,897.5234 L762.5,912.5234 M775.5,897.5234 L788.5,912.5234 " fill="none" filter="url(#f1qx36dqv7kc5n)" style="stroke: #448844; stroke-width: 2.0;"/><rect fill="#EEF3FB" filter="url(#f1qx36dqv7kc5n)" height="31.4609" style="stroke: #5577AA; stroke-width: 1.5;" width="85" x="1002" y="104.9219"/><text fill="#222222" font-family="Arial" font-size="15" lengthAdjust="spacingAndGlyphs" textLength="71" x="1009" y="125.8452">search.py</text><rect fill="#EEF3FB" filter="url(#f1qx36dqv7kc5n)" height="31.4609" style="stroke: #5577AA; stroke-width: 1.5;" width="85" x="1002" y="835.0625"/><text fill="#222222" font-family="Arial" font-size="15" lengthAdjust="spacingAndGlyphs" textLength="71" x="1009" y="855.9858">search.py</text><rect fill="#EEEEEE" filter="url(#f1qx36dqv7kc5n)" height="3" style="stroke: #EEEEEE; stroke-width: 1.0;" width="1093" x="3" y="173.1133"/><line style="stroke: #000000; stroke-width: 1.0;" x1="3" x2="1096" y1="173.1133" y2="173.1133"/><line style="stroke: #000000; stroke-width: 1.0;" x1="3" x2="1096" y1="176.1133" y2="176.1133"/><rect fill="#EEEEEE" filter="url(#f1qx36dqv7kc5n)" height="25.4609" style="stroke: #000000; stroke-width: 2.0;" width="95" x="502" y="161.3828"/><text fill="#000000" font-family="Arial" font-size="15" font-weight="bold" lengthAdjust="spacingAndGlyphs" textLength="76" x="508" y="179.3062">Ingestion</text><polygon fill="#A80036" points="157,216.3047,167,220.3047,157,224.3047,161,220.3047" style="stroke: #A80036; stroke-width: 1.0;"/><line style="stroke: #A80036; stroke-width: 2.0;" x1="62.5" x2="163" y1="220.3047" y2="220.3047"/><text fill="#000000" font-family="Arial" font-size="15" lengthAdjust="spacingAndGlyphs" textLength="60" x="69.5" y="214.7671">.txt files</text><polygon fill="#A80036" points="313,247.7656,323,251.7656,313,255.7656,317,251.7656" style="stroke: #A80036; stroke-width: 1.0;"/><line style="stroke: #A80036; stroke-width: 2.0;" x1="169" x2="319" y1="251.7656" y2="251.7656"/><text fill="#000000" font-family="Arial" font-size="15" lengthAdjust="spacingAndGlyphs" textLength="132" x="176" y="246.228">load_documents()</text><polygon fill="#A80036" points="180,279.2266,170,283.2266,180,287.2266,176,283.2266" style="stroke: #A80036; stroke-width: 1.0;"/><line style="stroke: #A80036; stroke-width: 2.0; stroke-dasharray: 2.0,2.0;" x1="174" x2="324" y1="283.2266" y2="283.2266"/><text fill="#000000" font-family="Arial" font-size="15" lengthAdjust="spacingAndGlyphs" textLength="31" x="186" y="277.689">text</text><polygon fill="#A80036" points="313,310.6875,323,314.6875,313,318.6875,317,314.6875" style="stroke: #A80036; stroke-width: 1.0;"/><line style="stroke: #A80036; stroke-width: 2.0;" x1="169" x2="319" y1="314.6875" y2="314.6875"/><text fill="#000000" font-family="Arial" font-size="15" lengthAdjust="spacingAndGlyphs" textLength="94" x="176" y="309.1499">chunk_text()</text><polygon fill="#A80036" points="180,342.1484,170,346.1484,180,350.1484,176,346.1484" style="stroke: #A80036; stroke-width: 1.0;"/><line style="stroke: #A80036; stroke-width: 2.0; stroke-dasharray: 2.0,2.0;" x1="174" x2="324" y1="346.1484" y2="346.1484"/><text fill="#000000" font-family="Arial" font-size="15" lengthAdjust="spacingAndGlyphs" textLength="51" x="186" y="340.6108">chunks</text><polygon fill="#A80036" points="403,373.6094,413,377.6094,403,381.6094,407,377.6094" style="stroke: #A80036; stroke-width: 1.0;"/><line style="stroke: #A80036; stroke-width: 2.0;" x1="169" x2="409" y1="377.6094" y2="377.6094"/><text fill="#000000" font-family="Arial" font-size="15" lengthAdjust="spacingAndGlyphs" textLength="122" x="176" y="372.0718">embed_chunks()</text><polygon fill="#A80036" points="580,405.0703,590,409.0703,580,413.0703,584,409.0703" style="stroke: #A80036; stroke-width: 1.0;"/><line style="stroke: #A80036; stroke-width: 2.0;" x1="415" x2="586" y1="409.0703" y2="409.0703"/><text fill="#000000" font-family="Arial" font-size="15" lengthAdjust="spacingAndGlyphs" textLength="153" x="422" y="403.5327">embeddings.create()</text><polygon fill="#A80036" points="426,436.5313,416,440.5313,426,444.5313,422,440.5313" style="stroke: #A80036; stroke-width: 1.0;"/><line style="stroke: #A80036; stroke-width: 2.0; stroke-dasharray: 2.0,2.0;" x1="420" x2="591" y1="440.5313" y2="440.5313"/><text fill="#000000" font-family="Arial" font-size="15" lengthAdjust="spacingAndGlyphs" textLength="131" x="432" y="434.9937">1536-dim vectors</text><polygon fill="#A80036" points="180,467.9922,170,471.9922,180,475.9922,176,471.9922" style="stroke: #A80036; stroke-width: 1.0;"/><line style="stroke: #A80036; stroke-width: 2.0; stroke-dasharray: 2.0,2.0;" x1="174" x2="414" y1="471.9922" y2="471.9922"/><text fill="#000000" font-family="Arial" font-size="15" lengthAdjust="spacingAndGlyphs" textLength="134" x="186" y="466.4546">embedded chunks</text><polygon fill="#A80036" points="683.5,499.4531,693.5,503.4531,683.5,507.4531,687.5,503.4531" style="stroke: #A80036; stroke-width: 1.0;"/><line style="stroke: #A80036; stroke-width: 2.0;" x1="169" x2="689.5" y1="503.4531" y2="503.4531"/><text fill="#000000" font-family="Arial" font-size="15" lengthAdjust="spacingAndGlyphs" textLength="360" x="176" y="497.9155">upsert(ids, embeddings, documents, metadatas)</text><rect fill="#EEEEEE" filter="url(#f1qx36dqv7kc5n)" height="3" style="stroke: #EEEEEE; stroke-width: 1.0;" width="1093" x="3" y="533.1836"/><line style="stroke: #000000; stroke-width: 1.0;" x1="3" x2="1096" y1="533.1836" y2="533.1836"/><line style="stroke: #000000; stroke-width: 1.0;" x1="3" x2="1096" y1="536.1836" y2="536.1836"/><rect fill="#EEEEEE" filter="url(#f1qx36dqv7kc5n)" height="25.4609" style="stroke: #000000; stroke-width: 2.0;" width="76" x="511.5" y="521.4531"/><text fill="#000000" font-family="Arial" font-size="15" font-weight="bold" lengthAdjust="spacingAndGlyphs" textLength="57" x="517.5" y="539.3765">Search</text><polygon fill="#A80036" points="1034.5,576.375,1044.5,580.375,1034.5,584.375,1038.5,580.375" style="stroke: #A80036; stroke-width: 1.0;"/><line style="stroke: #A80036; stroke-width: 2.0;" x1="775.5" x2="1040.5" y1="580.375" y2="580.375"/><text fill="#000000" font-family="Arial" font-size="15" lengthAdjust="spacingAndGlyphs" textLength="87" x="782.5" y="574.8374">query string</text><polygon fill="#A80036" points="426,607.8359,416,611.8359,426,615.8359,422,611.8359" style="stroke: #A80036; stroke-width: 1.0;"/><line style="stroke: #A80036; stroke-width: 2.0;" x1="420" x2="1045.5" y1="611.8359" y2="611.8359"/><text fill="#000000" font-family="Arial" font-size="15" lengthAdjust="spacingAndGlyphs" textLength="112" x="432" y="606.2983">embed_query()</text><polygon fill="#A80036" points="580,639.2969,590,643.2969,580,647.2969,584,643.2969" style="stroke: #A80036; stroke-width: 1.0;"/><line style="stroke: #A80036; stroke-width: 2.0;" x1="415" x2="586" y1="643.2969" y2="643.2969"/><text fill="#000000" font-family="Arial" font-size="15" lengthAdjust="spacingAndGlyphs" textLength="153" x="422" y="637.7593">embeddings.create()</text><polygon fill="#A80036" points="426,670.7578,416,674.7578,426,678.7578,422,674.7578" style="stroke: #A80036; stroke-width: 1.0;"/><line style="stroke: #A80036; stroke-width: 2.0; stroke-dasharray: 2.0,2.0;" x1="420" x2="591" y1="674.7578" y2="674.7578"/><text fill="#000000" font-family="Arial" font-size="15" lengthAdjust="spacingAndGlyphs" textLength="92" x="432" y="669.2202">query vector</text><polygon fill="#A80036" points="1034.5,702.2188,1044.5,706.2188,1034.5,710.2188,1038.5,706.2188" style="stroke: #A80036; stroke-width: 1.0;"/><line style="stroke: #A80036; stroke-width: 2.0; stroke-dasharray: 2.0,2.0;" x1="415" x2="1040.5" y1="706.2188" y2="706.2188"/><text fill="#000000" font-family="Arial" font-size="15" lengthAdjust="spacingAndGlyphs" textLength="92" x="422" y="700.6812">query vector</text><polygon fill="#A80036" points="706.5,733.6797,696.5,737.6797,706.5,741.6797,702.5,737.6797" style="stroke: #A80036; stroke-width: 1.0;"/><line style="stroke: #A80036; stroke-width: 2.0;" x1="700.5" x2="1045.5" y1="737.6797" y2="737.6797"/><text fill="#000000" font-family="Arial" font-size="15" lengthAdjust="spacingAndGlyphs" textLength="327" x="712.5" y="732.1421">query(query_embeddings, n_results, include)</text><polygon fill="#A80036" points="1034.5,765.1406,1044.5,769.1406,1034.5,773.1406,1038.5,769.1406" style="stroke: #A80036; stroke-width: 1.0;"/><line style="stroke: #A80036; stroke-width: 2.0; stroke-dasharray: 2.0,2.0;" x1="695.5" x2="1040.5" y1="769.1406" y2="769.1406"/><text fill="#000000" font-family="Arial" font-size="15" lengthAdjust="spacingAndGlyphs" textLength="115" x="702.5" y="763.603">nearest vectors</text><polygon fill="#A80036" points="786.5,814.0625,776.5,818.0625,786.5,822.0625,782.5,818.0625" style="stroke: #A80036; stroke-width: 1.0;"/><line style="stroke: #A80036; stroke-width: 2.0; stroke-dasharray: 2.0,2.0;" x1="780.5" x2="1045.5" y1="818.0625" y2="818.0625"/><text fill="#000000" font-family="Arial" font-size="15" lengthAdjust="spacingAndGlyphs" textLength="96" x="792.5" y="795.064">Top-K results</text><text fill="#000000" font-family="Arial" font-size="15" lengthAdjust="spacingAndGlyphs" textLength="199" x="792.5" y="812.5249">(text + source + distance)</text><!--MD5=[c4f9ebcba307838c3743dc60d1c714a9]
@startuml pipeline-vector-store

skinparam backgroundColor #FFFFFF
skinparam defaultFontName Arial
skinparam defaultFontSize 15
skinparam sequenceArrowThickness 2
skinparam SequenceBoxBackgroundColor #F8F9FF
skinparam SequenceBoxBorderColor #AABBDD
skinparam ParticipantBackgroundColor #EEF3FB
skinparam ParticipantBorderColor #5577AA
skinparam ParticipantFontColor #222222
skinparam DatabaseBackgroundColor #FFF8E7
skinparam DatabaseBorderColor #CC9900
skinparam ActorBackgroundColor #F0FFF0
skinparam ActorBorderColor #448844

title Chroma Vector Store Pipeline

box "Ingestion" #EEF6FF
  collections "documents/" as docs
  participant "ingest.py" as ingest
  participant "utils.py" as utils
  participant "embed.py" as embed
end box

participant "OpenAI API" as openai
database "Chroma DB" as chroma

box "Search" #FFF0F8
  actor "Query" as query
  participant "search.py" as search
end box

== Ingestion ==

docs -> ingest : .txt files
ingest -> utils : load_documents()
utils - -> ingest : text
ingest -> utils : chunk_text()
utils - -> ingest : chunks
ingest -> embed : embed_chunks()
embed -> openai : embeddings.create()
openai - -> embed : 1536-dim vectors
embed - -> ingest : embedded chunks
ingest -> chroma : upsert(ids, embeddings, documents, metadatas)

== Search ==

query -> search : query string
search -> embed : embed_query()
embed -> openai : embeddings.create()
openai - -> embed : query vector
embed - -> search : query vector
search -> chroma : query(query_embeddings, n_results, include)
chroma - -> search : nearest vectors
search - -> query : Top-K results\n(text + source + distance)

@enduml

PlantUML version 1.2020.02(Sun Mar 01 10:22:07 UTC 2020)
(GPL source distribution)
Java Runtime: OpenJDK Runtime Environment
JVM: OpenJDK 64-Bit Server VM
Java Version: 17.0.19+10
Operating System: Linux
Default Encoding: UTF-8
Language: en
Country: null
--></g></svg>