<?xml version="1.0" encoding="UTF-8" standalone="no"?><svg xmlns="http://www.w3.org/2000/svg" xmlns:xlink="http://www.w3.org/1999/xlink" contentScriptType="application/ecmascript" contentStyleType="text/css" height="963px" preserveAspectRatio="none" style="width:1170px;height:963px;" version="1.1" viewBox="0 0 1170 963" width="1170px" zoomAndPan="magnify"><defs><filter height="300%" id="fekef6q9mfjg" width="300%" x="-1" y="-1"><feGaussianBlur result="blurOut" stdDeviation="2.0"/><feColorMatrix in="blurOut" result="blurOut2" type="matrix" values="0 0 0 0 0 0 0 0 0 0 0 0 0 0 0 0 0 0 .4 0"/><feOffset dx="4.0" dy="4.0" in="blurOut2" result="blurOut3"/><feBlend in="SourceGraphic" in2="blurOut3" mode="normal"/></filter></defs><g><text fill="#000000" font-family="Arial" font-size="16" lengthAdjust="spacingAndGlyphs" textLength="228" x="466.75" y="24.8516">Chroma Vector Store Pipeline</text><rect fill="#EEF6FF" height="916" style="stroke: #AABBDD; stroke-width: 1.0;" width="483" x="4" y="36.625"/><text fill="#000000" font-family="Arial" font-size="16" font-weight="bold" lengthAdjust="spacingAndGlyphs" textLength="83" x="204" y="51.4766">Ingestion</text><rect fill="#FFF0F8" height="916" style="stroke: #AABBDD; stroke-width: 1.0;" width="371.5" x="786" y="36.625"/><text fill="#000000" font-family="Arial" font-size="16" font-weight="bold" lengthAdjust="spacingAndGlyphs" textLength="61" x="941.25" y="51.4766">Search</text><line style="stroke: #A80036; stroke-width: 1.0; stroke-dasharray: 5.0,5.0;" x1="65" x2="65" y1="144.875" y2="864"/><line style="stroke: #A80036; stroke-width: 1.0; stroke-dasharray: 5.0,5.0;" x1="177" x2="177" y1="144.875" y2="864"/><line style="stroke: #A80036; stroke-width: 1.0; stroke-dasharray: 5.0,5.0;" x1="341" x2="341" y1="144.875" y2="864"/><line style="stroke: #A80036; stroke-width: 1.0; stroke-dasharray: 5.0,5.0;" x1="435" x2="435" y1="144.875" y2="864"/><line style="stroke: #A80036; stroke-width: 1.0; stroke-dasharray: 5.0,5.0;" x1="620" x2="620" y1="144.875" y2="864"/><line style="stroke: #A80036; stroke-width: 1.0; stroke-dasharray: 5.0,5.0;" x1="732" x2="732" y1="144.875" y2="864"/><line style="stroke: #A80036; stroke-width: 1.0; stroke-dasharray: 5.0,5.0;" x1="817" x2="817" y1="144.875" y2="864"/><line style="stroke: #A80036; stroke-width: 1.0; stroke-dasharray: 5.0,5.0;" x1="1105.5" x2="1105.5" y1="144.875" y2="864"/><rect fill="#FEFECE" filter="url(#fekef6q9mfjg)" height="32.625" style="stroke: #A80036; stroke-width: 1.5;" width="107" x="12" y="103.25"/><rect fill="#FEFECE" filter="url(#fekef6q9mfjg)" height="32.625" style="stroke: #A80036; stroke-width: 1.5;" width="107" x="8" y="107.25"/><text fill="#222222" font-family="Arial" font-size="16" lengthAdjust="spacingAndGlyphs" textLength="93" x="15" y="129.1016">documents/</text><rect fill="#FEFECE" filter="url(#fekef6q9mfjg)" height="32.625" style="stroke: #A80036; stroke-width: 1.5;" width="107" x="12" y="863"/><rect fill="#FEFECE" filter="url(#fekef6q9mfjg)" height="32.625" style="stroke: #A80036; stroke-width: 1.5;" width="107" x="8" y="867"/><text fill="#222222" font-family="Arial" font-size="16" lengthAdjust="spacingAndGlyphs" textLength="93" x="15" y="888.8516">documents/</text><rect fill="#EEF3FB" filter="url(#fekef6q9mfjg)" height="32.625" style="stroke: #5577AA; stroke-width: 1.5;" width="85" x="133" y="107.25"/><text fill="#222222" font-family="Arial" font-size="16" lengthAdjust="spacingAndGlyphs" textLength="71" x="140" y="129.1016">ingest.py</text><rect fill="#EEF3FB" filter="url(#fekef6q9mfjg)" height="32.625" style="stroke: #5577AA; stroke-width: 1.5;" width="85" x="133" y="863"/><text fill="#222222" font-family="Arial" font-size="16" lengthAdjust="spacingAndGlyphs" textLength="71" x="140" y="884.8516">ingest.py</text><rect fill="#EEF3FB" filter="url(#fekef6q9mfjg)" height="32.625" style="stroke: #5577AA; stroke-width: 1.5;" width="69" x="305" y="107.25"/><text fill="#222222" font-family="Arial" font-size="16" lengthAdjust="spacingAndGlyphs" textLength="55" x="312" y="129.1016">utils.py</text><rect fill="#EEF3FB" filter="url(#fekef6q9mfjg)" height="32.625" style="stroke: #5577AA; stroke-width: 1.5;" width="69" x="305" y="863"/><text fill="#222222" font-family="Arial" font-size="16" lengthAdjust="spacingAndGlyphs" textLength="55" x="312" y="884.8516">utils.py</text><rect fill="#EEF3FB" filter="url(#fekef6q9mfjg)" height="32.625" style="stroke: #5577AA; stroke-width: 1.5;" width="91" x="388" y="107.25"/><text fill="#222222" font-family="Arial" font-size="16" lengthAdjust="spacingAndGlyphs" textLength="77" x="395" y="129.1016">embed.py</text><rect fill="#EEF3FB" filter="url(#fekef6q9mfjg)" height="32.625" style="stroke: #5577AA; stroke-width: 1.5;" width="91" x="388" y="863"/><text fill="#222222" font-family="Arial" font-size="16" lengthAdjust="spacingAndGlyphs" textLength="77" x="395" y="884.8516">embed.py</text><rect fill="#EEF3FB" filter="url(#fekef6q9mfjg)" height="32.625" style="stroke: #5577AA; stroke-width: 1.5;" width="103" x="567" y="107.25"/><text fill="#222222" font-family="Arial" font-size="16" lengthAdjust="spacingAndGlyphs" textLength="89" x="574" y="129.1016">OpenAI API</text><rect fill="#EEF3FB" filter="url(#fekef6q9mfjg)" height="32.625" style="stroke: #5577AA; stroke-width: 1.5;" width="103" x="567" y="863"/><text fill="#222222" font-family="Arial" font-size="16" lengthAdjust="spacingAndGlyphs" textLength="89" x="574" y="884.8516">OpenAI API</text><text fill="#000000" font-family="Arial" font-size="16" lengthAdjust="spacingAndGlyphs" textLength="90" x="684" y="141.1016">Chroma DB</text><path d="M714,90.25 C714,80.25 732,80.25 732,80.25 C732,80.25 750,80.25 750,90.25 L750,116.25 C750,126.25 732,126.25 732,126.25 C732,126.25 714,126.25 714,116.25 L714,90.25 " fill="#FFF8E7" filter="url(#fekef6q9mfjg)" style="stroke: #CC9900; stroke-width: 1.5;"/><path d="M714,90.25 C714,100.25 732,100.25 732,100.25 C732,100.25 750,100.25 750,90.25 " fill="none" style="stroke: #CC9900; stroke-width: 1.5;"/><text fill="#000000" font-family="Arial" font-size="16" lengthAdjust="spacingAndGlyphs" textLength="90" x="684" y="877.8516">Chroma DB</text><path d="M714,891.625 C714,881.625 732,881.625 732,881.625 C732,881.625 750,881.625 750,891.625 L750,917.625 C750,927.625 732,927.625 732,927.625 C732,927.625 714,927.625 714,917.625 L714,891.625 " fill="#FFF8E7" filter="url(#fekef6q9mfjg)" style="stroke: #CC9900; stroke-width: 1.5;"/><path d="M714,891.625 C714,901.625 732,901.625 732,901.625 C732,901.625 750,901.625 750,891.625 " fill="none" style="stroke: #CC9900; stroke-width: 1.5;"/><text fill="#000000" font-family="Arial" font-size="16" lengthAdjust="spacingAndGlyphs" textLength="48" x="790" y="141.1016">Query</text><ellipse cx="817" cy="69.25" fill="#F0FFF0" filter="url(#fekef6q9mfjg)" rx="8" ry="8" style="stroke: #448844; stroke-width: 2.0;"/><path d="M817,77.25 L817,104.25 M804,85.25 L830,85.25 M817,104.25 L804,119.25 M817,104.25 L830,119.25 " fill="none" filter="url(#fekef6q9mfjg)" style="stroke: #448844; stroke-width: 2.0;"/><text fill="#000000" font-family="Arial" font-size="16" lengthAdjust="spacingAndGlyphs" textLength="48" x="790" y="877.8516">Query</text><ellipse cx="817" cy="891.625" fill="#F0FFF0" filter="url(#fekef6q9mfjg)" rx="8" ry="8" style="stroke: #448844; stroke-width: 2.0;"/><path d="M817,899.625 L817,926.625 M804,907.625 L830,907.625 M817,926.625 L804,941.625 M817,926.625 L830,941.625 " fill="none" filter="url(#fekef6q9mfjg)" style="stroke: #448844; stroke-width: 2.0;"/><rect fill="#EEF3FB" filter="url(#fekef6q9mfjg)" height="32.625" style="stroke: #5577AA; stroke-width: 1.5;" width="91" x="1058.5" y="107.25"/><text fill="#222222" font-family="Arial" font-size="16" lengthAdjust="spacingAndGlyphs" textLength="77" x="1065.5" y="129.1016">search.py</text><rect fill="#EEF3FB" filter="url(#fekef6q9mfjg)" height="32.625" style="stroke: #5577AA; stroke-width: 1.5;" width="91" x="1058.5" y="863"/><text fill="#222222" font-family="Arial" font-size="16" lengthAdjust="spacingAndGlyphs" textLength="77" x="1065.5" y="884.8516">search.py</text><rect fill="#EEEEEE" filter="url(#fekef6q9mfjg)" height="3" style="stroke: #EEEEEE; stroke-width: 1.0;" width="1155.5" x="3" y="177.1875"/><line style="stroke: #000000; stroke-width: 1.0;" x1="3" x2="1158.5" y1="177.1875" y2="177.1875"/><line style="stroke: #000000; stroke-width: 1.0;" x1="3" x2="1158.5" y1="180.1875" y2="180.1875"/><rect fill="#EEEEEE" filter="url(#fekef6q9mfjg)" height="26.625" style="stroke: #000000; stroke-width: 2.0;" width="103" x="529.25" y="164.875"/><text fill="#000000" font-family="Arial" font-size="16" font-weight="bold" lengthAdjust="spacingAndGlyphs" textLength="83" x="535.25" y="183.7266">Ingestion</text><polygon fill="#A80036" points="165.5,222.125,175.5,226.125,165.5,230.125,169.5,226.125" style="stroke: #A80036; stroke-width: 1.0;"/><line style="stroke: #A80036; stroke-width: 2.0;" x1="65.5" x2="171.5" y1="226.125" y2="226.125"/><text fill="#000000" font-family="Arial" font-size="16" lengthAdjust="spacingAndGlyphs" textLength="62" x="72.5" y="220.3516">.txt files</text><polygon fill="#A80036" points="329.5,254.75,339.5,258.75,329.5,262.75,333.5,258.75" style="stroke: #A80036; stroke-width: 1.0;"/><line style="stroke: #A80036; stroke-width: 2.0;" x1="177.5" x2="335.5" y1="258.75" y2="258.75"/><text fill="#000000" font-family="Arial" font-size="16" lengthAdjust="spacingAndGlyphs" textLength="140" x="184.5" y="252.9766">load_documents()</text><polygon fill="#A80036" points="188.5,287.375,178.5,291.375,188.5,295.375,184.5,291.375" style="stroke: #A80036; stroke-width: 1.0;"/><line style="stroke: #A80036; stroke-width: 2.0; stroke-dasharray: 2.0,2.0;" x1="182.5" x2="340.5" y1="291.375" y2="291.375"/><text fill="#000000" font-family="Arial" font-size="16" lengthAdjust="spacingAndGlyphs" textLength="31" x="194.5" y="285.6016">text</text><polygon fill="#A80036" points="329.5,320,339.5,324,329.5,328,333.5,324" style="stroke: #A80036; stroke-width: 1.0;"/><line style="stroke: #A80036; stroke-width: 2.0;" x1="177.5" x2="335.5" y1="324" y2="324"/><text fill="#000000" font-family="Arial" font-size="16" lengthAdjust="spacingAndGlyphs" textLength="99" x="184.5" y="318.2266">chunk_text()</text><polygon fill="#A80036" points="188.5,352.625,178.5,356.625,188.5,360.625,184.5,356.625" style="stroke: #A80036; stroke-width: 1.0;"/><line style="stroke: #A80036; stroke-width: 2.0; stroke-dasharray: 2.0,2.0;" x1="182.5" x2="340.5" y1="356.625" y2="356.625"/><text fill="#000000" font-family="Arial" font-size="16" lengthAdjust="spacingAndGlyphs" textLength="57" x="194.5" y="350.8516">chunks</text><polygon fill="#A80036" points="423.5,385.25,433.5,389.25,423.5,393.25,427.5,389.25" style="stroke: #A80036; stroke-width: 1.0;"/><line style="stroke: #A80036; stroke-width: 2.0;" x1="177.5" x2="429.5" y1="389.25" y2="389.25"/><text fill="#000000" font-family="Arial" font-size="16" lengthAdjust="spacingAndGlyphs" textLength="130" x="184.5" y="383.4766">embed_chunks()</text><polygon fill="#A80036" points="608.5,417.875,618.5,421.875,608.5,425.875,612.5,421.875" style="stroke: #A80036; stroke-width: 1.0;"/><line style="stroke: #A80036; stroke-width: 2.0;" x1="435.5" x2="614.5" y1="421.875" y2="421.875"/><text fill="#000000" font-family="Arial" font-size="16" lengthAdjust="spacingAndGlyphs" textLength="161" x="442.5" y="416.1016">embeddings.create()</text><polygon fill="#A80036" points="446.5,450.5,436.5,454.5,446.5,458.5,442.5,454.5" style="stroke: #A80036; stroke-width: 1.0;"/><line style="stroke: #A80036; stroke-width: 2.0; stroke-dasharray: 2.0,2.0;" x1="440.5" x2="619.5" y1="454.5" y2="454.5"/><text fill="#000000" font-family="Arial" font-size="16" lengthAdjust="spacingAndGlyphs" textLength="138" x="452.5" y="448.7266">1536-dim vectors</text><polygon fill="#A80036" points="188.5,483.125,178.5,487.125,188.5,491.125,184.5,487.125" style="stroke: #A80036; stroke-width: 1.0;"/><line style="stroke: #A80036; stroke-width: 2.0; stroke-dasharray: 2.0,2.0;" x1="182.5" x2="434.5" y1="487.125" y2="487.125"/><text fill="#000000" font-family="Arial" font-size="16" lengthAdjust="spacingAndGlyphs" textLength="144" x="194.5" y="481.3516">embedded chunks</text><polygon fill="#A80036" points="720,515.75,730,519.75,720,523.75,724,519.75" style="stroke: #A80036; stroke-width: 1.0;"/><line style="stroke: #A80036; stroke-width: 2.0;" x1="177.5" x2="726" y1="519.75" y2="519.75"/><text fill="#000000" font-family="Arial" font-size="16" lengthAdjust="spacingAndGlyphs" textLength="380" x="184.5" y="513.9766">upsert(ids, embeddings, documents, metadatas)</text><rect fill="#EEEEEE" filter="url(#fekef6q9mfjg)" height="3" style="stroke: #EEEEEE; stroke-width: 1.0;" width="1155.5" x="3" y="550.0625"/><line style="stroke: #000000; stroke-width: 1.0;" x1="3" x2="1158.5" y1="550.0625" y2="550.0625"/><line style="stroke: #000000; stroke-width: 1.0;" x1="3" x2="1158.5" y1="553.0625" y2="553.0625"/><rect fill="#EEEEEE" filter="url(#fekef6q9mfjg)" height="26.625" style="stroke: #000000; stroke-width: 2.0;" width="81" x="540.25" y="537.75"/><text fill="#000000" font-family="Arial" font-size="16" font-weight="bold" lengthAdjust="spacingAndGlyphs" textLength="61" x="546.25" y="556.6016">Search</text><polygon fill="#A80036" points="1094,595,1104,599,1094,603,1098,599" style="stroke: #A80036; stroke-width: 1.0;"/><line style="stroke: #A80036; stroke-width: 2.0;" x1="817" x2="1100" y1="599" y2="599"/><text fill="#000000" font-family="Arial" font-size="16" lengthAdjust="spacingAndGlyphs" textLength="95" x="824" y="593.2266">query string</text><polygon fill="#A80036" points="446.5,627.625,436.5,631.625,446.5,635.625,442.5,631.625" style="stroke: #A80036; stroke-width: 1.0;"/><line style="stroke: #A80036; stroke-width: 2.0;" x1="440.5" x2="1105" y1="631.625" y2="631.625"/><text fill="#000000" font-family="Arial" font-size="16" lengthAdjust="spacingAndGlyphs" textLength="118" x="452.5" y="625.8516">embed_query()</text><polygon fill="#A80036" points="608.5,660.25,618.5,664.25,608.5,668.25,612.5,664.25" style="stroke: #A80036; stroke-width: 1.0;"/><line style="stroke: #A80036; stroke-width: 2.0;" x1="435.5" x2="614.5" y1="664.25" y2="664.25"/><text fill="#000000" font-family="Arial" font-size="16" lengthAdjust="spacingAndGlyphs" textLength="161" x="442.5" y="658.4766">embeddings.create()</text><polygon fill="#A80036" points="446.5,692.875,436.5,696.875,446.5,700.875,442.5,696.875" style="stroke: #A80036; stroke-width: 1.0;"/><line style="stroke: #A80036; stroke-width: 2.0; stroke-dasharray: 2.0,2.0;" x1="440.5" x2="619.5" y1="696.875" y2="696.875"/><text fill="#000000" font-family="Arial" font-size="16" lengthAdjust="spacingAndGlyphs" textLength="100" x="452.5" y="691.1016">query vector</text><polygon fill="#A80036" points="1094,725.5,1104,729.5,1094,733.5,1098,729.5" style="stroke: #A80036; stroke-width: 1.0;"/><line style="stroke: #A80036; stroke-width: 2.0; stroke-dasharray: 2.0,2.0;" x1="435.5" x2="1100" y1="729.5" y2="729.5"/><text fill="#000000" font-family="Arial" font-size="16" lengthAdjust="spacingAndGlyphs" textLength="100" x="442.5" y="723.7266">query vector</text><polygon fill="#A80036" points="743,758.125,733,762.125,743,766.125,739,762.125" style="stroke: #A80036; stroke-width: 1.0;"/><line style="stroke: #A80036; stroke-width: 2.0;" x1="737" x2="1105" y1="762.125" y2="762.125"/><text fill="#000000" font-family="Arial" font-size="16" lengthAdjust="spacingAndGlyphs" textLength="350" x="749" y="756.3516">query(query_embeddings, n_results, include)</text><polygon fill="#A80036" points="1094,790.75,1104,794.75,1094,798.75,1098,794.75" style="stroke: #A80036; stroke-width: 1.0;"/><line style="stroke: #A80036; stroke-width: 2.0; stroke-dasharray: 2.0,2.0;" x1="732" x2="1100" y1="794.75" y2="794.75"/><text fill="#000000" font-family="Arial" font-size="16" lengthAdjust="spacingAndGlyphs" textLength="123" x="739" y="788.9766">nearest vectors</text><polygon fill="#A80036" points="828,842,818,846,828,850,824,846" style="stroke: #A80036; stroke-width: 1.0;"/><line style="stroke: #A80036; stroke-width: 2.0; stroke-dasharray: 2.0,2.0;" x1="822" x2="1105" y1="846" y2="846"/><text fill="#000000" font-family="Arial" font-size="16" lengthAdjust="spacingAndGlyphs" textLength="103" x="834" y="821.6016">Top-K results</text><text fill="#000000" font-family="Arial" font-size="16" lengthAdjust="spacingAndGlyphs" textLength="208" x="834" y="840.2266">(text + source + distance)</text><!--MD5=[c68674b214f9f5d61f70b58d4458d298]
@startuml pipeline-vector-store

skinparam backgroundColor #FFFFFF
skinparam defaultFontName Arial
skinparam defaultFontSize 16
skinparam sequenceArrowThickness 2
skinparam SequenceBoxBackgroundColor #F8F9FF
skinparam SequenceBoxBorderColor #AABBDD
skinparam ParticipantBackgroundColor #EEF3FB
skinparam ParticipantBorderColor #5577AA
skinparam ParticipantFontColor #222222
skinparam DatabaseBackgroundColor #FFF8E7
skinparam DatabaseBorderColor #CC9900
skinparam ActorBackgroundColor #F0FFF0
skinparam ActorBorderColor #448844

title Chroma Vector Store Pipeline

box "Ingestion" #EEF6FF
  collections "documents/" as docs
  participant "ingest.py" as ingest
  participant "utils.py" as utils
  participant "embed.py" as embed
end box

participant "OpenAI API" as openai
database "Chroma DB" as chroma

box "Search" #FFF0F8
  actor "Query" as query
  participant "search.py" as search
end box

== Ingestion ==

docs -> ingest : .txt files
ingest -> utils : load_documents()
utils - -> ingest : text
ingest -> utils : chunk_text()
utils - -> ingest : chunks
ingest -> embed : embed_chunks()
embed -> openai : embeddings.create()
openai - -> embed : 1536-dim vectors
embed - -> ingest : embedded chunks
ingest -> chroma : upsert(ids, embeddings, documents, metadatas)

== Search ==

query -> search : query string
search -> embed : embed_query()
embed -> openai : embeddings.create()
openai - -> embed : query vector
embed - -> search : query vector
search -> chroma : query(query_embeddings, n_results, include)
chroma - -> search : nearest vectors
search - -> query : Top-K results\n(text + source + distance)

@enduml

PlantUML version 1.2020.02(Sun Mar 01 10:22:07 UTC 2020)
(GPL source distribution)
Java Runtime: OpenJDK Runtime Environment
JVM: OpenJDK 64-Bit Server VM
Java Version: 17.0.19+10
Operating System: Linux
Default Encoding: UTF-8
Language: en
Country: null
--></g></svg>