<?xml version="1.0" encoding="UTF-8" standalone="no"?><svg xmlns="http://www.w3.org/2000/svg" xmlns:xlink="http://www.w3.org/1999/xlink" contentScriptType="application/ecmascript" contentStyleType="text/css" height="1069px" preserveAspectRatio="none" style="width:952px;height:1069px;" version="1.1" viewBox="0 0 952 1069" width="952px" zoomAndPan="magnify"><defs><filter height="300%" id="f1wkcuisdamsnf" width="300%" x="-1" y="-1"><feGaussianBlur result="blurOut" stdDeviation="2.0"/><feColorMatrix in="blurOut" result="blurOut2" type="matrix" values="0 0 0 0 0 0 0 0 0 0 0 0 0 0 0 0 0 0 .4 0"/><feOffset dx="4.0" dy="4.0" in="blurOut2" result="blurOut3"/><feBlend in="SourceGraphic" in2="blurOut3" mode="normal"/></filter></defs><g><rect fill="#FFFFFF" filter="url(#f1wkcuisdamsnf)" height="702.0703" style="stroke: #A80036; stroke-width: 1.0;" width="10" x="401" y="261.9609"/><rect fill="#FFFFFF" filter="url(#f1wkcuisdamsnf)" height="29.1328" style="stroke: #A80036; stroke-width: 1.0;" width="10" x="734" y="160.5625"/><rect fill="#FFFFFF" filter="url(#f1wkcuisdamsnf)" height="29.1328" style="stroke: #A80036; stroke-width: 1.0;" width="10" x="734" y="380.4922"/><rect fill="#FFFFFF" filter="url(#f1wkcuisdamsnf)" height="554.4063" style="stroke: #A80036; stroke-width: 1.0;" width="10" x="874" y="409.625"/><rect fill="#FFFFFF" filter="url(#f1wkcuisdamsnf)" height="75.3984" style="stroke: #000000; stroke-width: 2.0;" width="443.5" x="23" y="276.9609"/><rect fill="#FFFFFF" filter="url(#f1wkcuisdamsnf)" height="366.7422" style="stroke: #000000; stroke-width: 2.0;" width="684" x="13" y="467.7578"/><rect fill="#FFFFFF" height="234.4063" style="stroke: none; stroke-width: 1.0;" width="684" x="13" y="527.0234"/><rect fill="#FFFFFF" filter="url(#f1wkcuisdamsnf)" height="163.4688" style="stroke: #000000; stroke-width: 2.0;" width="606" x="23" y="590.9609"/><rect fill="#FFFFFF" height="88.0703" style="stroke: none; stroke-width: 1.0;" width="606" x="23" y="666.3594"/><rect fill="#FFFFFF" filter="url(#f1wkcuisdamsnf)" height="59.2656" style="stroke: #000000; stroke-width: 2.0;" width="273.5" x="345.5" y="688.1641"/><rect fill="#FFFFFF" height="73.0703" style="stroke: none; stroke-width: 1.0;" width="684" x="13" y="761.4297"/><line style="stroke: #A80036; stroke-width: 1.0; stroke-dasharray: 5.0,5.0;" x1="52" x2="52" y1="86.2969" y2="982.0313"/><line style="stroke: #A80036; stroke-width: 1.0; stroke-dasharray: 5.0,5.0;" x1="405.5" x2="405.5" y1="86.2969" y2="982.0313"/><line style="stroke: #A80036; stroke-width: 1.0; stroke-dasharray: 5.0,5.0;" x1="738.5" x2="738.5" y1="86.2969" y2="982.0313"/><line style="stroke: #A80036; stroke-width: 1.0; stroke-dasharray: 5.0,5.0;" x1="878.5" x2="878.5" y1="86.2969" y2="982.0313"/><text fill="#000000" font-family="sans-serif" font-size="14" lengthAdjust="spacingAndGlyphs" textLength="32" x="33" y="82.9951">User</text><ellipse cx="52" cy="13" fill="#FEFECE" filter="url(#f1wkcuisdamsnf)" rx="8" ry="8" style="stroke: #A80036; stroke-width: 2.0;"/><path d="M52,21 L52,48 M39,29 L65,29 M52,48 L39,63 M52,48 L65,63 " fill="none" filter="url(#f1wkcuisdamsnf)" style="stroke: #A80036; stroke-width: 2.0;"/><text fill="#000000" font-family="sans-serif" font-size="14" lengthAdjust="spacingAndGlyphs" textLength="32" x="33" y="994.0264">User</text><ellipse cx="52" cy="1007.3281" fill="#FEFECE" filter="url(#f1wkcuisdamsnf)" rx="8" ry="8" style="stroke: #A80036; stroke-width: 2.0;"/><path d="M52,1015.3281 L52,1042.3281 M39,1023.3281 L65,1023.3281 M52,1042.3281 L39,1057.3281 M52,1042.3281 L65,1057.3281 " fill="none" filter="url(#f1wkcuisdamsnf)" style="stroke: #A80036; stroke-width: 2.0;"/><rect fill="#FEFECE" filter="url(#f1wkcuisdamsnf)" height="30.2969" style="stroke: #A80036; stroke-width: 1.5;" width="77" x="365.5" y="51"/><text fill="#000000" font-family="sans-serif" font-size="14" lengthAdjust="spacingAndGlyphs" textLength="63" x="372.5" y="70.9951">ingest.py</text><rect fill="#FEFECE" filter="url(#f1wkcuisdamsnf)" height="30.2969" style="stroke: #A80036; stroke-width: 1.5;" width="77" x="365.5" y="981.0313"/><text fill="#000000" font-family="sans-serif" font-size="14" lengthAdjust="spacingAndGlyphs" textLength="63" x="372.5" y="1001.0264">ingest.py</text><rect fill="#FEFECE" filter="url(#f1wkcuisdamsnf)" height="46.5938" style="stroke: #A80036; stroke-width: 1.5;" width="123" x="675.5" y="34.7031"/><text fill="#000000" font-family="sans-serif" font-size="14" lengthAdjust="spacingAndGlyphs" textLength="75" x="699.5" y="54.6982">ChromaDB</text><text fill="#000000" font-family="sans-serif" font-size="14" lengthAdjust="spacingAndGlyphs" textLength="109" x="682.5" y="70.9951">PersistentClient</text><rect fill="#FEFECE" filter="url(#f1wkcuisdamsnf)" height="46.5938" style="stroke: #A80036; stroke-width: 1.5;" width="123" x="675.5" y="981.0313"/><text fill="#000000" font-family="sans-serif" font-size="14" lengthAdjust="spacingAndGlyphs" textLength="75" x="699.5" y="1001.0264">ChromaDB</text><text fill="#000000" font-family="sans-serif" font-size="14" lengthAdjust="spacingAndGlyphs" textLength="109" x="682.5" y="1017.3232">PersistentClient</text><rect fill="#FEFECE" filter="url(#f1wkcuisdamsnf)" height="46.5938" style="stroke: #A80036; stroke-width: 1.5;" width="89" x="832.5" y="34.7031"/><text fill="#000000" font-family="sans-serif" font-size="14" lengthAdjust="spacingAndGlyphs" textLength="75" x="839.5" y="54.6982">ChromaDB</text><text fill="#000000" font-family="sans-serif" font-size="14" lengthAdjust="spacingAndGlyphs" textLength="68" x="843" y="70.9951">Collection</text><rect fill="#FEFECE" filter="url(#f1wkcuisdamsnf)" height="46.5938" style="stroke: #A80036; stroke-width: 1.5;" width="89" x="832.5" y="981.0313"/><text fill="#000000" font-family="sans-serif" font-size="14" lengthAdjust="spacingAndGlyphs" textLength="75" x="839.5" y="1001.0264">ChromaDB</text><text fill="#000000" font-family="sans-serif" font-size="14" lengthAdjust="spacingAndGlyphs" textLength="68" x="843" y="1017.3232">Collection</text><rect fill="#FFFFFF" filter="url(#f1wkcuisdamsnf)" height="702.0703" style="stroke: #A80036; stroke-width: 1.0;" width="10" x="401" y="261.9609"/><rect fill="#FFFFFF" filter="url(#f1wkcuisdamsnf)" height="29.1328" style="stroke: #A80036; stroke-width: 1.0;" width="10" x="734" y="160.5625"/><rect fill="#FFFFFF" filter="url(#f1wkcuisdamsnf)" height="29.1328" style="stroke: #A80036; stroke-width: 1.0;" width="10" x="734" y="380.4922"/><rect fill="#FFFFFF" filter="url(#f1wkcuisdamsnf)" height="554.4063" style="stroke: #A80036; stroke-width: 1.0;" width="10" x="874" y="409.625"/><rect fill="#EEEEEE" filter="url(#f1wkcuisdamsnf)" height="3" style="stroke: #EEEEEE; stroke-width: 1.0;" width="937.5" x="3" y="116.8633"/><line style="stroke: #000000; stroke-width: 1.0;" x1="3" x2="940.5" y1="116.8633" y2="116.8633"/><line style="stroke: #000000; stroke-width: 1.0;" x1="3" x2="940.5" y1="119.8633" y2="119.8633"/><rect fill="#EEEEEE" filter="url(#f1wkcuisdamsnf)" height="23.1328" style="stroke: #000000; stroke-width: 2.0;" width="225" x="359.25" y="106.2969"/><text fill="#000000" font-family="sans-serif" font-size="13" font-weight="bold" lengthAdjust="spacingAndGlyphs" textLength="206" x="365.25" y="122.3638">Module Init (at import time)</text><polygon fill="#A80036" points="722,156.5625,732,160.5625,722,164.5625,726,160.5625" style="stroke: #A80036; stroke-width: 1.0;"/><line style="stroke: #A80036; stroke-width: 1.0;" x1="406" x2="728" y1="160.5625" y2="160.5625"/><text fill="#000000" font-family="sans-serif" font-size="13" lengthAdjust="spacingAndGlyphs" textLength="248" x="446" y="155.4966">PersistentClient(path = "./chroma_db")</text><polygon fill="#A80036" points="417,185.6953,407,189.6953,417,193.6953,413,189.6953" style="stroke: #A80036; stroke-width: 1.0;"/><line style="stroke: #A80036; stroke-width: 1.0; stroke-dasharray: 2.0,2.0;" x1="411" x2="738" y1="189.6953" y2="189.6953"/><text fill="#000000" font-family="sans-serif" font-size="13" lengthAdjust="spacingAndGlyphs" textLength="166" x="489.5" y="184.6294">client (persistent, on-disk)</text><rect fill="#EEEEEE" filter="url(#f1wkcuisdamsnf)" height="3" style="stroke: #EEEEEE; stroke-width: 1.0;" width="937.5" x="3" y="218.2617"/><line style="stroke: #000000; stroke-width: 1.0;" x1="3" x2="940.5" y1="218.2617" y2="218.2617"/><line style="stroke: #000000; stroke-width: 1.0;" x1="3" x2="940.5" y1="221.2617" y2="221.2617"/><rect fill="#EEEEEE" filter="url(#f1wkcuisdamsnf)" height="23.1328" style="stroke: #000000; stroke-width: 2.0;" width="110" x="416.75" y="207.6953"/><text fill="#000000" font-family="sans-serif" font-size="13" font-weight="bold" lengthAdjust="spacingAndGlyphs" textLength="91" x="422.75" y="223.7622">main() Entry</text><polygon fill="#A80036" points="389,257.9609,399,261.9609,389,265.9609,393,261.9609" style="stroke: #A80036; stroke-width: 1.0;"/><line style="stroke: #A80036; stroke-width: 1.0;" x1="52" x2="395" y1="261.9609" y2="261.9609"/><text fill="#000000" font-family="sans-serif" font-size="13" lengthAdjust="spacingAndGlyphs" textLength="161" x="146" y="256.895">python ingest.py &lt;path&gt;</text><path d="M23,276.9609 L93,276.9609 L93,283.9609 L83,293.9609 L23,293.9609 L23,276.9609 " fill="#EEEEEE" style="stroke: #000000; stroke-width: 1.0;"/><rect fill="none" height="75.3984" style="stroke: #000000; stroke-width: 2.0;" width="443.5" x="23" y="276.9609"/><text fill="#000000" font-family="sans-serif" font-size="13" font-weight="bold" lengthAdjust="spacingAndGlyphs" textLength="25" x="38" y="290.0278">opt</text><text fill="#000000" font-family="sans-serif" font-size="11" font-weight="bold" lengthAdjust="spacingAndGlyphs" textLength="248" x="108" y="289.1714">[sys.argv &lt; 2 — no argument provided]</text><polygon fill="#A80036" points="63,311.2266,53,315.2266,63,319.2266,59,315.2266" style="stroke: #A80036; stroke-width: 1.0;"/><line style="stroke: #A80036; stroke-width: 1.0; stroke-dasharray: 2.0,2.0;" x1="57" x2="400" y1="315.2266" y2="315.2266"/><text fill="#000000" font-family="sans-serif" font-size="13" lengthAdjust="spacingAndGlyphs" textLength="325" x="64" y="310.1606">print "Usage: python ingest.py &lt;file_or_directory&gt;"</text><polygon fill="#A80036" points="63,340.3594,53,344.3594,63,348.3594,59,344.3594" style="stroke: #A80036; stroke-width: 1.0;"/><line style="stroke: #A80036; stroke-width: 1.0; stroke-dasharray: 2.0,2.0;" x1="57" x2="400" y1="344.3594" y2="344.3594"/><text fill="#000000" font-family="sans-serif" font-size="13" lengthAdjust="spacingAndGlyphs" textLength="66" x="193.5" y="339.2935">sys.exit(1)</text><polygon fill="#A80036" points="722,376.4922,732,380.4922,722,384.4922,726,380.4922" style="stroke: #A80036; stroke-width: 1.0;"/><line style="stroke: #A80036; stroke-width: 1.0;" x1="411" x2="728" y1="380.4922" y2="380.4922"/><text fill="#000000" font-family="sans-serif" font-size="13" lengthAdjust="spacingAndGlyphs" textLength="304" x="420.5" y="375.4263">get_or_create_collection(name = "documents")</text><polygon fill="#A80036" points="422,405.625,412,409.625,422,413.625,418,409.625" style="stroke: #A80036; stroke-width: 1.0;"/><line style="stroke: #A80036; stroke-width: 1.0; stroke-dasharray: 2.0,2.0;" x1="416" x2="738" y1="409.625" y2="409.625"/><text fill="#000000" font-family="sans-serif" font-size="13" lengthAdjust="spacingAndGlyphs" textLength="60" x="545" y="404.5591">collection</text><rect fill="#EEEEEE" filter="url(#f1wkcuisdamsnf)" height="3" style="stroke: #EEEEEE; stroke-width: 1.0;" width="937.5" x="3" y="438.1914"/><line style="stroke: #000000; stroke-width: 1.0;" x1="3" x2="940.5" y1="438.1914" y2="438.1914"/><line style="stroke: #000000; stroke-width: 1.0;" x1="3" x2="940.5" y1="441.1914" y2="441.1914"/><rect fill="#EEEEEE" filter="url(#f1wkcuisdamsnf)" height="23.1328" style="stroke: #000000; stroke-width: 2.0;" width="115" x="414.25" y="427.625"/><text fill="#000000" font-family="sans-serif" font-size="13" font-weight="bold" lengthAdjust="spacingAndGlyphs" textLength="96" x="420.25" y="443.6919">Path Routing</text><path d="M13,467.7578 L77,467.7578 L77,474.7578 L67,484.7578 L13,484.7578 L13,467.7578 " fill="#EEEEEE" style="stroke: #000000; stroke-width: 1.0;"/><rect fill="none" height="366.7422" style="stroke: #000000; stroke-width: 2.0;" width="684" x="13" y="467.7578"/><text fill="#000000" font-family="sans-serif" font-size="13" font-weight="bold" lengthAdjust="spacingAndGlyphs" textLength="19" x="28" y="480.8247">alt</text><text fill="#000000" font-family="sans-serif" font-size="11" font-weight="bold" lengthAdjust="spacingAndGlyphs" textLength="101" x="92" y="479.9683">[target.is_file()]</text><line style="stroke: #A80036; stroke-width: 1.0;" x1="411" x2="453" y1="506.0234" y2="506.0234"/><line style="stroke: #A80036; stroke-width: 1.0;" x1="453" x2="453" y1="506.0234" y2="519.0234"/><line style="stroke: #A80036; stroke-width: 1.0;" x1="412" x2="453" y1="519.0234" y2="519.0234"/><polygon fill="#A80036" points="422,515.0234,412,519.0234,422,523.0234,418,519.0234" style="stroke: #A80036; stroke-width: 1.0;"/><text fill="#000000" font-family="sans-serif" font-size="13" lengthAdjust="spacingAndGlyphs" textLength="189" x="418" y="500.9575">ingest_file(collection, filepath)</text><line style="stroke: #000000; stroke-width: 1.0; stroke-dasharray: 2.0,2.0;" x1="13" x2="697" y1="528.0234" y2="528.0234"/><text fill="#000000" font-family="sans-serif" font-size="11" font-weight="bold" lengthAdjust="spacingAndGlyphs" textLength="97" x="18" y="538.2339">[target.is_dir()]</text><line style="stroke: #A80036; stroke-width: 1.0;" x1="411" x2="453" y1="562.9609" y2="562.9609"/><line style="stroke: #A80036; stroke-width: 1.0;" x1="453" x2="453" y1="562.9609" y2="575.9609"/><line style="stroke: #A80036; stroke-width: 1.0;" x1="412" x2="453" y1="575.9609" y2="575.9609"/><polygon fill="#A80036" points="422,571.9609,412,575.9609,422,579.9609,418,575.9609" style="stroke: #A80036; stroke-width: 1.0;"/><text fill="#000000" font-family="sans-serif" font-size="13" lengthAdjust="spacingAndGlyphs" textLength="267" x="418" y="557.895">filter files by suffix (.txt | .pdf | .docx | .md)</text><path d="M23,590.9609 L87,590.9609 L87,597.9609 L77,607.9609 L23,607.9609 L23,590.9609 " fill="#EEEEEE" style="stroke: #000000; stroke-width: 1.0;"/><rect fill="none" height="163.4688" style="stroke: #000000; stroke-width: 2.0;" width="606" x="23" y="590.9609"/><text fill="#000000" font-family="sans-serif" font-size="13" font-weight="bold" lengthAdjust="spacingAndGlyphs" textLength="19" x="38" y="604.0278">alt</text><text fill="#000000" font-family="sans-serif" font-size="11" font-weight="bold" lengthAdjust="spacingAndGlyphs" textLength="245" x="102" y="603.1714">[no supported files found in directory]</text><polygon fill="#A80036" points="63,625.2266,53,629.2266,63,633.2266,59,629.2266" style="stroke: #A80036; stroke-width: 1.0;"/><line style="stroke: #A80036; stroke-width: 1.0; stroke-dasharray: 2.0,2.0;" x1="57" x2="400" y1="629.2266" y2="629.2266"/><text fill="#000000" font-family="sans-serif" font-size="13" lengthAdjust="spacingAndGlyphs" textLength="273" x="90" y="624.1606">print "No supported files found in {target}"</text><polygon fill="#A80036" points="63,654.3594,53,658.3594,63,662.3594,59,658.3594" style="stroke: #A80036; stroke-width: 1.0;"/><line style="stroke: #A80036; stroke-width: 1.0; stroke-dasharray: 2.0,2.0;" x1="57" x2="400" y1="658.3594" y2="658.3594"/><text fill="#000000" font-family="sans-serif" font-size="13" lengthAdjust="spacingAndGlyphs" textLength="66" x="193.5" y="653.2935">sys.exit(0)</text><line style="stroke: #000000; stroke-width: 1.0; stroke-dasharray: 2.0,2.0;" x1="23" x2="629" y1="667.3594" y2="667.3594"/><text fill="#000000" font-family="sans-serif" font-size="11" font-weight="bold" lengthAdjust="spacingAndGlyphs" textLength="142" x="28" y="677.5698">[supported files exist]</text><path d="M345.5,688.1641 L422.5,688.1641 L422.5,695.1641 L412.5,705.1641 L345.5,705.1641 L345.5,688.1641 " fill="#EEEEEE" style="stroke: #000000; stroke-width: 1.0;"/><rect fill="none" height="59.2656" style="stroke: #000000; stroke-width: 2.0;" width="273.5" x="345.5" y="688.1641"/><text fill="#000000" font-family="sans-serif" font-size="13" font-weight="bold" lengthAdjust="spacingAndGlyphs" textLength="32" x="360.5" y="701.231">loop</text><text fill="#000000" font-family="sans-serif" font-size="11" font-weight="bold" lengthAdjust="spacingAndGlyphs" textLength="165" x="437.5" y="700.3745">[for each file in directory]</text><line style="stroke: #A80036; stroke-width: 1.0;" x1="411" x2="453" y1="726.4297" y2="726.4297"/><line style="stroke: #A80036; stroke-width: 1.0;" x1="453" x2="453" y1="726.4297" y2="739.4297"/><line style="stroke: #A80036; stroke-width: 1.0;" x1="412" x2="453" y1="739.4297" y2="739.4297"/><polygon fill="#A80036" points="422,735.4297,412,739.4297,422,743.4297,418,739.4297" style="stroke: #A80036; stroke-width: 1.0;"/><text fill="#000000" font-family="sans-serif" font-size="13" lengthAdjust="spacingAndGlyphs" textLength="189" x="418" y="721.3638">ingest_file(collection, filepath)</text><line style="stroke: #000000; stroke-width: 1.0; stroke-dasharray: 2.0,2.0;" x1="13" x2="697" y1="762.4297" y2="762.4297"/><text fill="#000000" font-family="sans-serif" font-size="11" font-weight="bold" lengthAdjust="spacingAndGlyphs" textLength="134" x="18" y="772.6401">[path does not exist]</text><polygon fill="#A80036" points="63,793.3672,53,797.3672,63,801.3672,59,797.3672" style="stroke: #A80036; stroke-width: 1.0;"/><line style="stroke: #A80036; stroke-width: 1.0; stroke-dasharray: 2.0,2.0;" x1="57" x2="400" y1="797.3672" y2="797.3672"/><text fill="#000000" font-family="sans-serif" font-size="13" lengthAdjust="spacingAndGlyphs" textLength="200" x="126.5" y="792.3013">print "Path not found: {target}"</text><polygon fill="#A80036" points="63,822.5,53,826.5,63,830.5,59,826.5" style="stroke: #A80036; stroke-width: 1.0;"/><line style="stroke: #A80036; stroke-width: 1.0; stroke-dasharray: 2.0,2.0;" x1="57" x2="400" y1="826.5" y2="826.5"/><text fill="#000000" font-family="sans-serif" font-size="13" lengthAdjust="spacingAndGlyphs" textLength="66" x="193.5" y="821.4341">sys.exit(1)</text><rect fill="#EEEEEE" filter="url(#f1wkcuisdamsnf)" height="3" style="stroke: #EEEEEE; stroke-width: 1.0;" width="937.5" x="3" y="862.0664"/><line style="stroke: #000000; stroke-width: 1.0;" x1="3" x2="940.5" y1="862.0664" y2="862.0664"/><line style="stroke: #000000; stroke-width: 1.0;" x1="3" x2="940.5" y1="865.0664" y2="865.0664"/><rect fill="#EEEEEE" filter="url(#f1wkcuisdamsnf)" height="23.1328" style="stroke: #000000; stroke-width: 2.0;" width="88" x="427.75" y="851.5"/><text fill="#000000" font-family="sans-serif" font-size="13" font-weight="bold" lengthAdjust="spacingAndGlyphs" textLength="69" x="433.75" y="867.5669">Summary</text><polygon fill="#A80036" points="862,901.7656,872,905.7656,862,909.7656,866,905.7656" style="stroke: #A80036; stroke-width: 1.0;"/><line style="stroke: #A80036; stroke-width: 1.0;" x1="411" x2="868" y1="905.7656" y2="905.7656"/><text fill="#000000" font-family="sans-serif" font-size="13" lengthAdjust="spacingAndGlyphs" textLength="46" x="619.5" y="900.6997">count()</text><polygon fill="#A80036" points="422,930.8984,412,934.8984,422,938.8984,418,934.8984" style="stroke: #A80036; stroke-width: 1.0;"/><line style="stroke: #A80036; stroke-width: 1.0; stroke-dasharray: 2.0,2.0;" x1="416" x2="873" y1="934.8984" y2="934.8984"/><text fill="#000000" font-family="sans-serif" font-size="13" lengthAdjust="spacingAndGlyphs" textLength="72" x="606.5" y="929.8325">total_count</text><polygon fill="#A80036" points="63,960.0313,53,964.0313,63,968.0313,59,964.0313" style="stroke: #A80036; stroke-width: 1.0;"/><line style="stroke: #A80036; stroke-width: 1.0; stroke-dasharray: 2.0,2.0;" x1="57" x2="405" y1="964.0313" y2="964.0313"/><text fill="#000000" font-family="sans-serif" font-size="13" lengthAdjust="spacingAndGlyphs" textLength="300" x="79" y="958.9653">print "Total vectors in collection: {total_count}"</text><!--MD5=[d0d4f02b4c44d89a5bea6d32e99a2f3b]
@startuml pipeline-document-ingestion-entry-routing
skinparam sequenceMessageAlign center
skinparam ParticipantPadding 10

actor User as user
participant "ingest.py" as main
participant "ChromaDB\nPersistentClient" as chromaClient
participant "ChromaDB\nCollection" as collection

== Module Init (at import time) ==

main -> chromaClient : PersistentClient(path = "./chroma_db")
activate chromaClient
chromaClient - -> main : client (persistent, on-disk)
deactivate chromaClient

== main() Entry ==

user -> main : python ingest.py <path>
activate main

opt sys.argv < 2 — no argument provided
main - -> user : print "Usage: python ingest.py <file_or_directory>"
main - -> user : sys.exit(1)
end

main -> chromaClient : get_or_create_collection(name = "documents")
activate chromaClient
chromaClient - -> main : collection
deactivate chromaClient
activate collection

== Path Routing ==

alt target.is_file()
main -> main : ingest_file(collection, filepath)

else target.is_dir()
main -> main : filter files by suffix (.txt | .pdf | .docx | .md)
alt no supported files found in directory
main - -> user : print "No supported files found in {target}"
main - -> user : sys.exit(0)
else supported files exist
loop for each file in directory
main -> main : ingest_file(collection, filepath)
end
end

else path does not exist
main - -> user : print "Path not found: {target}"
main - -> user : sys.exit(1)
end

== Summary ==

main -> collection : count()
collection - -> main : total_count
main - -> user : print "Total vectors in collection: {total_count}"
deactivate collection
deactivate main

@enduml

PlantUML version 1.2020.02(Sun Mar 01 10:22:07 UTC 2020)
(GPL source distribution)
Java Runtime: OpenJDK Runtime Environment
JVM: OpenJDK 64-Bit Server VM
Java Version: 17.0.19+10
Operating System: Linux
Default Encoding: UTF-8
Language: en
Country: null
--></g></svg>