<?xml version="1.0" encoding="UTF-8" standalone="no"?><svg xmlns="http://www.w3.org/2000/svg" xmlns:xlink="http://www.w3.org/1999/xlink" contentScriptType="application/ecmascript" contentStyleType="text/css" height="730px" preserveAspectRatio="none" style="width:960px;height:730px;" version="1.1" viewBox="0 0 960 730" width="960px" zoomAndPan="magnify"><defs><filter height="300%" id="f1tli7yixfmfx2" width="300%" x="-1" y="-1"><feGaussianBlur result="blurOut" stdDeviation="2.0"/><feColorMatrix in="blurOut" result="blurOut2" type="matrix" values="0 0 0 0 0 0 0 0 0 0 0 0 0 0 0 0 0 0 .4 0"/><feOffset dx="4.0" dy="4.0" in="blurOut2" result="blurOut3"/><feBlend in="SourceGraphic" in2="blurOut3" mode="normal"/></filter></defs><g><text fill="#000000" font-family="Arial" font-size="13" lengthAdjust="spacingAndGlyphs" textLength="189" x="381.25" y="22.0669">Chroma Vector Store Pipeline</text><rect fill="#EEF6FF" height="686.5234" style="stroke: #AABBDD; stroke-width: 1.0;" width="385" x="6" y="33.1328"/><text fill="#000000" font-family="Arial" font-size="13" font-weight="bold" lengthAdjust="spacingAndGlyphs" textLength="68" x="164.5" y="45.1997">Ingestion</text><rect fill="#FFF0F8" height="686.5234" style="stroke: #AABBDD; stroke-width: 1.0;" width="326" x="621.5" y="33.1328"/><text fill="#000000" font-family="Arial" font-size="13" font-weight="bold" lengthAdjust="spacingAndGlyphs" textLength="50" x="759.5" y="45.1997">Search</text><line style="stroke: #A80036; stroke-width: 1.0; stroke-dasharray: 5.0,5.0;" x1="77" x2="77" y1="134.3984" y2="634.5234"/><line style="stroke: #A80036; stroke-width: 1.0; stroke-dasharray: 5.0,5.0;" x1="203" x2="203" y1="134.3984" y2="634.5234"/><line style="stroke: #A80036; stroke-width: 1.0; stroke-dasharray: 5.0,5.0;" x1="324" x2="324" y1="134.3984" y2="634.5234"/><line style="stroke: #A80036; stroke-width: 1.0; stroke-dasharray: 5.0,5.0;" x1="460.5" x2="460.5" y1="134.3984" y2="634.5234"/><line style="stroke: #A80036; stroke-width: 1.0; stroke-dasharray: 5.0,5.0;" x1="575.5" x2="575.5" y1="134.3984" y2="634.5234"/><line style="stroke: #A80036; stroke-width: 1.0; stroke-dasharray: 5.0,5.0;" x1="647.5" x2="647.5" y1="134.3984" y2="634.5234"/><line style="stroke: #A80036; stroke-width: 1.0; stroke-dasharray: 5.0,5.0;" x1="747.5" x2="747.5" y1="134.3984" y2="634.5234"/><line style="stroke: #A80036; stroke-width: 1.0; stroke-dasharray: 5.0,5.0;" x1="879.5" x2="879.5" y1="134.3984" y2="634.5234"/><rect fill="#EEF3FB" filter="url(#f1tli7yixfmfx2)" height="29.1328" style="stroke: #5577AA; stroke-width: 1.5;" width="130" x="10" y="100.2656"/><text fill="#222222" font-family="Arial" font-size="13" lengthAdjust="spacingAndGlyphs" textLength="116" x="17" y="119.3325">load_documents()</text><rect fill="#EEF3FB" filter="url(#f1tli7yixfmfx2)" height="29.1328" style="stroke: #5577AA; stroke-width: 1.5;" width="130" x="10" y="633.5234"/><text fill="#222222" font-family="Arial" font-size="13" lengthAdjust="spacingAndGlyphs" textLength="116" x="17" y="652.5903">load_documents()</text><rect fill="#EEF3FB" filter="url(#f1tli7yixfmfx2)" height="29.1328" style="stroke: #5577AA; stroke-width: 1.5;" width="94" x="154" y="100.2656"/><text fill="#222222" font-family="Arial" font-size="13" lengthAdjust="spacingAndGlyphs" textLength="80" x="161" y="119.3325">chunk_text()</text><rect fill="#EEF3FB" filter="url(#f1tli7yixfmfx2)" height="29.1328" style="stroke: #5577AA; stroke-width: 1.5;" width="94" x="154" y="633.5234"/><text fill="#222222" font-family="Arial" font-size="13" lengthAdjust="spacingAndGlyphs" textLength="80" x="161" y="652.5903">chunk_text()</text><rect fill="#EEF3FB" filter="url(#f1tli7yixfmfx2)" height="29.1328" style="stroke: #5577AA; stroke-width: 1.5;" width="121" x="262" y="100.2656"/><text fill="#222222" font-family="Arial" font-size="13" lengthAdjust="spacingAndGlyphs" textLength="107" x="269" y="119.3325">embed_chunks()</text><rect fill="#EEF3FB" filter="url(#f1tli7yixfmfx2)" height="29.1328" style="stroke: #5577AA; stroke-width: 1.5;" width="121" x="262" y="633.5234"/><text fill="#222222" font-family="Arial" font-size="13" lengthAdjust="spacingAndGlyphs" textLength="107" x="269" y="652.5903">embed_chunks()</text><rect fill="#EEF3FB" filter="url(#f1tli7yixfmfx2)" height="29.1328" style="stroke: #5577AA; stroke-width: 1.5;" width="84" x="416.5" y="100.2656"/><text fill="#222222" font-family="Arial" font-size="13" lengthAdjust="spacingAndGlyphs" textLength="70" x="423.5" y="119.3325">OpenAI API</text><rect fill="#EEF3FB" filter="url(#f1tli7yixfmfx2)" height="29.1328" style="stroke: #5577AA; stroke-width: 1.5;" width="84" x="416.5" y="633.5234"/><text fill="#222222" font-family="Arial" font-size="13" lengthAdjust="spacingAndGlyphs" textLength="70" x="423.5" y="652.5903">OpenAI API</text><text fill="#000000" font-family="Arial" font-size="13" lengthAdjust="spacingAndGlyphs" textLength="74" x="535.5" y="131.3325">Chroma DB</text><path d="M557.5,83.2656 C557.5,73.2656 575.5,73.2656 575.5,73.2656 C575.5,73.2656 593.5,73.2656 593.5,83.2656 L593.5,109.2656 C593.5,119.2656 575.5,119.2656 575.5,119.2656 C575.5,119.2656 557.5,119.2656 557.5,109.2656 L557.5,83.2656 " fill="#FFF8E7" filter="url(#f1tli7yixfmfx2)" style="stroke: #CC9900; stroke-width: 1.5;"/><path d="M557.5,83.2656 C557.5,93.2656 575.5,93.2656 575.5,93.2656 C575.5,93.2656 593.5,93.2656 593.5,83.2656 " fill="none" style="stroke: #CC9900; stroke-width: 1.5;"/><text fill="#000000" font-family="Arial" font-size="13" lengthAdjust="spacingAndGlyphs" textLength="74" x="535.5" y="645.5903">Chroma DB</text><path d="M557.5,658.6563 C557.5,648.6563 575.5,648.6563 575.5,648.6563 C575.5,648.6563 593.5,648.6563 593.5,658.6563 L593.5,684.6563 C593.5,694.6563 575.5,694.6563 575.5,694.6563 C575.5,694.6563 557.5,694.6563 557.5,684.6563 L557.5,658.6563 " fill="#FFF8E7" filter="url(#f1tli7yixfmfx2)" style="stroke: #CC9900; stroke-width: 1.5;"/><path d="M557.5,658.6563 C557.5,668.6563 575.5,668.6563 575.5,668.6563 C575.5,668.6563 593.5,668.6563 593.5,658.6563 " fill="none" style="stroke: #CC9900; stroke-width: 1.5;"/><text fill="#000000" font-family="Arial" font-size="13" lengthAdjust="spacingAndGlyphs" textLength="38" x="625.5" y="131.3325">Query</text><ellipse cx="647.5" cy="62.2656" fill="#F0FFF0" filter="url(#f1tli7yixfmfx2)" rx="8" ry="8" style="stroke: #448844; stroke-width: 2.0;"/><path d="M647.5,70.2656 L647.5,97.2656 M634.5,78.2656 L660.5,78.2656 M647.5,97.2656 L634.5,112.2656 M647.5,97.2656 L660.5,112.2656 " fill="none" filter="url(#f1tli7yixfmfx2)" style="stroke: #448844; stroke-width: 2.0;"/><text fill="#000000" font-family="Arial" font-size="13" lengthAdjust="spacingAndGlyphs" textLength="38" x="625.5" y="645.5903">Query</text><ellipse cx="647.5" cy="658.6563" fill="#F0FFF0" filter="url(#f1tli7yixfmfx2)" rx="8" ry="8" style="stroke: #448844; stroke-width: 2.0;"/><path d="M647.5,666.6563 L647.5,693.6563 M634.5,674.6563 L660.5,674.6563 M647.5,693.6563 L634.5,708.6563 M647.5,693.6563 L660.5,708.6563 " fill="none" filter="url(#f1tli7yixfmfx2)" style="stroke: #448844; stroke-width: 2.0;"/><rect fill="#EEF3FB" filter="url(#f1tli7yixfmfx2)" height="29.1328" style="stroke: #5577AA; stroke-width: 1.5;" width="112" x="689.5" y="100.2656"/><text fill="#222222" font-family="Arial" font-size="13" lengthAdjust="spacingAndGlyphs" textLength="98" x="696.5" y="119.3325">embed_query()</text><rect fill="#EEF3FB" filter="url(#f1tli7yixfmfx2)" height="29.1328" style="stroke: #5577AA; stroke-width: 1.5;" width="112" x="689.5" y="633.5234"/><text fill="#222222" font-family="Arial" font-size="13" lengthAdjust="spacingAndGlyphs" textLength="98" x="696.5" y="652.5903">embed_query()</text><rect fill="#EEF3FB" filter="url(#f1tli7yixfmfx2)" height="29.1328" style="stroke: #5577AA; stroke-width: 1.5;" width="124" x="815.5" y="100.2656"/><text fill="#222222" font-family="Arial" font-size="13" lengthAdjust="spacingAndGlyphs" textLength="110" x="822.5" y="119.3325">collection.query()</text><rect fill="#EEF3FB" filter="url(#f1tli7yixfmfx2)" height="29.1328" style="stroke: #5577AA; stroke-width: 1.5;" width="124" x="815.5" y="633.5234"/><text fill="#222222" font-family="Arial" font-size="13" lengthAdjust="spacingAndGlyphs" textLength="110" x="822.5" y="652.5903">collection.query()</text><rect fill="#EEEEEE" filter="url(#f1tli7yixfmfx2)" height="3" style="stroke: #EEEEEE; stroke-width: 1.0;" width="945.5" x="3" y="164.9648"/><line style="stroke: #000000; stroke-width: 1.0;" x1="3" x2="948.5" y1="164.9648" y2="164.9648"/><line style="stroke: #000000; stroke-width: 1.0;" x1="3" x2="948.5" y1="167.9648" y2="167.9648"/><rect fill="#EEEEEE" filter="url(#f1tli7yixfmfx2)" height="23.1328" style="stroke: #000000; stroke-width: 2.0;" width="87" x="432.25" y="154.3984"/><text fill="#000000" font-family="Arial" font-size="13" font-weight="bold" lengthAdjust="spacingAndGlyphs" textLength="68" x="438.25" y="170.4653">Ingestion</text><polygon fill="#A80036" points="65,204.6641,75,208.6641,65,212.6641,69,208.6641" style="stroke: #A80036; stroke-width: 1.0;"/><line style="stroke: #A80036; stroke-width: 2.0;" x1="3" x2="71" y1="208.6641" y2="208.6641"/><text fill="#000000" font-family="Arial" font-size="13" lengthAdjust="spacingAndGlyphs" textLength="50" x="10" y="203.5981">.txt files</text><polygon fill="#A80036" points="191,233.7969,201,237.7969,191,241.7969,195,237.7969" style="stroke: #A80036; stroke-width: 1.0;"/><line style="stroke: #A80036; stroke-width: 2.0;" x1="77" x2="197" y1="237.7969" y2="237.7969"/><text fill="#000000" font-family="Arial" font-size="13" lengthAdjust="spacingAndGlyphs" textLength="25" x="84" y="232.731">text</text><polygon fill="#A80036" points="312.5,262.9297,322.5,266.9297,312.5,270.9297,316.5,266.9297" style="stroke: #A80036; stroke-width: 1.0;"/><line style="stroke: #A80036; stroke-width: 2.0;" x1="203" x2="318.5" y1="266.9297" y2="266.9297"/><text fill="#000000" font-family="Arial" font-size="13" lengthAdjust="spacingAndGlyphs" textLength="45" x="210" y="261.8638">chunks</text><polygon fill="#A80036" points="448.5,292.0625,458.5,296.0625,448.5,300.0625,452.5,296.0625" style="stroke: #A80036; stroke-width: 1.0;"/><line style="stroke: #A80036; stroke-width: 2.0;" x1="324.5" x2="454.5" y1="296.0625" y2="296.0625"/><text fill="#000000" font-family="Arial" font-size="13" lengthAdjust="spacingAndGlyphs" textLength="98" x="331.5" y="290.9966">embed request</text><polygon fill="#A80036" points="335.5,321.1953,325.5,325.1953,335.5,329.1953,331.5,325.1953" style="stroke: #A80036; stroke-width: 1.0;"/><line style="stroke: #A80036; stroke-width: 2.0; stroke-dasharray: 2.0,2.0;" x1="329.5" x2="459.5" y1="325.1953" y2="325.1953"/><text fill="#000000" font-family="Arial" font-size="13" lengthAdjust="spacingAndGlyphs" textLength="112" x="341.5" y="320.1294">1536-dim vectors</text><polygon fill="#A80036" points="563.5,350.3281,573.5,354.3281,563.5,358.3281,567.5,354.3281" style="stroke: #A80036; stroke-width: 1.0;"/><line style="stroke: #A80036; stroke-width: 2.0;" x1="324.5" x2="569.5" y1="354.3281" y2="354.3281"/><text fill="#000000" font-family="Arial" font-size="13" lengthAdjust="spacingAndGlyphs" textLength="227" x="331.5" y="349.2622">upsert(ids, embeddings, metadata)</text><rect fill="#EEEEEE" filter="url(#f1tli7yixfmfx2)" height="3" style="stroke: #EEEEEE; stroke-width: 1.0;" width="945.5" x="3" y="382.8945"/><line style="stroke: #000000; stroke-width: 1.0;" x1="3" x2="948.5" y1="382.8945" y2="382.8945"/><line style="stroke: #000000; stroke-width: 1.0;" x1="3" x2="948.5" y1="385.8945" y2="385.8945"/><rect fill="#EEEEEE" filter="url(#f1tli7yixfmfx2)" height="23.1328" style="stroke: #000000; stroke-width: 2.0;" width="69" x="441.25" y="372.3281"/><text fill="#000000" font-family="Arial" font-size="13" font-weight="bold" lengthAdjust="spacingAndGlyphs" textLength="50" x="447.25" y="388.395">Search</text><polygon fill="#A80036" points="735.5,422.5938,745.5,426.5938,735.5,430.5938,739.5,426.5938" style="stroke: #A80036; stroke-width: 1.0;"/><line style="stroke: #A80036; stroke-width: 2.0;" x1="647.5" x2="741.5" y1="426.5938" y2="426.5938"/><text fill="#000000" font-family="Arial" font-size="13" lengthAdjust="spacingAndGlyphs" textLength="76" x="654.5" y="421.5278">query string</text><polygon fill="#A80036" points="471.5,451.7266,461.5,455.7266,471.5,459.7266,467.5,455.7266" style="stroke: #A80036; stroke-width: 1.0;"/><line style="stroke: #A80036; stroke-width: 2.0;" x1="465.5" x2="746.5" y1="455.7266" y2="455.7266"/><text fill="#000000" font-family="Arial" font-size="13" lengthAdjust="spacingAndGlyphs" textLength="98" x="477.5" y="450.6606">embed request</text><polygon fill="#A80036" points="735.5,480.8594,745.5,484.8594,735.5,488.8594,739.5,484.8594" style="stroke: #A80036; stroke-width: 1.0;"/><line style="stroke: #A80036; stroke-width: 2.0; stroke-dasharray: 2.0,2.0;" x1="460.5" x2="741.5" y1="484.8594" y2="484.8594"/><text fill="#000000" font-family="Arial" font-size="13" lengthAdjust="spacingAndGlyphs" textLength="80" x="467.5" y="479.7935">query vector</text><polygon fill="#A80036" points="867.5,509.9922,877.5,513.9922,867.5,517.9922,871.5,513.9922" style="stroke: #A80036; stroke-width: 1.0;"/><line style="stroke: #A80036; stroke-width: 2.0;" x1="747.5" x2="873.5" y1="513.9922" y2="513.9922"/><text fill="#000000" font-family="Arial" font-size="13" lengthAdjust="spacingAndGlyphs" textLength="80" x="754.5" y="508.9263">query vector</text><polygon fill="#A80036" points="586.5,539.125,576.5,543.125,586.5,547.125,582.5,543.125" style="stroke: #A80036; stroke-width: 1.0;"/><line style="stroke: #A80036; stroke-width: 2.0;" x1="580.5" x2="878.5" y1="543.125" y2="543.125"/><text fill="#000000" font-family="Arial" font-size="13" lengthAdjust="spacingAndGlyphs" textLength="76" x="592.5" y="538.0591">ANN search</text><polygon fill="#A80036" points="867.5,568.2578,877.5,572.2578,867.5,576.2578,871.5,572.2578" style="stroke: #A80036; stroke-width: 1.0;"/><line style="stroke: #A80036; stroke-width: 2.0; stroke-dasharray: 2.0,2.0;" x1="575.5" x2="873.5" y1="572.2578" y2="572.2578"/><text fill="#000000" font-family="Arial" font-size="13" lengthAdjust="spacingAndGlyphs" textLength="100" x="582.5" y="567.1919">nearest vectors</text><polygon fill="#A80036" points="658.5,612.5234,648.5,616.5234,658.5,620.5234,654.5,616.5234" style="stroke: #A80036; stroke-width: 1.0;"/><line style="stroke: #A80036; stroke-width: 2.0; stroke-dasharray: 2.0,2.0;" x1="652.5" x2="878.5" y1="616.5234" y2="616.5234"/><text fill="#000000" font-family="Arial" font-size="13" lengthAdjust="spacingAndGlyphs" textLength="83" x="664.5" y="596.3247">Top-K results</text><text fill="#000000" font-family="Arial" font-size="13" lengthAdjust="spacingAndGlyphs" textLength="170" x="664.5" y="611.4575">(text + source + distance)</text><!--MD5=[6020d5f6af98ddd1b8bdfa8202095577]
@startuml pipeline-vector-store

skinparam backgroundColor #FFFFFF
skinparam defaultFontName Arial
skinparam defaultFontSize 13
skinparam sequenceArrowThickness 2
skinparam SequenceBoxBackgroundColor #F8F9FF
skinparam SequenceBoxBorderColor #AABBDD
skinparam ParticipantBackgroundColor #EEF3FB
skinparam ParticipantBorderColor #5577AA
skinparam ParticipantFontColor #222222
skinparam DatabaseBackgroundColor #FFF8E7
skinparam DatabaseBorderColor #CC9900
skinparam ActorBackgroundColor #F0FFF0
skinparam ActorBorderColor #448844

title Chroma Vector Store Pipeline

box "Ingestion" #EEF6FF
  participant "load_documents()" as load
  participant "chunk_text()" as chunk
  participant "embed_chunks()" as embed
end box

participant "OpenAI API" as openai
database "Chroma DB" as chroma

box "Search" #FFF0F8
  actor "Query" as query
  participant "embed_query()" as embedq
  participant "collection.query()" as cquery
end box

== Ingestion ==

[-> load : .txt files
load -> chunk : text
chunk -> embed : chunks
embed -> openai : embed request
openai - -> embed : 1536-dim vectors
embed -> chroma : upsert(ids, embeddings, metadata)

== Search ==

query -> embedq : query string
embedq -> openai : embed request
openai - -> embedq : query vector
embedq -> cquery : query vector
cquery -> chroma : ANN search
chroma - -> cquery : nearest vectors
cquery - -> query : Top-K results\n(text + source + distance)

@enduml

PlantUML version 1.2020.02(Sun Mar 01 10:22:07 UTC 2020)
(GPL source distribution)
Java Runtime: OpenJDK Runtime Environment
JVM: OpenJDK 64-Bit Server VM
Java Version: 17.0.19+10
Operating System: Linux
Default Encoding: UTF-8
Language: en
Country: null
--></g></svg>