<?xml version="1.0" encoding="UTF-8" standalone="no"?><svg xmlns="http://www.w3.org/2000/svg" xmlns:xlink="http://www.w3.org/1999/xlink" contentScriptType="application/ecmascript" contentStyleType="text/css" height="1307px" preserveAspectRatio="none" style="width:1727px;height:1307px;" version="1.1" viewBox="0 0 1727 1307" width="1727px" zoomAndPan="magnify"><defs><filter height="300%" id="ft4umw3zxuqod" width="300%" x="-1" y="-1"><feGaussianBlur result="blurOut" stdDeviation="2.0"/><feColorMatrix in="blurOut" result="blurOut2" type="matrix" values="0 0 0 0 0 0 0 0 0 0 0 0 0 0 0 0 0 0 .4 0"/><feOffset dx="4.0" dy="4.0" in="blurOut2" result="blurOut3"/><feBlend in="SourceGraphic" in2="blurOut3" mode="normal"/></filter></defs><g><text fill="#000000" font-family="Arial" font-size="15" lengthAdjust="spacingAndGlyphs" textLength="175" x="771.75" y="23.9233">Phase 3 — RAG Pipeline</text><rect fill="#EEF6FF" height="1261.4375" style="stroke: #AABBDD; stroke-width: 1.0;" width="847.5" x="19" y="35.4609"/><text fill="#000000" font-family="Arial" font-size="15" font-weight="bold" lengthAdjust="spacingAndGlyphs" textLength="72" x="406.75" y="49.3843">Retrieval</text><rect fill="#FFF0F8" height="1261.4375" style="stroke: #AABBDD; stroke-width: 1.0;" width="114" x="1302.5" y="35.4609"/><text fill="#000000" font-family="Arial" font-size="15" font-weight="bold" lengthAdjust="spacingAndGlyphs" textLength="90" x="1314.5" y="49.3843">Generation</text><rect fill="#FFFFFF" filter="url(#ft4umw3zxuqod)" height="139.2266" style="stroke: #000000; stroke-width: 2.0;" width="435" x="13" y="1053.2109"/><rect fill="#FFFFFF" height="85.8438" style="stroke: none; stroke-width: 1.0;" width="435" x="13" y="1106.5938"/><line style="stroke: #A80036; stroke-width: 1.0; stroke-dasharray: 5.0,5.0;" x1="43" x2="43" y1="141.3828" y2="1209.4375"/><line style="stroke: #A80036; stroke-width: 1.0; stroke-dasharray: 5.0,5.0;" x1="406" x2="406" y1="141.3828" y2="1209.4375"/><line style="stroke: #A80036; stroke-width: 1.0; stroke-dasharray: 5.0,5.0;" x1="680.5" x2="680.5" y1="141.3828" y2="1209.4375"/><line style="stroke: #A80036; stroke-width: 1.0; stroke-dasharray: 5.0,5.0;" x1="816.5" x2="816.5" y1="141.3828" y2="1209.4375"/><line style="stroke: #A80036; stroke-width: 1.0; stroke-dasharray: 5.0,5.0;" x1="1018" x2="1018" y1="141.3828" y2="1209.4375"/><line style="stroke: #A80036; stroke-width: 1.0; stroke-dasharray: 5.0,5.0;" x1="1121" x2="1121" y1="141.3828" y2="1209.4375"/><line style="stroke: #A80036; stroke-width: 1.0; stroke-dasharray: 5.0,5.0;" x1="1359.5" x2="1359.5" y1="141.3828" y2="1209.4375"/><text fill="#000000" font-family="Arial" font-size="15" lengthAdjust="spacingAndGlyphs" textLength="34" x="23" y="137.8452">User</text><ellipse cx="43" cy="66.9219" fill="#F0FFF0" filter="url(#ft4umw3zxuqod)" rx="8" ry="8" style="stroke: #448844; stroke-width: 2.0;"/><path d="M43,74.9219 L43,101.9219 M30,82.9219 L56,82.9219 M43,101.9219 L30,116.9219 M43,101.9219 L56,116.9219 " fill="none" filter="url(#ft4umw3zxuqod)" style="stroke: #448844; stroke-width: 2.0;"/><text fill="#000000" font-family="Arial" font-size="15" lengthAdjust="spacingAndGlyphs" textLength="34" x="23" y="1222.3608">User</text><ellipse cx="43" cy="1235.8984" fill="#F0FFF0" filter="url(#ft4umw3zxuqod)" rx="8" ry="8" style="stroke: #448844; stroke-width: 2.0;"/><path d="M43,1243.8984 L43,1270.8984 M30,1251.8984 L56,1251.8984 M43,1270.8984 L30,1285.8984 M43,1270.8984 L56,1285.8984 " fill="none" filter="url(#ft4umw3zxuqod)" style="stroke: #448844; stroke-width: 2.0;"/><rect fill="#EEF3FB" filter="url(#ft4umw3zxuqod)" height="31.4609" style="stroke: #5577AA; stroke-width: 1.5;" width="60" x="374" y="104.9219"/><text fill="#222222" font-family="Arial" font-size="15" lengthAdjust="spacingAndGlyphs" textLength="46" x="381" y="125.8452">rag.py</text><rect fill="#EEF3FB" filter="url(#ft4umw3zxuqod)" height="31.4609" style="stroke: #5577AA; stroke-width: 1.5;" width="60" x="374" y="1208.4375"/><text fill="#222222" font-family="Arial" font-size="15" lengthAdjust="spacingAndGlyphs" textLength="46" x="381" y="1229.3608">rag.py</text><rect fill="#EEF3FB" filter="url(#ft4umw3zxuqod)" height="31.4609" style="stroke: #5577AA; stroke-width: 1.5;" width="85" x="636.5" y="104.9219"/><text fill="#222222" font-family="Arial" font-size="15" lengthAdjust="spacingAndGlyphs" textLength="71" x="643.5" y="125.8452">search.py</text><rect fill="#EEF3FB" filter="url(#ft4umw3zxuqod)" height="31.4609" style="stroke: #5577AA; stroke-width: 1.5;" width="85" x="636.5" y="1208.4375"/><text fill="#222222" font-family="Arial" font-size="15" lengthAdjust="spacingAndGlyphs" textLength="71" x="643.5" y="1229.3608">search.py</text><rect fill="#EEF3FB" filter="url(#ft4umw3zxuqod)" height="31.4609" style="stroke: #5577AA; stroke-width: 1.5;" width="87" x="771.5" y="104.9219"/><text fill="#222222" font-family="Arial" font-size="15" lengthAdjust="spacingAndGlyphs" textLength="73" x="778.5" y="125.8452">embed.py</text><rect fill="#EEF3FB" filter="url(#ft4umw3zxuqod)" height="31.4609" style="stroke: #5577AA; stroke-width: 1.5;" width="87" x="771.5" y="1208.4375"/><text fill="#222222" font-family="Arial" font-size="15" lengthAdjust="spacingAndGlyphs" textLength="73" x="778.5" y="1229.3608">embed.py</text><text fill="#000000" font-family="Arial" font-size="15" lengthAdjust="spacingAndGlyphs" textLength="84" x="973" y="137.8452">Chroma DB</text><path d="M1000,87.9219 C1000,77.9219 1018,77.9219 1018,77.9219 C1018,77.9219 1036,77.9219 1036,87.9219 L1036,113.9219 C1036,123.9219 1018,123.9219 1018,123.9219 C1018,123.9219 1000,123.9219 1000,113.9219 L1000,87.9219 " fill="#FFF8E7" filter="url(#ft4umw3zxuqod)" style="stroke: #CC9900; stroke-width: 1.5;"/><path d="M1000,87.9219 C1000,97.9219 1018,97.9219 1018,97.9219 C1018,97.9219 1036,97.9219 1036,87.9219 " fill="none" style="stroke: #CC9900; stroke-width: 1.5;"/><text fill="#000000" font-family="Arial" font-size="15" lengthAdjust="spacingAndGlyphs" textLength="84" x="973" y="1222.3608">Chroma DB</text><path d="M1000,1235.8984 C1000,1225.8984 1018,1225.8984 1018,1225.8984 C1018,1225.8984 1036,1225.8984 1036,1235.8984 L1036,1261.8984 C1036,1271.8984 1018,1271.8984 1018,1271.8984 C1018,1271.8984 1000,1271.8984 1000,1261.8984 L1000,1235.8984 " fill="#FFF8E7" filter="url(#ft4umw3zxuqod)" style="stroke: #CC9900; stroke-width: 1.5;"/><path d="M1000,1235.8984 C1000,1245.8984 1018,1245.8984 1018,1245.8984 C1018,1245.8984 1036,1245.8984 1036,1235.8984 " fill="none" style="stroke: #CC9900; stroke-width: 1.5;"/><rect fill="#EEF3FB" filter="url(#ft4umw3zxuqod)" height="31.4609" style="stroke: #5577AA; stroke-width: 1.5;" width="93" x="1073" y="104.9219"/><text fill="#222222" font-family="Arial" font-size="15" lengthAdjust="spacingAndGlyphs" textLength="79" x="1080" y="125.8452">OpenAI API</text><rect fill="#EEF3FB" filter="url(#ft4umw3zxuqod)" height="31.4609" style="stroke: #5577AA; stroke-width: 1.5;" width="93" x="1073" y="1208.4375"/><text fill="#222222" font-family="Arial" font-size="15" lengthAdjust="spacingAndGlyphs" textLength="79" x="1080" y="1229.3608">OpenAI API</text><rect fill="#EEF3FB" filter="url(#ft4umw3zxuqod)" height="31.4609" style="stroke: #5577AA; stroke-width: 1.5;" width="102" x="1306.5" y="104.9219"/><text fill="#222222" font-family="Arial" font-size="15" lengthAdjust="spacingAndGlyphs" textLength="88" x="1313.5" y="125.8452">generate.py</text><rect fill="#EEF3FB" filter="url(#ft4umw3zxuqod)" height="31.4609" style="stroke: #5577AA; stroke-width: 1.5;" width="102" x="1306.5" y="1208.4375"/><text fill="#222222" font-family="Arial" font-size="15" lengthAdjust="spacingAndGlyphs" textLength="88" x="1313.5" y="1229.3608">generate.py</text><rect fill="#EEEEEE" filter="url(#ft4umw3zxuqod)" height="3" style="stroke: #EEEEEE; stroke-width: 1.0;" width="1712.5" x="3" y="173.1133"/><line style="stroke: #000000; stroke-width: 1.0;" x1="3" x2="1715.5" y1="173.1133" y2="173.1133"/><line style="stroke: #000000; stroke-width: 1.0;" x1="3" x2="1715.5" y1="176.1133" y2="176.1133"/><rect fill="#EEEEEE" filter="url(#ft4umw3zxuqod)" height="25.4609" style="stroke: #000000; stroke-width: 2.0;" width="91" x="813.75" y="161.3828"/><text fill="#000000" font-family="Arial" font-size="15" font-weight="bold" lengthAdjust="spacingAndGlyphs" textLength="72" x="819.75" y="179.3062">Retrieval</text><polygon fill="#A80036" points="394,233.7656,404,237.7656,394,241.7656,398,237.7656" style="stroke: #A80036; stroke-width: 1.0;"/><line style="stroke: #A80036; stroke-width: 2.0;" x1="43" x2="400" y1="237.7656" y2="237.7656"/><text fill="#000000" font-family="Arial" font-size="15" lengthAdjust="spacingAndGlyphs" textLength="62" x="50" y="214.7671">question</text><text fill="#000000" font-family="Arial" font-size="15" lengthAdjust="spacingAndGlyphs" textLength="135" x="50" y="232.228">(CLI arg or input())</text><polygon fill="#A80036" points="669,265.2266,679,269.2266,669,273.2266,673,269.2266" style="stroke: #A80036; stroke-width: 1.0;"/><line style="stroke: #A80036; stroke-width: 2.0;" x1="406" x2="675" y1="269.2266" y2="269.2266"/><text fill="#000000" font-family="Arial" font-size="15" lengthAdjust="spacingAndGlyphs" textLength="196" x="413" y="263.689">search(question, top_k=5)</text><polygon fill="#A80036" points="805,296.6875,815,300.6875,805,304.6875,809,300.6875" style="stroke: #A80036; stroke-width: 1.0;"/><line style="stroke: #A80036; stroke-width: 2.0;" x1="681" x2="811" y1="300.6875" y2="300.6875"/><text fill="#000000" font-family="Arial" font-size="15" lengthAdjust="spacingAndGlyphs" textLength="112" x="688" y="295.1499">embed_query()</text><polygon fill="#A80036" points="1109.5,345.6094,1119.5,349.6094,1109.5,353.6094,1113.5,349.6094" style="stroke: #A80036; stroke-width: 1.0;"/><line style="stroke: #A80036; stroke-width: 2.0;" x1="817" x2="1115.5" y1="349.6094" y2="349.6094"/><text fill="#000000" font-family="Arial" font-size="15" lengthAdjust="spacingAndGlyphs" textLength="153" x="824" y="326.6108">embeddings.create()</text><text fill="#000000" font-family="Arial" font-size="15" lengthAdjust="spacingAndGlyphs" textLength="175" x="824" y="344.0718">text-embedding-3-small</text><polygon fill="#A80036" points="828,377.0703,818,381.0703,828,385.0703,824,381.0703" style="stroke: #A80036; stroke-width: 1.0;"/><line style="stroke: #A80036; stroke-width: 2.0; stroke-dasharray: 2.0,2.0;" x1="822" x2="1120.5" y1="381.0703" y2="381.0703"/><text fill="#000000" font-family="Arial" font-size="15" lengthAdjust="spacingAndGlyphs" textLength="181" x="834" y="375.5327">query vector (1536-dim)</text><polygon fill="#A80036" points="692,408.5313,682,412.5313,692,416.5313,688,412.5313" style="stroke: #A80036; stroke-width: 1.0;"/><line style="stroke: #A80036; stroke-width: 2.0; stroke-dasharray: 2.0,2.0;" x1="686" x2="816" y1="412.5313" y2="412.5313"/><text fill="#000000" font-family="Arial" font-size="15" lengthAdjust="spacingAndGlyphs" textLength="92" x="698" y="406.9937">query vector</text><polygon fill="#A80036" points="1006,439.9922,1016,443.9922,1006,447.9922,1010,443.9922" style="stroke: #A80036; stroke-width: 1.0;"/><line style="stroke: #A80036; stroke-width: 2.0;" x1="681" x2="1012" y1="443.9922" y2="443.9922"/><text fill="#000000" font-family="Arial" font-size="15" lengthAdjust="spacingAndGlyphs" textLength="290" x="688" y="438.4546">query(query_embeddings, n_results=5)</text><polygon fill="#A80036" points="692,488.9141,682,492.9141,692,496.9141,688,492.9141" style="stroke: #A80036; stroke-width: 1.0;"/><line style="stroke: #A80036; stroke-width: 2.0; stroke-dasharray: 2.0,2.0;" x1="686" x2="1017" y1="492.9141" y2="492.9141"/><text fill="#000000" font-family="Arial" font-size="15" lengthAdjust="spacingAndGlyphs" textLength="156" x="698" y="469.9155">top-5 nearest chunks</text><text fill="#000000" font-family="Arial" font-size="15" lengthAdjust="spacingAndGlyphs" textLength="313" x="698" y="487.3765">(text + source + chunk_index + distance)</text><polygon fill="#A80036" points="417,520.375,407,524.375,417,528.375,413,524.375" style="stroke: #A80036; stroke-width: 1.0;"/><line style="stroke: #A80036; stroke-width: 2.0; stroke-dasharray: 2.0,2.0;" x1="411" x2="680" y1="524.375" y2="524.375"/><text fill="#000000" font-family="Arial" font-size="15" lengthAdjust="spacingAndGlyphs" textLength="76" x="423" y="518.8374">chunks list</text><rect fill="#EEEEEE" filter="url(#ft4umw3zxuqod)" height="3" style="stroke: #EEEEEE; stroke-width: 1.0;" width="1712.5" x="3" y="554.1055"/><line style="stroke: #000000; stroke-width: 1.0;" x1="3" x2="1715.5" y1="554.1055" y2="554.1055"/><line style="stroke: #000000; stroke-width: 1.0;" x1="3" x2="1715.5" y1="557.1055" y2="557.1055"/><rect fill="#EEEEEE" filter="url(#ft4umw3zxuqod)" height="25.4609" style="stroke: #000000; stroke-width: 2.0;" width="109" x="804.75" y="542.375"/><text fill="#000000" font-family="Arial" font-size="15" font-weight="bold" lengthAdjust="spacingAndGlyphs" textLength="90" x="810.75" y="560.2983">Generation</text><polygon fill="#A80036" points="1347.5,597.2969,1357.5,601.2969,1347.5,605.2969,1351.5,601.2969" style="stroke: #A80036; stroke-width: 1.0;"/><line style="stroke: #A80036; stroke-width: 2.0;" x1="406" x2="1353.5" y1="601.2969" y2="601.2969"/><text fill="#000000" font-family="Arial" font-size="15" lengthAdjust="spacingAndGlyphs" textLength="263" x="413" y="595.7593">generate_answer(question, chunks)</text><line style="stroke: #A80036; stroke-width: 2.0;" x1="1359.5" x2="1401.5" y1="667.6797" y2="667.6797"/><line style="stroke: #A80036; stroke-width: 2.0;" x1="1401.5" x2="1401.5" y1="667.6797" y2="680.6797"/><line style="stroke: #A80036; stroke-width: 2.0;" x1="1360.5" x2="1401.5" y1="680.6797" y2="680.6797"/><polygon fill="#A80036" points="1370.5,676.6797,1360.5,680.6797,1370.5,684.6797,1366.5,680.6797" style="stroke: #A80036; stroke-width: 1.0;"/><text fill="#000000" font-family="Arial" font-size="15" lengthAdjust="spacingAndGlyphs" textLength="232" x="1366.5" y="627.2202">_select_chunks_within_budget()</text><text fill="#000000" font-family="Arial" font-size="15" lengthAdjust="spacingAndGlyphs" textLength="243" x="1366.5" y="644.6812">tiktoken counts tokens per chunk</text><text fill="#000000" font-family="Arial" font-size="15" lengthAdjust="spacingAndGlyphs" textLength="342" x="1366.5" y="662.1421">skips any chunk exceeding 2000-token budget</text><line style="stroke: #A80036; stroke-width: 2.0;" x1="1359.5" x2="1401.5" y1="729.6016" y2="729.6016"/><line style="stroke: #A80036; stroke-width: 2.0;" x1="1401.5" x2="1401.5" y1="729.6016" y2="742.6016"/><line style="stroke: #A80036; stroke-width: 2.0;" x1="1360.5" x2="1401.5" y1="742.6016" y2="742.6016"/><polygon fill="#A80036" points="1370.5,738.6016,1360.5,742.6016,1370.5,746.6016,1366.5,742.6016" style="stroke: #A80036; stroke-width: 1.0;"/><text fill="#000000" font-family="Arial" font-size="15" lengthAdjust="spacingAndGlyphs" textLength="163" x="1366.5" y="706.603">_build_context_block()</text><text fill="#000000" font-family="Arial" font-size="15" lengthAdjust="spacingAndGlyphs" textLength="269" x="1366.5" y="724.064">numbered + labelled context entries</text><polygon fill="#A80036" points="1132.5,787.5234,1122.5,791.5234,1132.5,795.5234,1128.5,791.5234" style="stroke: #A80036; stroke-width: 1.0;"/><line style="stroke: #A80036; stroke-width: 2.0;" x1="1126.5" x2="1358.5" y1="791.5234" y2="791.5234"/><text fill="#000000" font-family="Arial" font-size="15" lengthAdjust="spacingAndGlyphs" textLength="189" x="1138.5" y="768.5249">chat.completions.create()</text><text fill="#000000" font-family="Arial" font-size="15" lengthAdjust="spacingAndGlyphs" textLength="214" x="1138.5" y="785.9858">gpt-4o-mini · temperature=0</text><path d="M1126,804.5234 L1126,883.5234 L1507,883.5234 L1507,814.5234 L1497,804.5234 L1126,804.5234 " fill="#FBFB77" filter="url(#ft4umw3zxuqod)" style="stroke: #A80036; stroke-width: 1.0;"/><path d="M1497,804.5234 L1497,814.5234 L1507,814.5234 L1497,804.5234 " fill="#FBFB77" style="stroke: #A80036; stroke-width: 1.0;"/><text fill="#000000" font-family="Arial" font-size="15" lengthAdjust="spacingAndGlyphs" textLength="120" x="1132" y="823.4468">System prompt:</text><text fill="#000000" font-family="Arial" font-size="15" lengthAdjust="spacingAndGlyphs" textLength="303" x="1132" y="840.9077">Answer ONLY from the provided context.</text><text fill="#000000" font-family="Arial" font-size="15" lengthAdjust="spacingAndGlyphs" textLength="278" x="1132" y="858.3687">If context is insufficient, respond with:</text><text fill="#000000" font-family="Arial" font-size="15" lengthAdjust="spacingAndGlyphs" textLength="360" x="1132" y="875.8296">"I don't know based on the provided documents."</text><polygon fill="#A80036" points="1347.5,912.8281,1357.5,916.8281,1347.5,920.8281,1351.5,916.8281" style="stroke: #A80036; stroke-width: 1.0;"/><line style="stroke: #A80036; stroke-width: 2.0; stroke-dasharray: 2.0,2.0;" x1="1121.5" x2="1353.5" y1="916.8281" y2="916.8281"/><text fill="#000000" font-family="Arial" font-size="15" lengthAdjust="spacingAndGlyphs" textLength="90" x="1128.5" y="911.2905">answer text</text><polygon fill="#A80036" points="417,944.2891,407,948.2891,417,952.2891,413,948.2891" style="stroke: #A80036; stroke-width: 1.0;"/><line style="stroke: #A80036; stroke-width: 2.0; stroke-dasharray: 2.0,2.0;" x1="411" x2="1358.5" y1="948.2891" y2="948.2891"/><text fill="#000000" font-family="Arial" font-size="15" lengthAdjust="spacingAndGlyphs" textLength="151" x="423" y="942.7515">{ answer, sources }</text><rect fill="#EEEEEE" filter="url(#ft4umw3zxuqod)" height="3" style="stroke: #EEEEEE; stroke-width: 1.0;" width="1712.5" x="3" y="978.0195"/><line style="stroke: #000000; stroke-width: 1.0;" x1="3" x2="1715.5" y1="978.0195" y2="978.0195"/><line style="stroke: #000000; stroke-width: 1.0;" x1="3" x2="1715.5" y1="981.0195" y2="981.0195"/><rect fill="#EEEEEE" filter="url(#ft4umw3zxuqod)" height="25.4609" style="stroke: #000000; stroke-width: 2.0;" width="76" x="821.25" y="966.2891"/><text fill="#000000" font-family="Arial" font-size="15" font-weight="bold" lengthAdjust="spacingAndGlyphs" textLength="57" x="827.25" y="984.2124">Output</text><line style="stroke: #A80036; stroke-width: 2.0;" x1="406" x2="448" y1="1025.2109" y2="1025.2109"/><line style="stroke: #A80036; stroke-width: 2.0;" x1="448" x2="448" y1="1025.2109" y2="1038.2109"/><line style="stroke: #A80036; stroke-width: 2.0;" x1="407" x2="448" y1="1038.2109" y2="1038.2109"/><polygon fill="#A80036" points="417,1034.2109,407,1038.2109,417,1042.2109,413,1038.2109" style="stroke: #A80036; stroke-width: 1.0;"/><text fill="#000000" font-family="Arial" font-size="15" lengthAdjust="spacingAndGlyphs" textLength="261" x="413" y="1019.6733">answer == NO_ANSWER_PHRASE?</text><path d="M13,1053.2109 L79,1053.2109 L79,1062.2109 L69,1072.2109 L13,1072.2109 L13,1053.2109 " fill="#EEEEEE" style="stroke: #000000; stroke-width: 1.0;"/><rect fill="none" height="139.2266" style="stroke: #000000; stroke-width: 2.0;" width="435" x="13" y="1053.2109"/><text fill="#000000" font-family="Arial" font-size="15" font-weight="bold" lengthAdjust="spacingAndGlyphs" textLength="21" x="28" y="1068.1343">alt</text><text fill="#000000" font-family="Arial" font-size="15" font-weight="bold" lengthAdjust="spacingAndGlyphs" textLength="221" x="94" y="1069.1343">[answer not in documents]</text><polygon fill="#A80036" points="54,1094.5938,44,1098.5938,54,1102.5938,50,1098.5938" style="stroke: #A80036; stroke-width: 1.0;"/><line style="stroke: #A80036; stroke-width: 2.0;" x1="48" x2="405" y1="1098.5938" y2="1098.5938"/><text fill="#000000" font-family="Arial" font-size="15" lengthAdjust="spacingAndGlyphs" textLength="275" x="60" y="1093.0562">"No answer found in the documents."</text><line style="stroke: #000000; stroke-width: 1.0; stroke-dasharray: 2.0,2.0;" x1="13" x2="448" y1="1107.5938" y2="1107.5938"/><text fill="#000000" font-family="Arial" font-size="15" font-weight="bold" lengthAdjust="spacingAndGlyphs" textLength="126" x="18" y="1121.5171">[answer found]</text><polygon fill="#A80036" points="54,1180.4375,44,1184.4375,54,1188.4375,50,1184.4375" style="stroke: #A80036; stroke-width: 1.0;"/><line style="stroke: #A80036; stroke-width: 2.0;" x1="48" x2="405" y1="1184.4375" y2="1184.4375"/><text fill="#000000" font-family="Arial" font-size="15" lengthAdjust="spacingAndGlyphs" textLength="91" x="60" y="1143.978">Answer text</text><text fill="#000000" font-family="Arial" font-size="15" lengthAdjust="spacingAndGlyphs" textLength="133" x="60" y="1161.439">+ source citations</text><text fill="#000000" font-family="Arial" font-size="15" lengthAdjust="spacingAndGlyphs" textLength="339" x="60" y="1178.8999">(source filename · chunk index · text preview)</text><!--MD5=[5797b7c1a6924e56225b023a95f7e1ba]
@startuml pipeline-rag

skinparam backgroundColor #FFFFFF
skinparam defaultFontName Arial
skinparam defaultFontSize 15
skinparam sequenceArrowThickness 2
skinparam SequenceBoxBackgroundColor #F8F9FF
skinparam SequenceBoxBorderColor #AABBDD
skinparam ParticipantBackgroundColor #EEF3FB
skinparam ParticipantBorderColor #5577AA
skinparam ParticipantFontColor #222222
skinparam DatabaseBackgroundColor #FFF8E7
skinparam DatabaseBorderColor #CC9900
skinparam ActorBackgroundColor #F0FFF0
skinparam ActorBorderColor #448844

title Phase 3 — RAG Pipeline

box "Retrieval" #EEF6FF
  actor "User" as user
  participant "rag.py" as rag
  participant "search.py" as search
  participant "embed.py" as embed
end box

database "Chroma DB" as chroma
participant "OpenAI API" as openai

box "Generation" #FFF0F8
  participant "generate.py" as generate
end box

== Retrieval ==

user -> rag : question\n(CLI arg or input())
rag -> search : search(question, top_k=5)
search -> embed : embed_query()
embed -> openai : embeddings.create()\ntext-embedding-3-small
openai - -> embed : query vector (1536-dim)
embed - -> search : query vector
search -> chroma : query(query_embeddings, n_results=5)
chroma - -> search : top-5 nearest chunks\n(text + source + chunk_index + distance)
search - -> rag : chunks list

== Generation ==

rag -> generate : generate_answer(question, chunks)
generate -> generate : _select_chunks_within_budget()\ntiktoken counts tokens per chunk\nskips any chunk exceeding 2000-token budget
generate -> generate : _build_context_block()\nnumbered + labelled context entries
generate -> openai : chat.completions.create()\ngpt-4o-mini · temperature=0
note right of openai
  System prompt:
  Answer ONLY from the provided context.
  If context is insufficient, respond with:
  "I don't know based on the provided documents."
end note
openai - -> generate : answer text
generate - -> rag : { answer, sources }

== Output ==

rag -> rag : answer == NO_ANSWER_PHRASE?
alt answer not in documents
  rag -> user : "No answer found in the documents."
else answer found
  rag -> user : Answer text\n+ source citations\n(source filename · chunk index · text preview)
end

@enduml

PlantUML version 1.2020.02(Sun Mar 01 10:22:07 UTC 2020)
(GPL source distribution)
Java Runtime: OpenJDK Runtime Environment
JVM: OpenJDK 64-Bit Server VM
Java Version: 17.0.19+10
Operating System: Linux
Default Encoding: UTF-8
Language: en
Country: null
--></g></svg>