<?xml version="1.0" encoding="UTF-8" standalone="no"?><svg xmlns="http://www.w3.org/2000/svg" xmlns:xlink="http://www.w3.org/1999/xlink" contentScriptType="application/ecmascript" contentStyleType="text/css" height="1465px" preserveAspectRatio="none" style="width:1157px;height:1465px;" version="1.1" viewBox="0 0 1157 1465" width="1157px" zoomAndPan="magnify"><defs><filter height="300%" id="fppz84h8knqk5" width="300%" x="-1" y="-1"><feGaussianBlur result="blurOut" stdDeviation="2.0"/><feColorMatrix in="blurOut" result="blurOut2" type="matrix" values="0 0 0 0 0 0 0 0 0 0 0 0 0 0 0 0 0 0 .4 0"/><feOffset dx="4.0" dy="4.0" in="blurOut2" result="blurOut3"/><feBlend in="SourceGraphic" in2="blurOut3" mode="normal"/></filter></defs><g><text fill="#000000" font-family="Arial" font-size="15" lengthAdjust="spacingAndGlyphs" textLength="566" x="291.25" y="23.9233">Phase 5 -- Retrieval Quality (Hybrid Search + Reranking + Metadata Filtering)</text><rect fill="#FFFFFF" filter="url(#fppz84h8knqk5)" height="327.9922" style="stroke: #000000; stroke-width: 2.0;" width="800.5" x="13" y="303.6875"/><rect fill="#FFFFFF" filter="url(#fppz84h8knqk5)" height="84.8438" style="stroke: #000000; stroke-width: 2.0;" width="780.5" x="23" y="457.4531"/><rect fill="#FFFFFF" height="82.3828" style="stroke: none; stroke-width: 1.0;" width="800.5" x="13" y="549.2969"/><line style="stroke: #A80036; stroke-width: 1.0; stroke-dasharray: 5.0,5.0;" x1="103" x2="103" y1="97.9219" y2="1391.2813"/><line style="stroke: #A80036; stroke-width: 1.0; stroke-dasharray: 5.0,5.0;" x1="352" x2="352" y1="97.9219" y2="1391.2813"/><line style="stroke: #A80036; stroke-width: 1.0; stroke-dasharray: 5.0,5.0;" x1="452" x2="452" y1="97.9219" y2="1391.2813"/><line style="stroke: #A80036; stroke-width: 1.0; stroke-dasharray: 5.0,5.0;" x1="551" x2="551" y1="97.9219" y2="1391.2813"/><line style="stroke: #A80036; stroke-width: 1.0; stroke-dasharray: 5.0,5.0;" x1="748.5" x2="748.5" y1="97.9219" y2="1391.2813"/><line style="stroke: #A80036; stroke-width: 1.0; stroke-dasharray: 5.0,5.0;" x1="851.5" x2="851.5" y1="97.9219" y2="1391.2813"/><line style="stroke: #A80036; stroke-width: 1.0; stroke-dasharray: 5.0,5.0;" x1="961.5" x2="961.5" y1="97.9219" y2="1391.2813"/><line style="stroke: #A80036; stroke-width: 1.0; stroke-dasharray: 5.0,5.0;" x1="1081.5" x2="1081.5" y1="97.9219" y2="1391.2813"/><rect fill="#EEF3FB" filter="url(#fppz84h8knqk5)" height="31.4609" style="stroke: #5577AA; stroke-width: 1.5;" width="137" x="33" y="61.4609"/><text fill="#222222" font-family="Arial" font-size="15" lengthAdjust="spacingAndGlyphs" textLength="123" x="40" y="82.3843">hybrid_search.py</text><rect fill="#EEF3FB" filter="url(#fppz84h8knqk5)" height="31.4609" style="stroke: #5577AA; stroke-width: 1.5;" width="137" x="33" y="1390.2813"/><text fill="#222222" font-family="Arial" font-size="15" lengthAdjust="spacingAndGlyphs" textLength="123" x="40" y="1411.2046">hybrid_search.py</text><rect fill="#EEF3FB" filter="url(#fppz84h8knqk5)" height="31.4609" style="stroke: #5577AA; stroke-width: 1.5;" width="85" x="308" y="61.4609"/><text fill="#222222" font-family="Arial" font-size="15" lengthAdjust="spacingAndGlyphs" textLength="71" x="315" y="82.3843">search.py</text><rect fill="#EEF3FB" filter="url(#fppz84h8knqk5)" height="31.4609" style="stroke: #5577AA; stroke-width: 1.5;" width="85" x="308" y="1390.2813"/><text fill="#222222" font-family="Arial" font-size="15" lengthAdjust="spacingAndGlyphs" textLength="71" x="315" y="1411.2046">search.py</text><rect fill="#EEF3FB" filter="url(#fppz84h8knqk5)" height="31.4609" style="stroke: #5577AA; stroke-width: 1.5;" width="87" x="407" y="61.4609"/><text fill="#222222" font-family="Arial" font-size="15" lengthAdjust="spacingAndGlyphs" textLength="73" x="414" y="82.3843">embed.py</text><rect fill="#EEF3FB" filter="url(#fppz84h8knqk5)" height="31.4609" style="stroke: #5577AA; stroke-width: 1.5;" width="87" x="407" y="1390.2813"/><text fill="#222222" font-family="Arial" font-size="15" lengthAdjust="spacingAndGlyphs" textLength="73" x="414" y="1411.2046">embed.py</text><rect fill="#EEF3FB" filter="url(#fppz84h8knqk5)" height="31.4609" style="stroke: #5577AA; stroke-width: 1.5;" width="83" x="508" y="61.4609"/><text fill="#222222" font-family="Arial" font-size="15" lengthAdjust="spacingAndGlyphs" textLength="69" x="515" y="82.3843">rerank.py</text><rect fill="#EEF3FB" filter="url(#fppz84h8knqk5)" height="31.4609" style="stroke: #5577AA; stroke-width: 1.5;" width="83" x="508" y="1390.2813"/><text fill="#222222" font-family="Arial" font-size="15" lengthAdjust="spacingAndGlyphs" textLength="69" x="515" y="1411.2046">rerank.py</text><text fill="#000000" font-family="Arial" font-size="15" lengthAdjust="spacingAndGlyphs" textLength="84" x="703.5" y="94.3843">Chroma DB</text><path d="M730.5,44.4609 C730.5,34.4609 748.5,34.4609 748.5,34.4609 C748.5,34.4609 766.5,34.4609 766.5,44.4609 L766.5,70.4609 C766.5,80.4609 748.5,80.4609 748.5,80.4609 C748.5,80.4609 730.5,80.4609 730.5,70.4609 L730.5,44.4609 " fill="#FFF8E7" filter="url(#fppz84h8knqk5)" style="stroke: #CC9900; stroke-width: 1.5;"/><path d="M730.5,44.4609 C730.5,54.4609 748.5,54.4609 748.5,54.4609 C748.5,54.4609 766.5,54.4609 766.5,44.4609 " fill="none" style="stroke: #CC9900; stroke-width: 1.5;"/><text fill="#000000" font-family="Arial" font-size="15" lengthAdjust="spacingAndGlyphs" textLength="84" x="703.5" y="1404.2046">Chroma DB</text><path d="M730.5,1417.7422 C730.5,1407.7422 748.5,1407.7422 748.5,1407.7422 C748.5,1407.7422 766.5,1407.7422 766.5,1417.7422 L766.5,1443.7422 C766.5,1453.7422 748.5,1453.7422 748.5,1453.7422 C748.5,1453.7422 730.5,1453.7422 730.5,1443.7422 L730.5,1417.7422 " fill="#FFF8E7" filter="url(#fppz84h8knqk5)" style="stroke: #CC9900; stroke-width: 1.5;"/><path d="M730.5,1417.7422 C730.5,1427.7422 748.5,1427.7422 748.5,1427.7422 C748.5,1427.7422 766.5,1427.7422 766.5,1417.7422 " fill="none" style="stroke: #CC9900; stroke-width: 1.5;"/><rect fill="#EEF3FB" filter="url(#fppz84h8knqk5)" height="31.4609" style="stroke: #5577AA; stroke-width: 1.5;" width="93" x="803.5" y="61.4609"/><text fill="#222222" font-family="Arial" font-size="15" lengthAdjust="spacingAndGlyphs" textLength="79" x="810.5" y="82.3843">OpenAI API</text><rect fill="#EEF3FB" filter="url(#fppz84h8knqk5)" height="31.4609" style="stroke: #5577AA; stroke-width: 1.5;" width="93" x="803.5" y="1390.2813"/><text fill="#222222" font-family="Arial" font-size="15" lengthAdjust="spacingAndGlyphs" textLength="79" x="810.5" y="1411.2046">OpenAI API</text><rect fill="#EEF3FB" filter="url(#fppz84h8knqk5)" height="31.4609" style="stroke: #5577AA; stroke-width: 1.5;" width="98" x="910.5" y="61.4609"/><text fill="#222222" font-family="Arial" font-size="15" lengthAdjust="spacingAndGlyphs" textLength="84" x="917.5" y="82.3843">BM25Okapi</text><rect fill="#EEF3FB" filter="url(#fppz84h8knqk5)" height="31.4609" style="stroke: #5577AA; stroke-width: 1.5;" width="98" x="910.5" y="1390.2813"/><text fill="#222222" font-family="Arial" font-size="15" lengthAdjust="spacingAndGlyphs" textLength="84" x="917.5" y="1411.2046">BM25Okapi</text><rect fill="#EEF3FB" filter="url(#fppz84h8knqk5)" height="31.4609" style="stroke: #5577AA; stroke-width: 1.5;" width="114" x="1022.5" y="61.4609"/><text fill="#222222" font-family="Arial" font-size="15" lengthAdjust="spacingAndGlyphs" textLength="100" x="1029.5" y="82.3843">CrossEncoder</text><rect fill="#EEF3FB" filter="url(#fppz84h8knqk5)" height="31.4609" style="stroke: #5577AA; stroke-width: 1.5;" width="114" x="1022.5" y="1390.2813"/><text fill="#222222" font-family="Arial" font-size="15" lengthAdjust="spacingAndGlyphs" textLength="100" x="1029.5" y="1411.2046">CrossEncoder</text><rect fill="#EEEEEE" filter="url(#fppz84h8knqk5)" height="3" style="stroke: #EEEEEE; stroke-width: 1.0;" width="1142.5" x="3" y="129.6523"/><line style="stroke: #000000; stroke-width: 1.0;" x1="3" x2="1145.5" y1="129.6523" y2="129.6523"/><line style="stroke: #000000; stroke-width: 1.0;" x1="3" x2="1145.5" y1="132.6523" y2="132.6523"/><rect fill="#EEEEEE" filter="url(#fppz84h8knqk5)" height="25.4609" style="stroke: #000000; stroke-width: 2.0;" width="474" x="337.25" y="117.9219"/><text fill="#000000" font-family="Arial" font-size="15" font-weight="bold" lengthAdjust="spacingAndGlyphs" textLength="455" x="343.25" y="135.8452">Stage 1 -- Vector Search (with optional metadata filter)</text><polygon fill="#A80036" points="440.5,172.8438,450.5,176.8438,440.5,180.8438,444.5,176.8438" style="stroke: #A80036; stroke-width: 1.0;"/><line style="stroke: #A80036; stroke-width: 2.0;" x1="103.5" x2="446.5" y1="176.8438" y2="176.8438"/><text fill="#000000" font-family="Arial" font-size="15" lengthAdjust="spacingAndGlyphs" textLength="174" x="110.5" y="171.3062">embed_query(question)</text><polygon fill="#A80036" points="840,221.7656,850,225.7656,840,229.7656,844,225.7656" style="stroke: #A80036; stroke-width: 1.0;"/><line style="stroke: #A80036; stroke-width: 2.0;" x1="452.5" x2="846" y1="225.7656" y2="225.7656"/><text fill="#000000" font-family="Arial" font-size="15" lengthAdjust="spacingAndGlyphs" textLength="153" x="459.5" y="202.7671">embeddings.create()</text><text fill="#000000" font-family="Arial" font-size="15" lengthAdjust="spacingAndGlyphs" textLength="175" x="459.5" y="220.228">text-embedding-3-small</text><polygon fill="#A80036" points="463.5,253.2266,453.5,257.2266,463.5,261.2266,459.5,257.2266" style="stroke: #A80036; stroke-width: 1.0;"/><line style="stroke: #A80036; stroke-width: 2.0; stroke-dasharray: 2.0,2.0;" x1="457.5" x2="851" y1="257.2266" y2="257.2266"/><text fill="#000000" font-family="Arial" font-size="15" lengthAdjust="spacingAndGlyphs" textLength="92" x="469.5" y="251.689">query vector</text><polygon fill="#A80036" points="114.5,284.6875,104.5,288.6875,114.5,292.6875,110.5,288.6875" style="stroke: #A80036; stroke-width: 1.0;"/><line style="stroke: #A80036; stroke-width: 2.0; stroke-dasharray: 2.0,2.0;" x1="108.5" x2="451.5" y1="288.6875" y2="288.6875"/><text fill="#000000" font-family="Arial" font-size="15" lengthAdjust="spacingAndGlyphs" textLength="92" x="120.5" y="283.1499">query vector</text><path d="M13,303.6875 L79,303.6875 L79,312.6875 L69,322.6875 L13,322.6875 L13,303.6875 " fill="#EEEEEE" style="stroke: #000000; stroke-width: 1.0;"/><rect fill="none" height="327.9922" style="stroke: #000000; stroke-width: 2.0;" width="800.5" x="13" y="303.6875"/><text fill="#000000" font-family="Arial" font-size="15" font-weight="bold" lengthAdjust="spacingAndGlyphs" textLength="21" x="28" y="318.6108">alt</text><text fill="#000000" font-family="Arial" font-size="15" font-weight="bold" lengthAdjust="spacingAndGlyphs" textLength="213" x="94" y="319.6108">[metadata filter provided]</text><polygon fill="#A80036" points="736.5,362.5313,746.5,366.5313,736.5,370.5313,740.5,366.5313" style="stroke: #A80036; stroke-width: 1.0;"/><line style="stroke: #A80036; stroke-width: 2.0;" x1="103.5" x2="742.5" y1="366.5313" y2="366.5313"/><text fill="#000000" font-family="Arial" font-size="15" lengthAdjust="spacingAndGlyphs" textLength="250" x="110.5" y="343.5327">query(embeddings, n_results=20,</text><text fill="#000000" font-family="Arial" font-size="15" lengthAdjust="spacingAndGlyphs" textLength="215" x="110.5" y="360.9937">where={"source": "file.txt"})</text><polygon fill="#A80036" points="114.5,393.9922,104.5,397.9922,114.5,401.9922,110.5,397.9922" style="stroke: #A80036; stroke-width: 1.0;"/><line style="stroke: #A80036; stroke-width: 2.0; stroke-dasharray: 2.0,2.0;" x1="108.5" x2="747.5" y1="397.9922" y2="397.9922"/><text fill="#000000" font-family="Arial" font-size="15" lengthAdjust="spacingAndGlyphs" textLength="160" x="120.5" y="392.4546">filtered top-20 chunks</text><line style="stroke: #A80036; stroke-width: 2.0;" x1="103.5" x2="145.5" y1="429.4531" y2="429.4531"/><line style="stroke: #A80036; stroke-width: 2.0;" x1="145.5" x2="145.5" y1="429.4531" y2="442.4531"/><line style="stroke: #A80036; stroke-width: 2.0;" x1="104.5" x2="145.5" y1="442.4531" y2="442.4531"/><polygon fill="#A80036" points="114.5,438.4531,104.5,442.4531,114.5,446.4531,110.5,442.4531" style="stroke: #A80036; stroke-width: 1.0;"/><text fill="#000000" font-family="Arial" font-size="15" lengthAdjust="spacingAndGlyphs" textLength="123" x="110.5" y="423.9155">len(results) &lt; 2?</text><path d="M23,457.4531 L89,457.4531 L89,466.4531 L79,476.4531 L23,476.4531 L23,457.4531 " fill="#EEEEEE" style="stroke: #000000; stroke-width: 1.0;"/><rect fill="none" height="84.8438" style="stroke: #000000; stroke-width: 2.0;" width="780.5" x="23" y="457.4531"/><text fill="#000000" font-family="Arial" font-size="15" font-weight="bold" lengthAdjust="spacingAndGlyphs" textLength="21" x="38" y="472.3765">alt</text><text fill="#000000" font-family="Arial" font-size="15" font-weight="bold" lengthAdjust="spacingAndGlyphs" textLength="138" x="104" y="473.3765">[too few results]</text><polygon fill="#A80036" points="736.5,498.8359,746.5,502.8359,736.5,506.8359,740.5,502.8359" style="stroke: #A80036; stroke-width: 1.0;"/><line style="stroke: #A80036; stroke-width: 2.0;" x1="103.5" x2="742.5" y1="502.8359" y2="502.8359"/><text fill="#000000" font-family="Arial" font-size="15" lengthAdjust="spacingAndGlyphs" textLength="132" x="110.5" y="497.2983">retry without filter</text><polygon fill="#A80036" points="114.5,530.2969,104.5,534.2969,114.5,538.2969,110.5,534.2969" style="stroke: #A80036; stroke-width: 1.0;"/><line style="stroke: #A80036; stroke-width: 2.0; stroke-dasharray: 2.0,2.0;" x1="108.5" x2="747.5" y1="534.2969" y2="534.2969"/><text fill="#000000" font-family="Arial" font-size="15" lengthAdjust="spacingAndGlyphs" textLength="178" x="120.5" y="528.7593">unfiltered top-20 chunks</text><line style="stroke: #000000; stroke-width: 1.0; stroke-dasharray: 2.0,2.0;" x1="13" x2="813.5" y1="550.2969" y2="550.2969"/><text fill="#000000" font-family="Arial" font-size="15" font-weight="bold" lengthAdjust="spacingAndGlyphs" textLength="78" x="18" y="564.2202">[no filter]</text><polygon fill="#A80036" points="736.5,588.2188,746.5,592.2188,736.5,596.2188,740.5,592.2188" style="stroke: #A80036; stroke-width: 1.0;"/><line style="stroke: #A80036; stroke-width: 2.0;" x1="103.5" x2="742.5" y1="592.2188" y2="592.2188"/><text fill="#000000" font-family="Arial" font-size="15" lengthAdjust="spacingAndGlyphs" textLength="251" x="110.5" y="586.6812">query(embeddings, n_results=20)</text><polygon fill="#A80036" points="114.5,619.6797,104.5,623.6797,114.5,627.6797,110.5,623.6797" style="stroke: #A80036; stroke-width: 1.0;"/><line style="stroke: #A80036; stroke-width: 2.0; stroke-dasharray: 2.0,2.0;" x1="108.5" x2="747.5" y1="623.6797" y2="623.6797"/><text fill="#000000" font-family="Arial" font-size="15" lengthAdjust="spacingAndGlyphs" textLength="247" x="120.5" y="618.1421">top-20 chunks by cosine similarity</text><rect fill="#EEEEEE" filter="url(#fppz84h8knqk5)" height="3" style="stroke: #EEEEEE; stroke-width: 1.0;" width="1142.5" x="3" y="660.4102"/><line style="stroke: #000000; stroke-width: 1.0;" x1="3" x2="1145.5" y1="660.4102" y2="660.4102"/><line style="stroke: #000000; stroke-width: 1.0;" x1="3" x2="1145.5" y1="663.4102" y2="663.4102"/><rect fill="#EEEEEE" filter="url(#fppz84h8knqk5)" height="25.4609" style="stroke: #000000; stroke-width: 2.0;" width="288" x="430.25" y="648.6797"/><text fill="#000000" font-family="Arial" font-size="15" font-weight="bold" lengthAdjust="spacingAndGlyphs" textLength="269" x="436.25" y="666.603">Stage 2 -- BM25 Keyword Search</text><polygon fill="#A80036" points="949.5,703.6016,959.5,707.6016,949.5,711.6016,953.5,707.6016" style="stroke: #A80036; stroke-width: 1.0;"/><line style="stroke: #A80036; stroke-width: 2.0;" x1="103.5" x2="955.5" y1="707.6016" y2="707.6016"/><text fill="#000000" font-family="Arial" font-size="15" lengthAdjust="spacingAndGlyphs" textLength="220" x="110.5" y="702.064">BM25Okapi(tokenized corpus)</text><polygon fill="#A80036" points="949.5,735.0625,959.5,739.0625,949.5,743.0625,953.5,739.0625" style="stroke: #A80036; stroke-width: 1.0;"/><line style="stroke: #A80036; stroke-width: 2.0;" x1="103.5" x2="955.5" y1="739.0625" y2="739.0625"/><text fill="#000000" font-family="Arial" font-size="15" lengthAdjust="spacingAndGlyphs" textLength="229" x="110.5" y="733.5249">get_scores(tokenized question)</text><polygon fill="#A80036" points="114.5,766.5234,104.5,770.5234,114.5,774.5234,110.5,770.5234" style="stroke: #A80036; stroke-width: 1.0;"/><line style="stroke: #A80036; stroke-width: 2.0; stroke-dasharray: 2.0,2.0;" x1="108.5" x2="960.5" y1="770.5234" y2="770.5234"/><text fill="#000000" font-family="Arial" font-size="15" lengthAdjust="spacingAndGlyphs" textLength="267" x="120.5" y="764.9858">keyword relevance scores per chunk</text><line style="stroke: #A80036; stroke-width: 2.0;" x1="103.5" x2="145.5" y1="819.4453" y2="819.4453"/><line style="stroke: #A80036; stroke-width: 2.0;" x1="145.5" x2="145.5" y1="819.4453" y2="832.4453"/><line style="stroke: #A80036; stroke-width: 2.0;" x1="104.5" x2="145.5" y1="832.4453" y2="832.4453"/><polygon fill="#A80036" points="114.5,828.4453,104.5,832.4453,114.5,836.4453,110.5,832.4453" style="stroke: #A80036; stroke-width: 1.0;"/><text fill="#000000" font-family="Arial" font-size="15" lengthAdjust="spacingAndGlyphs" textLength="203" x="110.5" y="796.4468">rank chunks by BM25 score</text><text fill="#000000" font-family="Arial" font-size="15" lengthAdjust="spacingAndGlyphs" textLength="89" x="110.5" y="813.9077">keep top-20</text><rect fill="#EEEEEE" filter="url(#fppz84h8knqk5)" height="3" style="stroke: #EEEEEE; stroke-width: 1.0;" width="1142.5" x="3" y="862.1758"/><line style="stroke: #000000; stroke-width: 1.0;" x1="3" x2="1145.5" y1="862.1758" y2="862.1758"/><line style="stroke: #000000; stroke-width: 1.0;" x1="3" x2="1145.5" y1="865.1758" y2="865.1758"/><rect fill="#EEEEEE" filter="url(#fppz84h8knqk5)" height="25.4609" style="stroke: #000000; stroke-width: 2.0;" width="192" x="478.25" y="850.4453"/><text fill="#000000" font-family="Arial" font-size="15" font-weight="bold" lengthAdjust="spacingAndGlyphs" textLength="173" x="484.25" y="868.3687">Stage 3 -- RRF Merge</text><line style="stroke: #A80036; stroke-width: 2.0;" x1="103.5" x2="145.5" y1="926.8281" y2="926.8281"/><line style="stroke: #A80036; stroke-width: 2.0;" x1="145.5" x2="145.5" y1="926.8281" y2="939.8281"/><line style="stroke: #A80036; stroke-width: 2.0;" x1="104.5" x2="145.5" y1="939.8281" y2="939.8281"/><polygon fill="#A80036" points="114.5,935.8281,104.5,939.8281,114.5,943.8281,110.5,939.8281" style="stroke: #A80036; stroke-width: 1.0;"/><text fill="#000000" font-family="Arial" font-size="15" lengthAdjust="spacingAndGlyphs" textLength="235" x="110.5" y="903.8296">for each chunk in vector results:</text><text fill="#000000" font-family="Arial" font-size="15" lengthAdjust="spacingAndGlyphs" textLength="188" x="120.5" y="921.2905">score += 1 / (60 + rank)</text><line style="stroke: #A80036; stroke-width: 2.0;" x1="103.5" x2="145.5" y1="988.75" y2="988.75"/><line style="stroke: #A80036; stroke-width: 2.0;" x1="145.5" x2="145.5" y1="988.75" y2="1001.75"/><line style="stroke: #A80036; stroke-width: 2.0;" x1="104.5" x2="145.5" y1="1001.75" y2="1001.75"/><polygon fill="#A80036" points="114.5,997.75,104.5,1001.75,114.5,1005.75,110.5,1001.75" style="stroke: #A80036; stroke-width: 1.0;"/><text fill="#000000" font-family="Arial" font-size="15" lengthAdjust="spacingAndGlyphs" textLength="232" x="110.5" y="965.7515">for each chunk in BM25 results:</text><text fill="#000000" font-family="Arial" font-size="15" lengthAdjust="spacingAndGlyphs" textLength="188" x="120.5" y="983.2124">score += 1 / (60 + rank)</text><line style="stroke: #A80036; stroke-width: 2.0;" x1="103.5" x2="145.5" y1="1050.6719" y2="1050.6719"/><line style="stroke: #A80036; stroke-width: 2.0;" x1="145.5" x2="145.5" y1="1050.6719" y2="1063.6719"/><line style="stroke: #A80036; stroke-width: 2.0;" x1="104.5" x2="145.5" y1="1063.6719" y2="1063.6719"/><polygon fill="#A80036" points="114.5,1059.6719,104.5,1063.6719,114.5,1067.6719,110.5,1063.6719" style="stroke: #A80036; stroke-width: 1.0;"/><text fill="#000000" font-family="Arial" font-size="15" lengthAdjust="spacingAndGlyphs" textLength="206" x="110.5" y="1027.6733">sort by combined RRF score</text><text fill="#000000" font-family="Arial" font-size="15" lengthAdjust="spacingAndGlyphs" textLength="183" x="110.5" y="1045.1343">return top-20 candidates</text><rect fill="#EEEEEE" filter="url(#fppz84h8knqk5)" height="3" style="stroke: #EEEEEE; stroke-width: 1.0;" width="1142.5" x="3" y="1093.4023"/><line style="stroke: #000000; stroke-width: 1.0;" x1="3" x2="1145.5" y1="1093.4023" y2="1093.4023"/><line style="stroke: #000000; stroke-width: 1.0;" x1="3" x2="1145.5" y1="1096.4023" y2="1096.4023"/><rect fill="#EEEEEE" filter="url(#fppz84h8knqk5)" height="25.4609" style="stroke: #000000; stroke-width: 2.0;" width="309" x="419.75" y="1081.6719"/><text fill="#000000" font-family="Arial" font-size="15" font-weight="bold" lengthAdjust="spacingAndGlyphs" textLength="290" x="425.75" y="1099.5952">Stage 4 -- Cross-Encoder Reranking</text><polygon fill="#A80036" points="539.5,1136.5938,549.5,1140.5938,539.5,1144.5938,543.5,1140.5938" style="stroke: #A80036; stroke-width: 1.0;"/><line style="stroke: #A80036; stroke-width: 2.0; stroke-dasharray: 2.0,2.0;" x1="103.5" x2="545.5" y1="1140.5938" y2="1140.5938"/><text fill="#000000" font-family="Arial" font-size="15" lengthAdjust="spacingAndGlyphs" textLength="133" x="110.5" y="1135.0562">top-20 candidates</text><polygon fill="#A80036" points="1069.5,1185.5156,1079.5,1189.5156,1069.5,1193.5156,1073.5,1189.5156" style="stroke: #A80036; stroke-width: 1.0;"/><line style="stroke: #A80036; stroke-width: 2.0;" x1="551.5" x2="1075.5" y1="1189.5156" y2="1189.5156"/><text fill="#000000" font-family="Arial" font-size="15" lengthAdjust="spacingAndGlyphs" textLength="275" x="558.5" y="1166.5171">predict([(question, chunk_text)] x20)</text><text fill="#000000" font-family="Arial" font-size="15" lengthAdjust="spacingAndGlyphs" textLength="288" x="558.5" y="1183.978">cross-encoder/ms-marco-MiniLM-L-6-v2</text><polygon fill="#A80036" points="562.5,1216.9766,552.5,1220.9766,562.5,1224.9766,558.5,1220.9766" style="stroke: #A80036; stroke-width: 1.0;"/><line style="stroke: #A80036; stroke-width: 2.0; stroke-dasharray: 2.0,2.0;" x1="556.5" x2="1080.5" y1="1220.9766" y2="1220.9766"/><text fill="#000000" font-family="Arial" font-size="15" lengthAdjust="spacingAndGlyphs" textLength="123" x="568.5" y="1215.439">relevance scores</text><line style="stroke: #A80036; stroke-width: 2.0;" x1="551.5" x2="593.5" y1="1269.8984" y2="1269.8984"/><line style="stroke: #A80036; stroke-width: 2.0;" x1="593.5" x2="593.5" y1="1269.8984" y2="1282.8984"/><line style="stroke: #A80036; stroke-width: 2.0;" x1="552.5" x2="593.5" y1="1282.8984" y2="1282.8984"/><polygon fill="#A80036" points="562.5,1278.8984,552.5,1282.8984,562.5,1286.8984,558.5,1282.8984" style="stroke: #A80036; stroke-width: 1.0;"/><text fill="#000000" font-family="Arial" font-size="15" lengthAdjust="spacingAndGlyphs" textLength="183" x="558.5" y="1246.8999">sort descending by score</text><text fill="#000000" font-family="Arial" font-size="15" lengthAdjust="spacingAndGlyphs" textLength="79" x="558.5" y="1264.3608">keep top-5</text><polygon fill="#A80036" points="114.5,1310.3594,104.5,1314.3594,114.5,1318.3594,110.5,1314.3594" style="stroke: #A80036; stroke-width: 1.0;"/><line style="stroke: #A80036; stroke-width: 2.0; stroke-dasharray: 2.0,2.0;" x1="108.5" x2="550.5" y1="1314.3594" y2="1314.3594"/><text fill="#000000" font-family="Arial" font-size="15" lengthAdjust="spacingAndGlyphs" textLength="165" x="120.5" y="1308.8218">top-5 reranked chunks</text><path d="M49,1327.3594 L49,1371.3594 L606,1371.3594 L606,1337.3594 L596,1327.3594 L49,1327.3594 " fill="#FBFB77" filter="url(#fppz84h8knqk5)" style="stroke: #A80036; stroke-width: 1.0;"/><path d="M596,1327.3594 L596,1337.3594 L606,1337.3594 L596,1327.3594 " fill="#FBFB77" style="stroke: #A80036; stroke-width: 1.0;"/><text fill="#000000" font-family="Arial" font-size="15" lengthAdjust="spacingAndGlyphs" textLength="429" x="106.5" y="1346.2827">Final output: 5 chunks ordered by cross-encoder relevance</text><text fill="#000000" font-family="Arial" font-size="15" lengthAdjust="spacingAndGlyphs" textLength="254" x="106.5" y="1363.7437">ready to be passed to generate.py</text><!--MD5=[7c90201f422c7447c686a738639e338c]
@startuml pipeline-retrieval-quality

skinparam backgroundColor #FFFFFF
skinparam defaultFontName Arial
skinparam defaultFontSize 15
skinparam sequenceArrowThickness 2
skinparam SequenceBoxBackgroundColor #F8F9FF
skinparam SequenceBoxBorderColor #AABBDD
skinparam ParticipantBackgroundColor #EEF3FB
skinparam ParticipantBorderColor #5577AA
skinparam ParticipantFontColor #222222
skinparam DatabaseBackgroundColor #FFF8E7
skinparam DatabaseBorderColor #CC9900
skinparam ActorBackgroundColor #F0FFF0
skinparam ActorBorderColor #448844

title Phase 5 - - Retrieval Quality (Hybrid Search + Reranking + Metadata Filtering)

participant "hybrid_search.py" as hybrid
participant "search.py" as search
participant "embed.py" as embed
participant "rerank.py" as reranker
database "Chroma DB" as chroma
participant "OpenAI API" as openai
participant "BM25Okapi" as bm25
participant "CrossEncoder" as crossencoder

== Stage 1 - - Vector Search (with optional metadata filter) ==

hybrid -> embed : embed_query(question)
embed -> openai : embeddings.create()\ntext-embedding-3-small
openai - -> embed : query vector
embed - -> hybrid : query vector

alt metadata filter provided
  hybrid -> chroma : query(embeddings, n_results=20,\nwhere={"source": "file.txt"})
  chroma - -> hybrid : filtered top-20 chunks
  hybrid -> hybrid : len(results) < 2?
  alt too few results
    hybrid -> chroma : retry without filter
    chroma - -> hybrid : unfiltered top-20 chunks
  end
else no filter
  hybrid -> chroma : query(embeddings, n_results=20)
  chroma - -> hybrid : top-20 chunks by cosine similarity
end

== Stage 2 - - BM25 Keyword Search ==

hybrid -> bm25 : BM25Okapi(tokenized corpus)
hybrid -> bm25 : get_scores(tokenized question)
bm25 - -> hybrid : keyword relevance scores per chunk
hybrid -> hybrid : rank chunks by BM25 score\nkeep top-20

== Stage 3 - - RRF Merge ==

hybrid -> hybrid : for each chunk in vector results:\n  score += 1 / (60 + rank)
hybrid -> hybrid : for each chunk in BM25 results:\n  score += 1 / (60 + rank)
hybrid -> hybrid : sort by combined RRF score\nreturn top-20 candidates

== Stage 4 - - Cross-Encoder Reranking ==

hybrid - -> reranker : top-20 candidates
reranker -> crossencoder : predict([(question, chunk_text)] x20)\ncross-encoder/ms-marco-MiniLM-L-6-v2
crossencoder - -> reranker : relevance scores
reranker -> reranker : sort descending by score\nkeep top-5
reranker - -> hybrid : top-5 reranked chunks

note over hybrid, reranker
  Final output: 5 chunks ordered by cross-encoder relevance
  ready to be passed to generate.py
end note

@enduml

PlantUML version 1.2020.02(Sun Mar 01 10:22:07 UTC 2020)
(GPL source distribution)
Java Runtime: OpenJDK Runtime Environment
JVM: OpenJDK 64-Bit Server VM
Java Version: 17.0.19+10
Operating System: Linux
Default Encoding: UTF-8
Language: en
Country: null
--></g></svg>